<svg width="152" height="30" viewBox="0 0 152 30" fill="none" xmlns="http://www.w3.org/2000/svg">
<path d="M0.296875 11.875C0.296875 9.72917 0.697917 7.8125 1.5 6.125C2.3125 4.4375 3.47917 3.10938 5 2.14062C6.53125 1.16146 8.30208 0.671875 10.3125 0.671875C11.7396 0.671875 13.0417 0.911458 14.2188 1.39062C15.3958 1.85938 16.3698 2.5 17.1406 3.3125C17.9115 4.125 18.5104 5.05729 18.9375 6.10938C19.375 7.16146 19.6146 8.28125 19.6562 9.46875H14.8906C14.8385 8.85417 14.7135 8.27604 14.5156 7.73438C14.3177 7.18229 14.0417 6.68229 13.6875 6.23438C13.3333 5.78646 12.8698 5.43229 12.2969 5.17188C11.724 4.90104 11.0729 4.76562 10.3438 4.76562C8.77083 4.76562 7.51562 5.4375 6.57812 6.78125C5.65104 8.11458 5.1875 9.8125 5.1875 11.875C5.1875 13.9896 5.63021 15.6719 6.51562 16.9219C7.40104 18.1615 8.65625 18.7812 10.2812 18.7812C11.6354 18.7812 12.6823 18.349 13.4219 17.4844C14.1719 16.6198 14.6719 15.4635 14.9219 14.0156H19.6562C19.5625 15.2552 19.2865 16.4115 18.8281 17.4844C18.3802 18.5469 17.7708 19.4844 17 20.2969C16.2396 21.1094 15.2812 21.7448 14.125 22.2031C12.9792 22.6615 11.7083 22.8906 10.3125 22.8906C7.13542 22.8906 4.67188 21.901 2.92188 19.9219C1.17188 17.9323 0.296875 15.25 0.296875 11.875ZM21.8906 14.3438C21.8906 13 22.099 11.7812 22.5156 10.6875C22.9323 9.59375 23.5052 8.69271 24.2344 7.98438C24.974 7.27604 25.8333 6.72917 26.8125 6.34375C27.7917 5.95833 28.849 5.76562 29.9844 5.76562C31.5469 5.76562 32.9271 6.07812 34.125 6.70312C35.3229 7.32812 36.276 8.28646 36.9844 9.57812C37.6927 10.8698 38.0469 12.4167 38.0469 14.2188C38.0469 15.5625 37.8333 16.7812 37.4062 17.875C36.9792 18.9688 36.3958 19.875 35.6562 20.5938C34.9271 21.3021 34.0729 21.849 33.0938 22.2344C32.1146 22.6198 31.0677 22.8125 29.9531 22.8125C27.5469 22.8125 25.599 22.0781 24.1094 20.6094C22.6302 19.1406 21.8906 17.0521 21.8906 14.3438ZM32.4062 17.7969C33.0312 16.9427 33.3438 15.7604 33.3438 14.25C33.3438 12.7396 33.0365 11.5729 32.4219 10.75C31.8177 9.92708 31.0052 9.51562 29.9844 9.51562C28.9531 9.51562 28.1302 9.92708 27.5156 10.75C26.901 11.5729 26.5938 12.7396 26.5938 14.25C26.5938 15.7708 26.901 16.9583 27.5156 17.8125C28.1302 18.6562 28.9427 19.0781 29.9531 19.0781C30.974 19.0781 31.7917 18.651 32.4062 17.7969ZM59.7188 5.76562C61.3438 5.76562 62.5729 6.26042 63.4062 7.25C64.25 8.23958 64.6719 9.59896 64.6719 11.3281V22.5H60.0625V12.4219C60.0625 11.5573 59.8854 10.8906 59.5312 10.4219C59.1771 9.94271 58.651 9.70312 57.9531 9.70312C57.1406 9.70312 56.4688 10.0833 55.9375 10.8438C55.4062 11.5938 55.1406 12.5677 55.1406 13.7656V22.5H50.5312V12.4219C50.5312 11.5573 50.349 10.8906 49.9844 10.4219C49.6198 9.94271 49.0885 9.70312 48.3906 9.70312C47.5885 9.70312 46.9167 10.0781 46.375 10.8281C45.8438 11.5781 45.5781 12.5469 45.5781 13.7344V22.5H40.9688V6.07812H45.5156V8.84375H45.6094C45.9323 7.97917 46.4844 7.25 47.2656 6.65625C48.0469 6.0625 49.0208 5.76562 50.1875 5.76562C51.3854 5.76562 52.3646 6.04688 53.125 6.60938C53.8958 7.17188 54.4375 7.96875 54.75 9H54.8594C55.224 8.05208 55.8125 7.27604 56.625 6.67188C57.4375 6.06771 58.4688 5.76562 59.7188 5.76562ZM77.5625 5.76562C79.5208 5.76562 81.099 6.48438 82.2969 7.92188C83.4948 9.35938 84.0938 11.4323 84.0938 14.1406C84.0938 16.7865 83.4635 18.8958 82.2031 20.4688C80.9427 22.0312 79.276 22.8125 77.2031 22.8125C75.974 22.8125 74.974 22.5677 74.2031 22.0781C73.4427 21.5781 72.974 21.0573 72.7969 20.5156H72.7031V29.375H68.0938V6.07812H72.6406V8.76562H72.7344C73.026 7.92188 73.5729 7.21354 74.375 6.64062C75.1875 6.05729 76.25 5.76562 77.5625 5.76562ZM75.9688 19.2031C77.0521 19.2031 77.9062 18.7656 78.5312 17.8906C79.1667 17.0156 79.4844 15.8333 79.4844 14.3438C79.4844 12.7917 79.1771 11.5938 78.5625 10.75C77.9479 9.89583 77.125 9.46875 76.0938 9.46875C75.0938 9.46875 74.276 9.875 73.6406 10.6875C73.0156 11.4896 72.7031 12.6094 72.7031 14.0469V14.9844C72.7031 16.3177 73.0052 17.3542 73.6094 18.0938C74.224 18.8333 75.0104 19.2031 75.9688 19.2031ZM86.0625 18.2812C86.0625 17.6562 86.151 17.0885 86.3281 16.5781C86.5156 16.0677 86.7656 15.6302 87.0781 15.2656C87.401 14.8906 87.8021 14.5677 88.2812 14.2969C88.7604 14.0156 89.2656 13.7917 89.7969 13.625C90.3385 13.4479 90.9479 13.3073 91.625 13.2031C92.3125 13.0885 92.9844 13.0104 93.6406 12.9688C94.3073 12.9167 95.0365 12.8854 95.8281 12.875V11.7812C95.8281 10.8854 95.6354 10.2188 95.25 9.78125C94.8646 9.34375 94.2656 9.125 93.4531 9.125C92.7344 9.125 92.151 9.31771 91.7031 9.70312C91.2552 10.0885 91.0312 10.6198 91.0312 11.2969C91.0312 11.6094 91.0521 11.8958 91.0938 12.1562H86.7344C86.7135 11.9479 86.7031 11.6406 86.7031 11.2344C86.7031 9.60938 87.3438 8.29167 88.625 7.28125C89.9167 6.27083 91.5833 5.76562 93.625 5.76562C95.8125 5.76562 97.4792 6.30208 98.625 7.375C99.7708 8.4375 100.344 9.95833 100.344 11.9375V17.25C100.344 17.9583 100.401 18.4479 100.516 18.7188C100.63 18.9792 100.849 19.1094 101.172 19.1094C101.411 19.1094 101.625 19.0469 101.812 18.9219V22.25C101.625 22.375 101.292 22.4896 100.812 22.5938C100.344 22.6979 99.875 22.75 99.4062 22.75C98.5833 22.75 97.9323 22.6562 97.4531 22.4688C96.9844 22.2812 96.6406 22.0208 96.4219 21.6875C96.2135 21.3438 96.0677 20.8698 95.9844 20.2656H95.9219C95.0052 21.9635 93.4062 22.8125 91.125 22.8125C89.5104 22.8125 88.2604 22.4219 87.375 21.6406C86.5 20.849 86.0625 19.7292 86.0625 18.2812ZM95.8281 17.2188V15.625C94.0469 15.6875 92.7396 15.8802 91.9062 16.2031C91.0833 16.526 90.6719 17.0677 90.6719 17.8281C90.6719 18.9115 91.3438 19.4531 92.6875 19.4531C93.375 19.4531 94.0052 19.2552 94.5781 18.8594C95.151 18.4531 95.5677 17.9062 95.8281 17.2188ZM104.188 6.07812H108.703V9.40625H108.797C109.13 8.29167 109.661 7.41667 110.391 6.78125C111.12 6.14583 112.026 5.82812 113.109 5.82812C113.724 5.82812 114.26 5.88021 114.719 5.98438V10.7188C114.021 10.5312 113.359 10.4375 112.734 10.4375C111.599 10.4375 110.656 10.8333 109.906 11.625C109.167 12.4062 108.797 13.6094 108.797 15.2344V22.5H104.188V6.07812ZM131.156 13.8281C131.156 13.974 131.13 14.4531 131.078 15.2656H120.562C120.625 16.526 120.943 17.474 121.516 18.1094C122.099 18.7344 122.87 19.0469 123.828 19.0469C124.714 19.0469 125.391 18.8281 125.859 18.3906C126.339 17.9427 126.62 17.3594 126.703 16.6406H130.984C130.932 17.474 130.729 18.2604 130.375 19C130.031 19.7396 129.557 20.3958 128.953 20.9688C128.349 21.5312 127.594 21.9792 126.688 22.3125C125.792 22.6458 124.812 22.8125 123.75 22.8125C121.344 22.8125 119.432 22.0781 118.016 20.6094C116.599 19.1406 115.891 17.0521 115.891 14.3438C115.891 13 116.094 11.7812 116.5 10.6875C116.906 9.59375 117.464 8.69271 118.172 7.98438C118.88 7.27604 119.708 6.72917 120.656 6.34375C121.604 5.95833 122.625 5.76562 123.719 5.76562C125.958 5.76562 127.755 6.47917 129.109 7.90625C130.474 9.33333 131.156 11.3073 131.156 13.8281ZM123.719 9.25C122.906 9.25 122.224 9.52604 121.672 10.0781C121.13 10.6302 120.792 11.4427 120.656 12.5156H126.703C126.641 11.4219 126.339 10.6042 125.797 10.0625C125.266 9.52083 124.573 9.25 123.719 9.25ZM138.656 11.5938L132.125 1.0625H137.531L141.625 7.90625H141.766L145.953 1.0625H151.172L144.578 11.3281L151.547 22.5H146.141L141.594 15.1406H141.469L136.922 22.5H131.719L138.656 11.5938Z" fill="white"/>
</svg>
