<svg width="1240" height="55" viewBox="0 0 1240 55" fill="none" xmlns="http://www.w3.org/2000/svg">
<g clip-path="url(#clip0_642_1911)">
<path d="M67.7164 28.2615L65.1245 21.3627C65.1005 21.3005 65.0583 21.247 65.0034 21.2093C64.9484 21.1716 64.8834 21.1515 64.8167 21.1515C64.7501 21.1515 64.6851 21.1716 64.6301 21.2093C64.5752 21.247 64.5331 21.3005 64.509 21.3627L61.9171 28.2626C61.8991 28.3116 61.8934 28.3642 61.9003 28.4158C61.9074 28.4676 61.9269 28.5168 61.9573 28.5591C61.9876 28.6016 62.0278 28.6359 62.0745 28.6593C62.1212 28.6825 62.1728 28.694 62.2248 28.6928H67.4307C67.5083 28.6937 67.5831 28.6651 67.6405 28.6129C67.6977 28.5608 67.7331 28.4887 67.7395 28.4115C67.7444 28.3608 67.7364 28.3096 67.7164 28.2626V28.2615ZM68.9241 32.1329H60.7094C60.6424 32.1333 60.577 32.1541 60.5221 32.1925C60.4672 32.2309 60.4252 32.2852 60.4017 32.3479L58.7759 36.6516C58.7526 36.7143 58.7108 36.7683 58.656 36.8067C58.6013 36.8452 58.5363 36.866 58.4693 36.8667H54.9079C54.8535 36.8675 54.7998 36.8547 54.7516 36.8295C54.7034 36.8043 54.6623 36.7675 54.6319 36.7224C54.6014 36.6773 54.5827 36.6254 54.5774 36.5712C54.5721 36.517 54.5802 36.4625 54.6013 36.4123L62.794 16.3024C62.8184 16.2415 62.8615 16.1899 62.9168 16.1549C62.9723 16.1198 63.0374 16.1031 63.1028 16.1071H66.5064C66.5711 16.1075 66.6343 16.126 66.6889 16.1606C66.7435 16.1951 66.7873 16.2442 66.8153 16.3024L75.0068 36.4123C75.0279 36.4626 75.0362 36.5174 75.0308 36.5716C75.0253 36.6259 75.0065 36.678 74.976 36.7232C74.9455 36.7683 74.9042 36.8052 74.8558 36.8305C74.8075 36.8558 74.7537 36.8686 74.6991 36.8678H71.1432C71.076 36.8672 71.0106 36.8463 70.9557 36.8077C70.9008 36.7691 70.8589 36.7147 70.8355 36.6516L69.2098 32.3479C69.1943 32.2845 69.1575 32.2284 69.1054 32.189C69.0534 32.1496 68.9894 32.1294 68.9241 32.1318V32.1329ZM76.6998 23.1571H79.7539C79.8401 23.1588 79.9224 23.1935 79.9837 23.2541C80.0452 23.3145 80.0809 23.3963 80.0837 23.4825V36.5446C80.0809 36.6306 80.045 36.7122 79.9836 36.7724C79.9222 36.8325 79.8399 36.8667 79.7539 36.8678H76.7009C76.6148 36.867 76.5323 36.8329 76.4706 36.7727C76.409 36.7125 76.3729 36.6308 76.3701 36.5446V23.4825C76.3696 23.4391 76.3779 23.3962 76.3944 23.3562C76.411 23.3162 76.4355 23.2799 76.4663 23.2494C76.4972 23.2191 76.5339 23.1953 76.5742 23.1794C76.6146 23.1635 76.6577 23.1559 76.7009 23.1571H76.6998ZM91.1991 26.3358C91.1966 26.4222 91.1609 26.5042 91.0995 26.565C91.0382 26.6258 90.9558 26.6606 90.8693 26.6623H90.7811C89.2656 26.6623 88.1671 27.0064 87.4645 27.7211C86.762 28.4358 86.4101 29.6027 86.4101 31.2439V36.5215C86.4074 36.6075 86.3717 36.6891 86.3106 36.7497C86.2495 36.8101 86.1675 36.8449 86.0814 36.8468H83.0704C82.9845 36.8449 82.9024 36.8101 82.8413 36.7497C82.7802 36.6891 82.7446 36.6075 82.7417 36.5215V23.4825C82.7446 23.3963 82.7803 23.3145 82.8418 23.2541C82.9031 23.1935 82.9854 23.1588 83.0715 23.1571H86.0583C86.1448 23.1586 86.2273 23.1931 86.2889 23.2536C86.3505 23.3142 86.3864 23.3961 86.3892 23.4825V26.0556H86.4542C86.7593 25.0782 87.3572 24.2181 88.1671 23.5917C89.0137 22.9945 90.0325 22.6908 91.0678 22.727H91.2212V26.3369H91.1991V26.3358ZM99.5241 26.2079C99.4385 26.2093 99.3567 26.2434 99.2956 26.3034C99.2343 26.3633 99.1985 26.4443 99.1954 26.5299V31.9586C99.1546 32.3832 99.2715 32.8068 99.5241 33.1498C99.7447 33.3858 100.117 33.4939 100.667 33.4939H100.974C101.06 33.4959 101.142 33.5306 101.204 33.5912C101.265 33.6517 101.3 33.7333 101.303 33.8193V36.5435C101.3 36.6293 101.265 36.7107 101.203 36.7708C101.142 36.8311 101.06 36.8654 100.974 36.8667H99.6796C98.3384 36.8667 97.3072 36.5204 96.5826 35.8498C95.8568 35.1593 95.5061 34.1634 95.5061 32.8023V26.5299C95.503 26.444 95.4669 26.3626 95.4053 26.3026C95.3436 26.2426 95.2612 26.2086 95.1752 26.2079H93.2649C93.1788 26.206 93.0966 26.171 93.0355 26.1102C92.9743 26.0495 92.9388 25.9675 92.9362 25.8814V23.4825C92.9388 23.3965 92.9744 23.3146 93.0355 23.2541C93.0967 23.1935 93.1789 23.1588 93.2649 23.1571H95.1763C95.2623 23.156 95.3446 23.1218 95.406 23.0617C95.4675 23.0015 95.5033 22.92 95.5061 22.834V17.9888C95.5089 17.9028 95.5448 17.8213 95.6062 17.7611C95.6677 17.7009 95.7499 17.6667 95.8359 17.6656H98.8888C98.9748 17.6667 99.0571 17.7009 99.1185 17.7611C99.18 17.8213 99.2158 17.9028 99.2186 17.9888V22.834C99.2214 22.92 99.2573 23.0015 99.3187 23.0617C99.3802 23.1218 99.4624 23.156 99.5484 23.1571H101.744C101.831 23.1588 101.913 23.1935 101.974 23.2541C102.036 23.3145 102.071 23.3963 102.074 23.4825V25.8814C102.072 25.9677 102.036 26.0498 101.974 26.1106C101.913 26.1713 101.831 26.2062 101.744 26.2079H99.5241ZM113.473 32.7814C113.824 32.4098 114.097 31.9712 114.274 31.4916C114.452 31.012 114.53 30.5016 114.505 29.9909C114.525 29.4808 114.444 28.9718 114.267 28.493C114.09 28.0143 113.82 27.5751 113.473 27.2005C112.729 26.5197 111.758 26.142 110.749 26.142C109.741 26.142 108.769 26.5197 108.026 27.2005C107.674 27.5721 107.402 28.0108 107.224 28.4903C107.047 28.9698 106.968 29.4803 106.993 29.9909C106.974 30.5011 107.055 31.0101 107.232 31.4888C107.409 31.9676 107.679 32.4068 108.026 32.7814C108.382 33.1363 108.808 33.4136 109.277 33.5958C109.746 33.778 110.247 33.8613 110.75 33.8402C111.253 33.8682 111.757 33.7883 112.227 33.6057C112.697 33.4231 113.122 33.142 113.474 32.7814H113.473ZM106.443 36.4365C105.411 35.8517 104.572 34.9795 104.027 33.9262C103.449 32.6949 103.149 31.351 103.149 29.9904C103.149 28.6298 103.449 27.286 104.027 26.0545C104.579 25.0063 105.416 24.1362 106.443 23.5454C107.474 22.9649 108.641 22.6666 109.824 22.6806C110.792 22.6569 111.751 22.8729 112.615 23.3093C113.379 23.7138 114.017 24.3199 114.46 25.0619H114.526V23.4582C114.529 23.3725 114.565 23.2913 114.626 23.2312C114.687 23.1711 114.769 23.1367 114.855 23.1351H117.865C117.951 23.1365 118.033 23.1707 118.094 23.2309C118.156 23.291 118.192 23.3724 118.195 23.4582V36.5193C118.192 36.6058 118.156 36.688 118.095 36.7489C118.033 36.8097 117.95 36.8444 117.864 36.8457H114.857C114.771 36.8441 114.688 36.8092 114.627 36.7484C114.566 36.6877 114.53 36.6056 114.527 36.5193V34.92H114.461C114.018 35.6627 113.379 36.2693 112.615 36.6737C111.75 37.1084 110.792 37.324 109.824 37.3012C108.641 37.3154 107.474 37.0171 106.443 36.4365ZM130.739 32.7814C131.089 32.4098 131.362 31.9711 131.539 31.4915C131.717 31.012 131.795 30.5016 131.771 29.9909C131.791 29.4808 131.709 28.9718 131.533 28.493C131.355 28.0143 131.085 27.5751 130.739 27.2005C129.995 26.5193 129.022 26.1415 128.014 26.1415C127.006 26.1415 126.033 26.5193 125.29 27.2005C124.939 27.5723 124.667 28.0111 124.489 28.4905C124.313 28.9701 124.233 29.4804 124.259 29.9909C124.239 30.5011 124.321 31.0101 124.497 31.4888C124.675 31.9676 124.944 32.4068 125.291 32.7814C125.647 33.1363 126.073 33.4136 126.543 33.5958C127.012 33.778 127.512 33.8613 128.015 33.8402C128.518 33.8681 129.022 33.788 129.492 33.6055C129.962 33.4229 130.387 33.1419 130.74 32.7814H130.739ZM126.17 36.6726C125.406 36.268 124.767 35.6614 124.324 34.9189H124.258V36.5204C124.254 36.6064 124.219 36.688 124.158 36.7486C124.097 36.809 124.015 36.8438 123.929 36.8457H120.875C120.789 36.8438 120.707 36.809 120.646 36.7486C120.585 36.688 120.548 36.6064 120.546 36.5204V16.4093C120.548 16.3235 120.585 16.242 120.646 16.1816C120.707 16.1213 120.789 16.0867 120.875 16.0851H123.929C124.015 16.0864 124.097 16.1207 124.158 16.1809C124.22 16.241 124.255 16.3224 124.259 16.4082V25.0818H124.325C124.768 24.3401 125.407 23.7337 126.17 23.3281C127.035 22.8935 127.992 22.678 128.959 22.7005C130.143 22.6863 131.31 22.9857 132.341 23.5685C133.372 24.1522 134.212 25.0233 134.757 26.0755C135.374 27.293 135.676 28.6461 135.637 30.0108C135.664 31.3746 135.363 32.7248 134.758 33.9472C134.206 34.9961 133.368 35.8663 132.342 36.4564C131.31 37.037 130.143 37.3353 128.959 37.3211C127.991 37.329 127.034 37.106 126.169 36.6704L126.17 36.6726ZM140.778 36.8479H137.726C137.64 36.8466 137.557 36.8119 137.495 36.751C137.433 36.6901 137.398 36.6079 137.396 36.5215V16.4105C137.399 16.3242 137.434 16.2424 137.496 16.182C137.558 16.1216 137.641 16.0873 137.727 16.0862H140.779C140.865 16.0881 140.946 16.1226 141.007 16.1826C141.068 16.2427 141.104 16.3238 141.107 16.4093V36.5204C141.108 36.5838 141.091 36.646 141.057 36.6993C141.022 36.7525 140.973 36.7943 140.914 36.8193C140.871 36.8379 140.825 36.8469 140.779 36.8457V36.8479H140.778ZM147.961 26.3159C147.429 26.7402 147.064 27.3375 146.929 28.0034C146.919 28.0515 146.921 28.1012 146.933 28.1486C146.945 28.196 146.968 28.2401 147 28.2775C147.031 28.3149 147.071 28.3447 147.116 28.3647C147.16 28.3846 147.21 28.3942 147.258 28.3928H153.058C153.104 28.393 153.15 28.3832 153.193 28.3642C153.236 28.3452 153.274 28.3175 153.305 28.2826C153.337 28.2479 153.36 28.2068 153.374 28.1624C153.389 28.1178 153.393 28.0708 153.387 28.0244C153.299 27.378 152.978 26.7858 152.485 26.359C151.85 25.8538 151.056 25.5924 150.245 25.6222C149.429 25.6001 148.627 25.8428 147.961 26.3148L147.96 26.3159H147.961ZM155.386 24.6295C156.572 25.9034 157.165 27.7045 157.164 30.034V30.4255C157.161 30.5114 157.125 30.5928 157.064 30.6529C157.002 30.713 156.92 30.7473 156.834 30.7487H147.149C147.101 30.7497 147.053 30.7608 147.01 30.7814C146.966 30.802 146.928 30.8317 146.897 30.8683C146.865 30.9051 146.841 30.948 146.828 30.9943C146.815 31.0406 146.812 31.0891 146.818 31.1369C146.944 31.9469 147.358 32.6843 147.984 33.2137C148.753 33.8152 149.711 34.1216 150.686 34.0773C152.142 34.057 153.535 33.4763 154.574 32.456C154.608 32.4247 154.649 32.4013 154.693 32.3875C154.739 32.3737 154.785 32.3699 154.831 32.3762C154.878 32.3825 154.922 32.3988 154.96 32.424C155 32.4493 155.033 32.4828 155.057 32.5222L156.529 34.6189C156.571 34.6858 156.589 34.7647 156.58 34.8432C156.573 34.9216 156.539 34.9953 156.484 35.0523C155.754 35.6748 154.95 36.2052 154.091 36.6318C153.02 37.1092 151.858 37.3454 150.685 37.3233C149.312 37.3545 147.952 37.0417 146.731 36.4134C145.63 35.8351 144.722 34.9487 144.117 33.8623C143.478 32.6973 143.152 31.3859 143.173 30.0571C143.149 28.7261 143.459 27.4103 144.074 26.2299C144.651 25.1472 145.528 24.2539 146.6 23.6579C147.765 23.0227 149.074 22.7018 150.401 22.727C152.553 22.7016 154.2 23.3512 155.386 24.6284V24.6295ZM80.4785 18.3163C80.4848 18.7595 80.3596 19.1945 80.1186 19.5665C79.8776 19.9385 79.5319 20.2307 79.1249 20.4061C78.7179 20.5816 78.268 20.6325 77.8321 20.5523C77.3962 20.4721 76.9939 20.2645 76.676 19.9557C76.3581 19.6469 76.1389 19.2507 76.0461 18.8174C75.9533 18.384 75.9911 17.9328 76.1546 17.5209C76.3182 17.109 76.6002 16.7549 76.9651 16.5032C77.3299 16.2516 77.7612 16.1137 78.2042 16.1071H78.2153C78.8066 16.1044 79.3751 16.3341 79.7985 16.7468C80.2218 17.1594 80.4662 17.7219 80.4785 18.313V18.3152V18.3163Z" fill="#161616"/>
<path d="M25.4584 11.9002L11.6012 17.634C10.8308 17.9531 10.8386 19.0477 11.6143 19.355L25.5292 24.8731C26.7519 25.358 28.1134 25.358 29.336 24.8731L43.2512 19.355C44.0265 19.0477 44.0346 17.9531 43.2639 17.6342L29.407 11.9002C28.1428 11.377 26.7226 11.377 25.4584 11.9002Z" fill="#F99B0F"/>
<path d="M28.6672 27.8862V41.6714C28.6672 42.3268 29.3283 42.776 29.9378 42.5344L45.4434 36.5158C45.6164 36.4473 45.7647 36.3284 45.8691 36.1745C45.9737 36.0206 46.0295 35.8389 46.0295 35.6529V21.8679C46.0295 21.2122 45.3684 20.7633 44.7589 21.0049L29.2533 27.0234C29.0804 27.092 28.9322 27.2109 28.8276 27.3648C28.7232 27.5187 28.6672 27.7004 28.6672 27.8864" fill="#2CA0F4"/>
<path d="M25.0465 28.5973L20.4448 30.8192L19.9776 31.0451L10.2636 35.6995C9.64808 35.9965 8.86194 35.5478 8.86194 34.8638V21.9254C8.86194 21.678 8.98883 21.4643 9.159 21.3036C9.22881 21.2341 9.30801 21.1747 9.39429 21.1271C9.62623 20.9878 9.95732 20.9507 10.2388 21.062L24.9692 26.8986C25.718 27.1956 25.7768 28.2448 25.0465 28.5975" fill="#EE3333"/>
<path d="M25.0464 28.5973L20.4447 30.8192L9.15894 21.3034C9.22876 21.2339 9.30796 21.1746 9.39424 21.1271C9.62616 20.9878 9.95727 20.9507 10.2388 21.062L24.9692 26.8986C25.7179 27.1956 25.7766 28.2448 25.0464 28.5975" fill="#161616" fill-opacity="0.25"/>
</g>
<g clip-path="url(#clip1_642_1911)">
<path d="M236.535 29.1173C236.111 29.5413 235.58 29.7533 234.944 29.7533H232.771H229.643C229.166 29.7533 228.795 29.5944 228.477 29.2762C228.212 28.9582 228 28.5871 228 28.1101V19.9996V11.8361C228 11.359 228.212 10.9879 228.477 10.6698C228.795 10.4048 229.219 10.1927 229.643 10.1927H234.52H239.397C239.874 10.1927 240.245 10.4048 240.563 10.6698C240.881 10.9879 241.04 11.359 241.04 11.8361V18.1972V23.6572C241.04 24.2403 240.828 24.8234 240.404 25.1945L238.496 27.1028L236.535 29.1173Z" fill="#3B2FC9"/>
<path d="M243.586 18.7273C243.162 18.3032 242.95 17.7731 242.95 17.19V14.9636V11.8361C242.95 11.359 243.162 10.9879 243.427 10.6698C243.745 10.4048 244.169 10.1927 244.593 10.1927H252.704H260.867C261.344 10.1927 261.715 10.4048 262.033 10.6698C262.351 10.9879 262.511 11.359 262.511 11.8361V16.7129V21.5898C262.511 22.0669 262.298 22.438 262.033 22.7561C261.715 23.0741 261.344 23.2332 260.867 23.2332H254.506H248.993C248.41 23.2332 247.827 23.0211 247.403 22.597L245.494 20.6887L243.586 18.7273Z" fill="#3B2FC9"/>
<path d="M254.027 25.8836C254.451 25.4596 254.981 25.2476 255.618 25.2476H257.791H260.866C261.343 25.2476 261.714 25.4596 262.032 25.7247C262.35 26.0427 262.509 26.4138 262.509 26.8908V35.0013V43.1118C262.509 43.5889 262.297 43.9601 262.032 44.2781C261.714 44.5961 261.343 44.7552 260.866 44.7552H255.989H251.112C250.635 44.7552 250.264 44.543 249.945 44.2781C249.627 43.9601 249.469 43.5889 249.469 43.1118V36.7507V31.2907C249.469 30.7076 249.681 30.1244 250.105 29.7533L252.013 27.845L254.027 25.8836Z" fill="#3B2FC9"/>
<path d="M246.925 36.2737C247.349 36.6978 247.561 37.2278 247.561 37.864V40.0374V43.1649C247.561 43.6421 247.349 44.0132 247.083 44.3312C246.765 44.6492 246.394 44.8083 245.917 44.8083H237.807H229.643C229.166 44.8083 228.795 44.5963 228.477 44.3312C228.212 44.0132 228 43.5891 228 43.1649V38.2881V33.4112C228 32.9341 228.212 32.563 228.477 32.2449C228.795 31.9269 229.166 31.7678 229.643 31.7678H236.004H241.464C242.048 31.7678 242.631 31.98 243.002 32.404L244.91 34.3123L246.925 36.2737Z" fill="#3B2FC9"/>
<path d="M317.271 36.2736C317.059 36.4325 316.847 36.5916 316.688 36.6976C316.529 36.8036 316.423 36.8567 316.317 36.9096C316.211 36.9627 316.105 37.0156 316.052 37.0156C315.946 37.0156 315.893 37.0156 315.734 37.0156C315.31 37.0156 314.991 36.8036 314.832 36.4325C314.673 36.0085 314.567 35.2664 314.567 34.1531V29.0112C314.567 28.1099 314.514 27.3679 314.408 26.8908C314.302 26.4137 314.143 25.9367 313.878 25.5125C313.03 24.1873 311.387 23.4982 309.001 23.4982C307.252 23.4982 305.821 23.8162 304.761 24.3993C303.7 24.9824 303.223 25.8305 303.223 26.8908C303.223 27.421 303.382 27.8979 303.7 28.2161C304.018 28.5341 304.443 28.7461 304.92 28.7461C305.45 28.7461 305.927 28.5871 306.245 28.269C306.563 27.951 306.775 27.527 306.775 27.0499C306.775 26.6257 306.616 26.2547 306.351 25.9896C306.139 25.7776 306.033 25.6716 306.033 25.6716C305.98 25.6185 305.98 25.6185 305.98 25.5656C305.98 25.4596 306.033 25.3536 306.192 25.1945C306.351 25.0885 306.51 24.9824 306.722 24.8764C306.934 24.7704 307.199 24.7174 307.464 24.6644C307.729 24.6114 308.047 24.6114 308.312 24.6114C309.743 24.6114 310.698 25.0354 311.175 25.8836C311.281 26.0956 311.387 26.2547 311.44 26.4667C311.493 26.6258 311.546 26.8908 311.599 27.1559C311.652 27.421 311.652 27.739 311.705 28.1099C311.705 28.5341 311.758 29.0112 311.758 29.5413L308.842 30.0713L307.676 30.2834C307.093 30.3894 306.563 30.4955 306.192 30.6015C305.768 30.7075 305.397 30.8136 305.079 30.9196C304.761 31.0256 304.496 31.1845 304.23 31.3436C303.965 31.5027 303.753 31.6616 303.541 31.8207C302.799 32.5099 302.428 33.4639 302.428 34.6833C302.428 36.0085 302.799 37.0687 303.594 37.8108C304.336 38.553 305.397 38.977 306.722 38.977C307.676 38.977 308.577 38.765 309.372 38.341C310.168 37.9168 310.963 37.2276 311.811 36.2736C311.917 36.6976 312.023 37.0687 312.076 37.2807C312.182 37.4927 312.288 37.7048 312.447 37.9168C312.659 38.2349 312.924 38.447 313.242 38.6059C313.56 38.765 313.878 38.871 314.249 38.871C314.832 38.871 315.363 38.7119 315.893 38.447C316.423 38.1819 317.059 37.6518 317.748 37.0156L317.271 36.2736ZM311.811 30.3364V32.7748C311.811 33.835 311.652 34.6833 311.334 35.2133C311.016 35.7434 310.592 36.1675 310.009 36.4856C309.425 36.8036 308.789 36.9627 308.153 36.9627C307.305 36.9627 306.616 36.6976 306.139 36.1675C305.609 35.6373 305.397 34.9482 305.397 34.1001C305.397 32.7219 306.033 31.8207 307.252 31.3436C307.676 31.1845 308.259 31.0256 308.948 30.8665C309.637 30.7605 310.592 30.5485 311.811 30.3364Z" fill="#161616"/>
<path d="M328.082 36.4854C327.552 36.6975 327.075 36.8565 326.757 36.9095C326.439 37.0155 326.121 37.0155 325.856 37.0155C325.061 37.0155 324.478 36.8035 324.106 36.3264C323.735 35.8493 323.523 35.1602 323.523 34.259V25.4064H327.87V24.3992H323.523V18.5681H322.834L320.82 20.5825V24.3462H317.268V25.3533H320.82V35.2662C320.82 36.3793 321.085 37.2805 321.615 37.8107C322.145 38.3938 322.94 38.6588 323.947 38.6588C324.637 38.6588 325.326 38.5528 326.015 38.2878C326.704 38.0758 327.499 37.6516 328.4 37.1216L328.082 36.4854Z" fill="#161616"/>
<path d="M346.584 21.9608C347.114 21.9608 347.591 21.8018 347.963 21.4307C348.334 21.0596 348.492 20.6356 348.492 20.1055C348.492 19.5754 348.334 19.1513 347.963 18.7802C347.591 18.4092 347.167 18.2501 346.637 18.2501C346.16 18.2501 345.683 18.4092 345.312 18.7802C344.941 19.1513 344.782 19.5754 344.782 20.0524C344.782 20.5825 344.941 21.0066 345.312 21.3777C345.63 21.7488 346.107 21.9608 346.584 21.9608Z" fill="#161616"/>
<path d="M376.429 34.8953C376.005 35.3724 375.581 35.7434 375.211 36.0615C374.84 36.3796 374.468 36.5916 374.097 36.8036C373.726 36.9627 373.354 37.1216 372.93 37.1747C372.506 37.2276 372.083 37.2807 371.553 37.2807C369.803 37.2807 368.478 36.6976 367.577 35.5313C367.206 35.0013 366.941 34.4182 366.782 33.729C366.623 33.0399 366.57 32.1387 366.57 30.9725H377.649C377.596 29.9124 377.489 29.0112 377.384 28.375C377.224 27.6859 377.012 27.1028 376.695 26.5197C376.164 25.5656 375.369 24.8234 374.309 24.2933C373.249 23.7632 372.083 23.4982 370.758 23.4982C369.644 23.4982 368.637 23.6572 367.736 24.0283C366.835 24.3993 366.093 24.8764 365.456 25.5125C364.82 26.1487 364.343 26.9438 364.025 27.8979C363.707 28.8522 363.495 29.9124 363.495 31.0256C363.495 32.1918 363.654 33.2519 364.025 34.2061C364.343 35.1604 364.873 35.9555 365.456 36.6447C366.093 37.3336 366.835 37.8108 367.736 38.1819C368.637 38.553 369.644 38.7119 370.758 38.7119C371.447 38.7119 372.03 38.659 372.613 38.553C373.196 38.447 373.726 38.2349 374.204 37.9699C374.733 37.7048 375.211 37.3867 375.688 36.9627C376.164 36.5385 376.695 36.0615 377.172 35.4784L376.429 34.8953ZM370.598 24.4523C371.924 24.4523 372.878 24.8764 373.461 25.7245C374.044 26.5727 374.416 27.951 374.574 29.9653H366.517C366.676 28.0039 367.047 26.5727 367.683 25.7245C368.319 24.8764 369.326 24.4523 370.598 24.4523Z" fill="#161616"/>
<path d="M298.187 37.1216C297.922 37.0156 297.71 36.8565 297.551 36.6445C297.392 36.4325 297.339 36.1144 297.286 35.7433C297.233 35.3722 297.233 34.8422 297.233 34.206V16.1827L291.773 17.508V18.5152C292.303 18.5152 292.78 18.5682 293.098 18.6742C293.469 18.7802 293.734 18.9392 293.893 19.1513C294.105 19.3633 294.211 19.6814 294.317 20.1055C294.37 20.5295 294.423 21.0596 294.423 21.6957V34.206C294.423 34.8422 294.423 35.3193 294.37 35.7433C294.317 36.1144 294.264 36.4325 294.105 36.6445C293.946 36.8565 293.734 37.0156 293.469 37.1216C293.204 37.2276 292.833 37.2806 292.356 37.3867L291.614 37.4396V38.3939H300.095V37.4396L299.353 37.3867C298.823 37.3336 298.452 37.2276 298.187 37.1216Z" fill="#161616"/>
<path d="M349.446 37.1215C349.181 37.0155 348.969 36.8564 348.81 36.6444C348.651 36.4323 348.598 36.1143 348.544 35.7432C348.491 35.3721 348.491 34.8421 348.491 34.2059V23.0739L343.031 24.3991V25.4063C343.562 25.4063 344.039 25.4593 344.357 25.5653C344.728 25.6713 344.993 25.8304 345.205 26.0424C345.417 26.2544 345.523 26.5724 345.629 26.9966C345.682 27.4207 345.735 27.9507 345.735 28.5869V34.2589C345.735 34.895 345.735 35.3721 345.682 35.7961C345.629 36.1672 345.576 36.4853 345.417 36.6973C345.258 36.9095 345.046 37.0684 344.781 37.1744C344.516 37.2804 344.145 37.3335 343.668 37.4395L342.925 37.4924V38.4467H351.407V37.4924L350.665 37.4395C350.082 37.3335 349.711 37.2275 349.446 37.1215Z" fill="#161616"/>
<path d="M359.996 37.1216C359.731 37.0156 359.519 36.8565 359.36 36.6445C359.201 36.4325 359.148 36.1144 359.095 35.7433C359.042 35.3722 359.042 34.8422 359.042 34.206V16.1827L353.635 17.561V18.5682C354.165 18.5682 354.642 18.6212 354.96 18.7272C355.331 18.8332 355.596 18.9923 355.808 19.2043C356.02 19.4163 356.126 19.7344 356.232 20.1585C356.285 20.5825 356.338 21.1126 356.338 21.7488V34.2591C356.338 34.8951 356.338 35.3722 356.285 35.7963C356.232 36.1674 356.179 36.4854 356.02 36.6976C355.861 36.9096 355.649 37.0685 355.384 37.1745C355.119 37.2806 354.748 37.3336 354.271 37.4396L353.529 37.4927V38.4468H362.01V37.4927L361.268 37.4396C360.685 37.3336 360.314 37.2276 359.996 37.1216Z" fill="#161616"/>
<path d="M340.7 17.5082C340.064 17.0841 339.269 16.8191 338.262 16.8191C336.777 16.8191 335.558 17.2962 334.657 18.2504C333.756 19.2045 333.332 20.5298 333.332 22.1731C333.332 22.3321 333.332 23.1803 333.332 23.4453C333.332 23.7634 333.385 24.0284 333.385 24.3465H330.522V25.3536H333.385V34.2063C333.385 34.8424 333.385 35.3195 333.332 35.7436C333.279 36.1147 333.226 36.4327 333.067 36.6447C332.908 36.8567 332.696 37.0158 332.431 37.1218C332.165 37.2278 331.794 37.2809 331.317 37.3869L330.575 37.4398V38.3941H339.269V37.4398L338.315 37.3869C337.837 37.2809 337.466 37.2278 337.201 37.1218C336.936 37.0158 336.724 36.8567 336.565 36.6447C336.406 36.4327 336.353 36.1147 336.3 35.7436C336.247 35.3724 336.247 34.8424 336.247 34.2063V25.4067H340.17V24.3995H336.247C336.194 24.2935 335.77 23.0212 335.558 21.643C335.452 20.7948 335.452 20.1057 335.611 19.5226C335.77 18.7805 336.141 18.3034 336.724 18.0383H336.777C336.777 18.0383 336.777 18.0383 336.83 18.0383C336.83 18.0383 336.83 18.0383 336.883 18.0383H336.936C337.201 17.9323 337.466 17.8793 337.731 17.8793C337.997 17.8793 338.262 17.9323 338.527 18.0383C338.739 18.1443 338.898 18.2504 338.898 18.3564C338.898 18.4094 338.845 18.5154 338.739 18.6214C338.421 18.9395 338.209 19.3636 338.209 19.8406C338.209 20.3177 338.368 20.6888 338.686 21.0069C339.004 21.3249 339.428 21.4309 339.905 21.4309C340.435 21.4309 340.912 21.2189 341.283 20.8478C341.654 20.4768 341.813 19.9467 341.813 19.3636C341.654 18.5154 341.336 17.9323 340.7 17.5082Z" fill="#161616"/>
<path d="M274.067 17.561V18.5682L275.18 18.6743C276.028 18.7803 276.611 18.9923 276.876 19.3104C276.982 19.4164 277.035 19.5224 277.088 19.6284C277.141 19.7344 277.194 19.8405 277.194 20.0525C277.194 20.2115 277.247 20.4236 277.247 20.6886C277.247 20.9537 277.247 21.3247 277.247 21.7488V34.2061C277.247 34.6303 277.247 35.0012 277.247 35.2663C277.247 35.5314 277.194 35.7434 277.194 35.9024C277.194 36.0615 277.141 36.2205 277.088 36.3266C277.035 36.4326 276.982 36.5386 276.876 36.5915C276.611 36.9626 276.028 37.1746 275.18 37.2277L274.067 37.3337V38.3409H283.979V37.3337L282.548 37.2277C281.7 37.1746 281.17 36.9626 280.852 36.5915C280.746 36.4855 280.693 36.4326 280.693 36.3266C280.64 36.2205 280.64 36.0615 280.587 35.9024C280.534 35.7434 280.534 35.5314 280.534 35.2663C280.534 35.0012 280.534 34.6832 280.534 34.2061V29.3823H283.237C283.555 29.3823 283.82 29.4352 284.032 29.4883C284.298 29.5412 284.562 29.6472 284.774 29.8063C284.987 29.9654 285.146 30.1774 285.305 30.4954C285.464 30.7605 285.623 31.1315 285.729 31.5557L285.994 32.4038H287.213V25.0354H285.994L285.782 25.8835C285.623 26.3606 285.464 26.7317 285.358 26.9968C285.199 27.3149 285.04 27.5269 284.828 27.686C284.616 27.8449 284.404 28.004 284.138 28.0569C283.979 28.11 283.82 28.11 283.555 28.1629H280.481V18.8863H283.873C284.881 18.8863 285.729 18.9393 286.365 19.0453C287.001 19.1513 287.531 19.3634 287.902 19.6814C288.273 19.9995 288.538 20.4236 288.644 20.9537C288.803 21.4838 288.856 22.2259 288.909 23.0741H290.128V17.561H274.067Z" fill="#161616"/>
</g>
<g clip-path="url(#clip2_642_1911)">
<path fill-rule="evenodd" clip-rule="evenodd" d="M454.54 24.9397C455.69 24.9397 456.349 24.3138 456.349 23.2206C456.349 22.1911 455.64 21.5005 454.585 21.5005H451.977V19.5688C451.977 18.1757 450.976 17.4473 449.988 17.4473C449 17.4462 448 18.1757 448 19.5688V32.8919C448 36.0937 449.277 37.5214 452.137 37.5214C453.688 37.5214 454.575 37.1232 455.233 36.7358C455.737 36.4552 455.917 35.8617 455.917 35.3998C455.917 34.543 455.345 33.5879 454.521 33.5879C454.348 33.5897 454.177 33.6326 454.024 33.7131C453.808 33.8124 453.511 33.9484 453.077 33.9484C452.565 33.9484 451.977 33.7671 451.977 32.3545V24.9408H454.541L454.54 24.9397Z" fill="#161616"/>
<path fill-rule="evenodd" clip-rule="evenodd" d="M463.736 24.4013C464.239 24.2178 464.74 24.125 465.223 24.125C466.877 24.125 468.034 25.1934 468.607 26.2585L461.198 28.9552C460.859 27.3538 461.325 25.2786 463.736 24.4013ZM471.694 31.7977C471.282 31.8045 470.884 31.9513 470.567 32.2142L470.511 32.2639C469.798 32.8939 468.97 33.3801 468.072 33.6959C467.413 33.9445 466.716 34.076 466.012 34.0844C464.294 34.0844 462.85 33.166 462.109 31.6164L471.25 28.2894C472.69 27.7649 472.883 26.7009 472.584 25.8786C471.468 22.8139 468.839 20.9092 465.723 20.9092C464.706 20.9092 463.65 21.1056 462.582 21.4941C460.238 22.3466 458.57 23.8854 457.754 25.9423C457.016 27.807 457.035 29.9998 457.804 32.1149C459.05 35.5401 461.702 37.5042 465.078 37.5042C465.747 37.5011 466.413 37.4299 467.067 37.2916C467.663 37.1698 468.248 37.0046 468.82 36.7973C470.349 36.2416 471.742 35.4376 472.847 34.4739L472.858 34.4653L472.867 34.4556C473.233 34.0401 473.379 33.5448 473.277 33.0613C473.126 32.3405 472.446 31.7977 471.694 31.7977Z" fill="#161616"/>
<path fill-rule="evenodd" clip-rule="evenodd" d="M487.034 29.2648C487.034 31.5957 485.71 33.9482 482.754 33.9482C480.22 33.9482 478.518 32.0846 478.518 29.309C478.518 26.4817 480.238 24.5824 482.798 24.5824C484.906 24.5824 487.034 26.0295 487.034 29.2659V29.2648ZM489.112 21.0083C487.933 21.0083 487.079 21.8446 487.079 22.9961V23.0597C485.908 21.7324 484.173 21.0083 482.127 21.0083C477.509 21.0083 474.407 24.3266 474.407 29.2648C474.407 34.204 477.455 37.5223 481.993 37.5223C484.216 37.5223 486.029 36.7141 487.168 35.2324V35.5346C487.168 37 488.172 37.5223 489.111 37.5223C490.283 37.5223 491.01 36.7605 491.01 35.5335V22.9961C491.01 21.7885 490.265 21.0083 489.111 21.0083" fill="#161616"/>
<path fill-rule="evenodd" clip-rule="evenodd" d="M511.963 21.0083C509.627 21.0083 507.821 22.0421 506.94 23.8626C505.973 21.9925 504.236 21.0083 501.888 21.0083C500.139 21.0083 498.576 21.7011 497.651 22.8504C497.623 21.7788 496.796 21.0083 495.663 21.0083C494.652 21.0083 493.63 21.6504 493.63 23.0856V35.5335C493.63 36.8165 494.337 37.5223 495.619 37.5223C496.892 37.5223 497.652 36.7788 497.652 35.5335V28.1004C497.652 25.6464 498.745 24.4022 500.902 24.4022C503.021 24.4022 503.885 25.5784 503.885 28.4597V35.4892C503.885 36.8004 504.591 37.5223 505.873 37.5223C507.165 37.5223 507.905 36.7809 507.905 35.4892V28.5471C507.905 25.7576 508.984 24.4011 511.202 24.4011C513.292 24.4011 514.183 25.6421 514.183 28.5471V35.4881C514.183 36.7993 514.889 37.5212 516.171 37.5212C517.464 37.5212 518.204 36.7799 518.204 35.4881V28.5471C518.204 23.5443 516.104 21.0072 511.963 21.0072" fill="#161616"/>
<path fill-rule="evenodd" clip-rule="evenodd" d="M542.471 21.0083C541.587 21.0083 540.848 21.645 540.494 22.7069L537.099 32.2993L533.746 22.7522C533.382 21.7054 532.923 21.0083 531.859 21.0083C530.722 21.0083 530.303 21.6223 529.927 22.7522L526.574 32.2993L523.18 22.7101C522.825 21.645 522.086 21.0083 521.202 21.0083C520.357 21.0083 519.482 21.7022 519.482 22.8623C519.482 23.2335 519.568 23.6036 519.766 24.0979L524.333 35.7418C524.77 36.8101 525.318 37.5223 526.575 37.5223C527.951 37.5223 528.474 36.5673 528.776 35.7353L531.856 27.3374L534.851 35.7299C535.247 36.9191 536.004 37.5213 537.098 37.5213C538.142 37.5213 538.912 36.9234 539.386 35.7385L543.904 24.0623C544.1 23.622 544.191 23.241 544.191 22.8623C544.191 21.8047 543.452 21.0083 542.471 21.0083Z" fill="#161616"/>
<path fill-rule="evenodd" clip-rule="evenodd" d="M552.696 34.3507C550.055 34.3507 548.415 32.4018 548.415 29.2647C548.415 26.2291 550.095 24.2683 552.696 24.2683C555.296 24.2683 556.977 26.2291 556.977 29.2647C556.977 32.3543 555.296 34.3507 552.696 34.3507ZM552.696 21.0525C550.087 21.0525 547.928 21.9093 546.449 23.5291C545.124 24.9816 544.394 27.018 544.394 29.2647C544.394 31.5147 545.123 33.5597 546.449 35.0219C547.929 36.6579 550.09 37.5223 552.697 37.5223C558.823 37.5223 560.997 33.0741 560.997 29.2647C560.997 25.477 558.823 21.0525 552.696 21.0525Z" fill="#161616"/>
<path fill-rule="evenodd" clip-rule="evenodd" d="M570.71 21.0084C569.948 21.0043 569.194 21.1656 568.5 21.4813C567.807 21.7969 567.19 22.2592 566.692 22.8364C566.651 22.3388 566.424 21.8747 566.058 21.5361C565.691 21.1975 565.21 21.0091 564.711 21.0084C563.596 21.0084 562.722 21.8825 562.722 22.9961V35.5336C562.722 36.8394 563.722 37.5224 564.711 37.5224C565.698 37.5224 566.699 36.8394 566.699 35.5336V29.5778C566.699 25.9821 567.684 24.4476 569.994 24.4476C570.362 24.4476 570.576 24.4961 570.782 24.5447C570.964 24.5868 571.136 24.6267 571.382 24.6267C572.331 24.6267 572.967 23.9177 572.967 22.8623C572.967 21.7357 572.081 21.0084 570.71 21.0084Z" fill="#161616"/>
<path fill-rule="evenodd" clip-rule="evenodd" d="M582.137 29.3068L586.479 24.7896C587.083 24.1852 587.654 23.6133 587.654 22.8169C587.654 21.7863 586.876 21.0083 585.845 21.0083C585.036 21.0083 584.463 21.6277 583.91 22.2277L578.654 27.6579V19.4349C578.654 18.9073 578.445 18.4013 578.072 18.0282C577.699 17.655 577.193 17.4452 576.665 17.4449C576.139 17.4455 575.633 17.6551 575.26 18.0277C574.887 18.4003 574.678 18.9056 574.677 19.4327V35.5335C574.677 36.6288 575.568 37.5201 576.665 37.5201C577.192 37.5196 577.698 37.3099 578.071 36.9373C578.443 36.5647 578.652 36.0594 578.653 35.5324V30.6514L583.913 36.1216C584.006 36.2144 584.096 36.3094 584.187 36.4032C584.715 36.9536 585.26 37.5223 586.068 37.5223C587.024 37.5223 587.832 36.7151 587.832 35.759C587.832 35.064 587.361 34.5342 586.878 34.0518L582.135 29.3079L582.137 29.3068Z" fill="#161616"/>
<path fill-rule="evenodd" clip-rule="evenodd" d="M593.628 30.5546C592.704 30.5558 591.818 30.9235 591.164 31.5774C590.51 32.2312 590.142 33.1176 590.141 34.0423C590.142 34.967 590.51 35.8535 591.164 36.5073C591.818 37.1611 592.704 37.5289 593.628 37.5301C594.553 37.5292 595.44 37.1616 596.094 36.5077C596.748 35.8538 597.116 34.9672 597.117 34.0423C597.116 33.1175 596.748 32.2309 596.094 31.5769C595.44 30.9231 594.553 30.5554 593.628 30.5546Z" fill="#FF1FA8"/>
</g>
<g clip-path="url(#clip3_642_1911)">
<path d="M730.385 17.4631L722.736 37.6141H726.646L728.272 32.9029H736.234L737.833 37.6141H741.772L734.409 17.4631H730.385ZM729.157 30.0494C730.927 25.1116 731.641 23.1129 732.296 21.0875C733.238 24.0266 734.209 26.7677 735.341 30.0494H729.157Z" fill="#161616"/>
<path d="M750.975 23.1224C750.114 23.1115 749.263 23.3041 748.491 23.6845C747.718 24.0649 747.047 24.6224 746.53 25.3115V17.4631H743.184V37.6142H746.38V35.7582C747.353 37.1573 748.664 37.8997 750.606 37.8997C754.116 37.8997 756.457 35.1586 756.457 30.5063C756.457 25.854 754.316 23.1224 750.975 23.1224ZM749.778 35.1148C747.665 35.1148 746.437 33.3749 746.437 30.3559C746.437 27.6452 747.865 25.932 749.892 25.932C751.796 25.932 752.974 27.6738 752.974 30.5272C752.974 33.5329 751.748 35.1015 749.778 35.1015V35.1148Z" fill="#161616"/>
<path d="M763.476 25.5456C764.848 25.5456 765.933 26.288 766.647 27.5463L769.135 25.8597C767.877 23.8591 765.791 23.0044 763.533 23.0044C760.017 23.0044 758.013 25.0621 758.013 27.2912C758.013 29.4632 759.412 30.75 761.612 31.4353L763.135 31.9207C765.279 32.6059 765.764 33.0057 765.764 33.9498C765.764 34.8064 764.964 35.4365 763.506 35.4365C761.934 35.4365 760.621 34.578 759.878 33.1199L757.278 34.8331C758.477 36.6339 760.449 38.0349 763.369 38.0349C766.914 38.0349 769.112 36.1199 769.112 33.4892C769.112 31.2049 767.685 30.0323 765.17 29.2309L763.647 28.7741C761.818 28.203 761.363 27.8033 761.363 26.9467C761.363 26.0901 762.041 25.5456 763.476 25.5456Z" fill="#161616"/>
<path d="M775.9 33.2113V26.0882H778.653V23.4099H775.9V18.7633H772.575L772.51 23.4099H770.287V26.0882H772.51V33.8737C772.51 35.191 772.712 36.1941 773.312 36.8813C773.911 37.5685 774.834 37.9111 776.23 37.9111C777.072 37.9087 777.911 37.8005 778.727 37.5894V34.9245C778.287 35.0872 777.822 35.1742 777.353 35.1814C776.317 35.191 775.9 34.677 775.9 33.2113Z" fill="#161616"/>
<path d="M783.741 25.5969V23.4097H780.543V37.6864H783.893V31.024C783.893 29.5011 784.145 28.496 784.638 27.7537C785.258 26.8628 786.145 26.3241 787.683 26.3412C788.099 26.3483 788.511 26.4124 788.909 26.5316V23.4097C788.513 23.2823 788.099 23.2181 787.683 23.2194C785.715 23.2251 784.602 24.0569 783.741 25.5969Z" fill="#161616"/>
<path d="M801.739 33.7822V28.6426C801.739 26.4117 801.44 25.241 800.553 24.411C799.602 23.4954 798.237 23.0386 796.293 23.0386C792.661 23.0386 790.369 24.7518 790.141 27.8431L793.348 28.1287C793.52 26.5563 794.291 25.6693 796.036 25.6693C796.923 25.6693 797.608 25.8596 798.008 26.2689C798.408 26.6782 798.553 27.1845 798.553 27.9821V28.7435C796.293 28.8882 793.548 29.2879 792.147 29.9161C790.461 30.6889 789.545 31.8901 789.545 33.7232C789.545 36.2683 791.374 37.8996 793.977 37.8996C796.006 37.8996 797.549 37.1858 798.636 35.8704C798.947 37.2924 799.948 37.8177 801.737 37.8177C802.254 37.828 802.769 37.7509 803.26 37.5893V35.4193C801.973 35.6515 801.749 34.8958 801.739 33.7822ZM798.553 31.6388C798.522 32.4383 798.381 33.2397 797.923 33.8983C797.294 34.8406 796.236 35.385 794.949 35.385C793.463 35.385 792.775 34.6122 792.775 33.5842C792.775 32.7828 793.118 32.2384 794.005 31.8387C795.006 31.3533 796.923 31.0658 798.553 30.9802V31.6388Z" fill="#161616"/>
<path d="M810.912 35.2232C808.714 35.2232 807.398 33.5671 807.398 30.4263C807.398 27.2569 808.885 25.8007 810.825 25.8007C812.167 25.8007 813.195 26.4288 813.596 28.3133L816.596 27.2854C815.938 24.7442 813.996 23.0024 810.909 23.0024C806.652 23.0024 803.966 25.8292 803.966 30.4834C803.966 35.1661 806.595 38.0215 810.737 38.0215C813.973 38.0215 815.852 36.3083 816.682 33.9383L813.682 32.9104C813.341 34.4237 812.428 35.2232 810.912 35.2232Z" fill="#161616"/>
<path d="M823.044 33.2113V26.0882H825.794V23.4099H823.044V18.7633H819.718L819.659 23.4099H817.434V26.0882H819.665V33.8737C819.665 35.191 819.867 36.1941 820.466 36.8813C821.066 37.5685 821.989 37.9111 823.385 37.9111C824.223 37.9075 825.057 37.7994 825.869 37.5894V34.9245C825.429 35.087 824.965 35.174 824.496 35.1814C823.464 35.191 823.044 34.677 823.044 33.2113Z" fill="#161616"/>
<path d="M695.125 8.46503C679.897 8.42506 676.08 12.2227 676.04 27.451C676 42.6795 679.796 46.4961 695.024 46.5361C710.253 46.576 714.071 42.7785 714.111 27.55C714.151 12.3216 710.353 8.50501 695.125 8.46503ZM691.952 37.9111C690.511 37.9111 689.102 37.4837 687.903 36.6831C686.705 35.8825 685.771 34.7443 685.22 33.4128C684.668 32.0814 684.524 30.6163 684.805 29.2027C685.086 27.7893 685.78 26.4908 686.799 25.4717C687.818 24.4527 689.117 23.7587 690.53 23.4775C691.944 23.1964 693.409 23.3406 694.74 23.8922C696.072 24.4437 697.21 25.3777 698.011 26.576C698.811 27.7743 699.239 29.1831 699.239 30.6243C699.236 32.5562 698.467 34.4081 697.101 35.7741C695.735 37.1401 693.884 37.9086 691.952 37.9111ZM705.187 37.6122H701.618V20.9581H684.962V17.3889H705.187V37.6122Z" fill="#161616"/>
<path d="M691.952 26.9066C691.217 26.9066 690.498 27.1246 689.886 27.5331C689.275 27.9416 688.798 28.5222 688.517 29.2016C688.236 29.8809 688.162 30.6285 688.306 31.3495C688.449 32.0706 688.803 32.733 689.323 33.2531C689.843 33.7729 690.505 34.127 691.226 34.2705C691.948 34.4139 692.695 34.3402 693.374 34.0589C694.054 33.7775 694.634 33.301 695.043 32.6896C695.451 32.0782 695.669 31.3596 695.669 30.6243C695.668 29.6386 695.276 28.6935 694.579 27.9966C693.882 27.2996 692.937 26.9076 691.952 26.9066Z" fill="#161616"/>
</g>
<g clip-path="url(#clip4_642_1911)">
<path d="M938.855 19.6534V36.3891H950.396V33.0513H942.757V19.6534H938.855Z" fill="#161616"/>
<path d="M952.72 22.1215C953.096 22.4975 953.613 22.6856 954.224 22.6856C954.835 22.6856 955.329 22.4975 955.728 22.1215C956.104 21.7454 956.316 21.2518 956.316 20.6406C956.316 20.053 956.104 19.5594 955.728 19.1833C955.329 18.8072 954.835 18.5957 954.224 18.5957C953.613 18.5957 953.096 18.8072 952.72 19.1833C952.32 19.5594 952.132 20.053 952.132 20.6406C952.132 21.2518 952.32 21.7454 952.72 22.1215ZM952.485 24.3544V36.389H955.963V24.3544H952.485Z" fill="#161616"/>
<path d="M957.55 24.3544L961.734 36.389H966.764L970.948 24.3544H967.304L964.366 33.5448H964.131L961.217 24.3544H957.55Z" fill="#161616"/>
<path d="M974.672 35.9658C975.683 36.5064 976.834 36.7649 978.127 36.7649C979.584 36.7649 980.854 36.4594 981.935 35.8483C983.016 35.2371 983.745 34.3675 984.121 33.2863L981.159 32.534C980.877 33.0512 980.501 33.4508 980.008 33.7329C979.49 34.0384 978.926 34.1795 978.268 34.1795C977.422 34.1795 976.693 33.9444 976.129 33.4274C975.565 32.9338 975.213 32.2521 975.072 31.3823H984.521C984.544 31.2179 984.568 30.8652 984.568 30.3246C984.568 29.0789 984.286 27.9741 983.745 27.0104C983.204 26.0702 982.452 25.3181 981.465 24.7774C980.478 24.2603 979.373 23.9783 978.104 23.9783C976.811 23.9783 975.659 24.2603 974.672 24.7774C973.661 25.2945 972.886 26.0467 972.322 26.9869C971.757 27.9506 971.475 29.0554 971.475 30.2776C971.475 31.5468 971.757 32.6751 972.322 33.6623C972.886 34.6495 973.661 35.4252 974.672 35.9658ZM981.018 29.2199H975.048C975.189 28.4207 975.518 27.7626 976.035 27.2925C976.552 26.8224 977.211 26.5638 978.01 26.5638C978.809 26.5638 979.467 26.8224 980.031 27.316C980.572 27.8096 980.901 28.4442 981.018 29.2199Z" fill="#161616"/>
<path d="M987.741 35.6367C988.752 36.436 990.162 36.812 991.948 36.812C993.711 36.812 995.098 36.4594 996.109 35.7307C997.119 35.0256 997.636 34.015 997.636 32.7221C997.636 31.8289 997.378 31.1473 996.908 30.6302C996.438 30.1131 995.85 29.7605 995.145 29.549C994.44 29.3374 993.641 29.1729 992.724 29.0554C991.878 28.9613 991.267 28.8908 990.914 28.8203C990.562 28.7733 990.256 28.6558 989.974 28.4677C989.692 28.2797 989.574 28.0211 989.574 27.6686C989.574 27.2455 989.762 26.8929 990.162 26.6344C990.538 26.3758 991.055 26.2348 991.713 26.2348C992.418 26.2348 992.983 26.3993 993.406 26.7284C993.829 27.0574 994.064 27.4805 994.087 27.9976H997.26C997.26 27.1985 997.025 26.4698 996.555 25.8587C996.085 25.2475 995.427 24.7539 994.581 24.4249C993.735 24.0958 992.771 23.9313 991.713 23.9313C990.091 23.9313 988.799 24.3073 987.811 25.036C986.824 25.7647 986.354 26.7284 986.354 27.9506C986.354 28.9143 986.613 29.643 987.13 30.1601C987.647 30.6772 988.234 31.0298 988.94 31.2179C989.645 31.4059 990.491 31.5468 991.525 31.6409C992.442 31.7349 993.124 31.8759 993.57 32.0404C993.993 32.2051 994.228 32.534 994.228 33.0278C994.228 33.4978 994.017 33.8503 993.617 34.1089C993.218 34.391 992.7 34.5086 992.042 34.5086C991.196 34.5086 990.515 34.3205 990.021 33.921C989.527 33.5448 989.292 33.0278 989.292 32.3695H986.213C986.213 33.7563 986.707 34.8376 987.741 35.6367Z" fill="#161616"/>
<path d="M1001.83 35.5899C1002.54 36.3891 1003.5 36.765 1004.73 36.765C1005.08 36.765 1005.48 36.7416 1005.92 36.6712C1006.35 36.6005 1006.75 36.5065 1007.08 36.389V33.8975C1006.61 34.0151 1006.18 34.0621 1005.83 34.0621C1005.34 34.0621 1004.94 33.921 1004.66 33.6153C1004.37 33.3098 1004.23 32.8868 1004.23 32.3696V26.893H1006.98V24.3544H1004.23L1004.26 20.5466H1001.53L1000.85 24.3544H999.061V26.893H1000.75V32.5107C1000.75 33.78 1001.11 34.8142 1001.83 35.5899Z" fill="#161616"/>
<path d="M1011.56 35.9894C1012.55 36.5064 1013.72 36.7649 1015.06 36.7649C1016.38 36.7649 1017.53 36.5064 1018.54 35.9894C1019.55 35.4722 1020.33 34.7201 1020.89 33.7563C1021.45 32.7927 1021.74 31.6644 1021.74 30.3716C1021.74 29.1024 1021.45 27.9741 1020.89 27.0104C1020.33 26.0467 1019.55 25.2945 1018.54 24.7774C1017.53 24.2603 1016.38 23.9783 1015.06 23.9783C1013.72 23.9783 1012.55 24.2603 1011.56 24.7774C1010.55 25.2945 1009.77 26.0467 1009.21 27.0104C1008.64 27.9741 1008.39 29.1024 1008.39 30.3716C1008.39 31.6644 1008.64 32.7927 1009.21 33.7563C1009.77 34.7201 1010.55 35.4722 1011.56 35.9894ZM1017.34 32.8397C1016.73 33.4978 1015.98 33.8033 1015.06 33.8033C1014.12 33.8033 1013.34 33.4978 1012.76 32.8397C1012.15 32.2051 1011.86 31.3823 1011.86 30.3716C1011.86 29.3844 1012.15 28.5618 1012.76 27.9271C1013.34 27.2925 1014.12 26.9634 1015.06 26.9634C1015.98 26.9634 1016.73 27.2925 1017.34 27.9271C1017.93 28.5618 1018.23 29.3844 1018.23 30.3716C1018.23 31.3823 1017.93 32.2051 1017.34 32.8397Z" fill="#161616"/>
<path d="M1023.85 24.3544V36.389H1027.33V30.2307C1027.33 29.314 1027.56 28.5618 1028.03 27.9742C1028.5 27.4101 1029.11 27.1045 1029.89 27.1045C1030.15 27.1045 1030.45 27.1515 1030.83 27.222C1031.2 27.316 1031.53 27.4101 1031.86 27.5511V24.4249C1031.44 24.2369 1030.99 24.1194 1030.5 24.1194C1029.86 24.1194 1029.28 24.3074 1028.74 24.6365C1028.19 24.989 1027.8 25.4357 1027.54 25.9998H1027.28V24.3544H1023.85Z" fill="#161616"/>
<path d="M1033.69 24.3543V36.389H1037.17V29.5255C1037.17 28.7733 1037.36 28.1387 1037.78 27.6686C1038.18 27.1985 1038.72 26.9634 1039.43 26.9634C1040.09 26.9634 1040.6 27.1985 1041 27.6686C1041.38 28.1387 1041.59 28.7498 1041.59 29.5255V36.389H1045.09V29.5255C1045.09 28.7733 1045.3 28.1622 1045.73 27.6921C1046.15 27.222 1046.72 26.9634 1047.4 26.9634C1048.05 26.9869 1048.6 27.2455 1049.02 27.7156C1049.44 28.1857 1049.65 28.7968 1049.65 29.5255V36.389H1053.13V28.9378C1053.13 27.9976 1052.92 27.1279 1052.54 26.3758C1052.14 25.6236 1051.6 25.0595 1050.92 24.6364C1050.22 24.2133 1049.44 24.0018 1048.57 24.0018C1047.73 24.0018 1046.97 24.2133 1046.32 24.6129C1045.66 25.0125 1045.16 25.5531 1044.79 26.2583H1044.55C1044.22 25.5766 1043.73 25.036 1043.05 24.6129C1042.37 24.1898 1041.64 23.9783 1040.86 23.9783C1040.11 23.9783 1039.43 24.1898 1038.82 24.5659C1038.21 24.9655 1037.71 25.4826 1037.38 26.1407H1037.15V24.3543H1033.69Z" fill="#161616"/>
<path d="M929.215 27.4995C929.215 30.9819 929.332 35.0374 926.74 37.6383C924.148 40.2391 920.09 40.1068 916.608 40.1068C913.125 40.1068 909.07 40.2236 906.469 37.6316C903.868 35.0397 904 30.9819 904 27.4995C904 24.017 903.886 19.9615 906.478 17.3607C909.07 14.7599 913.127 14.8921 916.608 14.8921C920.088 14.8921 924.146 14.7775 926.746 17.3695C929.347 19.9615 929.215 24.0192 929.215 27.4995Z" fill="#161616"/>
<path d="M918.029 20.9092H909.964C909.251 20.9092 908.673 21.4874 908.673 22.2008C908.673 22.9141 909.251 23.4924 909.964 23.4924H918.029C918.742 23.4924 919.321 22.9141 919.321 22.2008C919.321 21.4874 918.742 20.9092 918.029 20.9092Z" fill="white"/>
<path d="M920.67 26.2078H912.605C911.892 26.2078 911.313 26.786 911.313 27.4994C911.313 28.2127 911.892 28.791 912.605 28.791H920.67C921.383 28.791 921.961 28.2127 921.961 27.4994C921.961 26.786 921.383 26.2078 920.67 26.2078Z" fill="white"/>
<path d="M918.029 31.5085H915.245C914.532 31.5085 913.954 32.0869 913.954 32.8001C913.954 33.5135 914.532 34.0917 915.245 34.0917H918.029C918.742 34.0917 919.321 33.5135 919.321 32.8001C919.321 32.0869 918.742 31.5085 918.029 31.5085Z" fill="white"/>
<path d="M924.544 22.2008C924.544 21.4874 923.966 20.9092 923.253 20.9092C922.539 20.9092 921.961 21.4874 921.961 22.2008C921.961 22.9141 922.539 23.4924 923.253 23.4924C923.966 23.4924 924.544 22.9141 924.544 22.2008Z" fill="white"/>
</g>
<g clip-path="url(#clip5_642_1911)">
<path d="M1159.63 33.1226C1158.6 33.0579 1157.61 32.7154 1156.72 32.1237C1155.84 31.5322 1155.09 30.7087 1154.55 29.7226C1155.21 23.7893 1157.12 21.9449 1159.65 21.9449C1162.18 21.9449 1164.1 24.1671 1164.1 27.5004C1164.1 30.8337 1162.14 33.0559 1159.65 33.0559L1159.63 33.1226ZM1159.65 18.2338C1157.86 18.1518 1156.11 18.7834 1154.69 20.0183C1153.28 21.2532 1152.29 23.0127 1151.9 24.9893C1151.06 22.9966 1150.43 20.9015 1150.01 18.7449H1143.76V27.5226C1143.76 30.7115 1142.49 33.0782 1139.99 33.0782C1137.49 33.0782 1136.07 30.7226 1136.07 27.5226V18.7449H1132.48V27.5226C1132.4 29.9551 1133.14 32.3312 1134.55 34.1671C1135.24 35.0165 1136.08 35.6891 1137.02 36.1395C1137.95 36.5898 1138.96 36.8076 1139.98 36.7782C1144.3 36.7782 1147.33 33.0115 1147.33 27.6226V21.6893C1148.07 24.8821 1149.28 27.9077 1150.92 30.6337L1149 43.0559H1152.65L1153.91 34.2559C1154.33 34.6645 1154.78 35.0359 1155.25 35.3671C1156.46 36.2392 1157.86 36.7299 1159.3 36.7893H1159.64C1160.71 36.8019 1161.77 36.5688 1162.76 36.1038C1163.75 35.6389 1164.65 34.9519 1165.4 34.0842C1166.15 33.2163 1166.73 32.1857 1167.12 31.0543C1167.51 29.9228 1167.69 28.7139 1167.66 27.5004C1167.68 26.2914 1167.49 25.0891 1167.1 23.9647C1166.71 22.8404 1166.12 21.8172 1165.37 20.9559C1164.62 20.0945 1163.72 19.4126 1162.74 18.9507C1161.75 18.4888 1160.69 18.2563 1159.63 18.2671" fill="#4EA52F"/>
<path d="M1211.22 20.6782V18.8115H1207.69V36.1783H1211.26V29.3783C1211.26 25.1894 1211.6 22.1782 1216.56 22.5671V18.6115C1214.25 18.4115 1212.44 18.956 1211.22 20.6893" fill="#4EA52F"/>
<path d="M1186.42 18.8004L1183.83 30.9559L1181.07 18.8004H1176.52L1173.75 30.9559L1171.17 18.8004H1167.55L1171.52 36.1893H1175.81L1178.79 23.8448L1181.75 36.1893H1186.04L1190.24 18.8004H1186.42Z" fill="#4EA52F"/>
<path d="M1198.1 33.1338C1195.56 33.1338 1193.66 30.8561 1193.66 27.5783C1193.66 24.3005 1195.62 22.0227 1198.1 22.0227C1200.58 22.0227 1202.59 24.1672 1202.59 27.5005C1202.59 30.8338 1200.63 33.0561 1198.14 33.0561L1198.1 33.1338ZM1198.14 18.2227C1197.06 18.2056 1196 18.4351 1195.01 18.8973C1194.01 19.3595 1193.12 20.0448 1192.36 20.9119C1191.61 21.7789 1191.02 22.8098 1190.63 23.9422C1190.24 25.0746 1190.06 26.2851 1190.09 27.5005C1190.05 28.7201 1190.23 29.9357 1190.62 31.0749C1191 32.2143 1191.59 33.2538 1192.33 34.1317C1193.08 35.0095 1193.98 35.7077 1194.97 36.1845C1195.96 36.6614 1197.03 36.9071 1198.1 36.9071C1199.18 36.9071 1200.25 36.6614 1201.24 36.1845C1202.23 35.7077 1203.12 35.0095 1203.87 34.1317C1204.62 33.2538 1205.2 32.2143 1205.59 31.0749C1205.98 29.9357 1206.16 28.7201 1206.12 27.5005C1206.14 26.2919 1205.96 25.0898 1205.56 23.9656C1205.17 22.8413 1204.58 21.818 1203.84 20.9565C1203.09 20.095 1202.19 19.4129 1201.21 18.9509C1200.22 18.4889 1199.16 18.2563 1198.1 18.2671" fill="#4EA52F"/>
<path d="M1221.68 27.6449H1222.5L1227.49 36.1894H1231.52L1225.78 26.7116C1227.16 26.0669 1228.34 24.9713 1229.17 23.5643C1230 22.1572 1230.44 20.5026 1230.43 18.8116H1226.87C1226.87 22.5561 1224.26 23.9783 1221.68 23.9783V11.9449H1218.1V36.1894H1221.67L1221.68 27.6449Z" fill="#4EA52F"/>
</g>
<defs>
<clipPath id="clip0_642_1911">
<rect width="150" height="31.9853" fill="white" transform="translate(8 11.5078)"/>
</clipPath>
<clipPath id="clip1_642_1911">
<rect width="150" height="34.6154" fill="white" transform="translate(228 10.1927)"/>
</clipPath>
<clipPath id="clip2_642_1911">
<rect width="150" height="20.5036" fill="white" transform="translate(448 17.2487)"/>
</clipPath>
<clipPath id="clip3_642_1911">
<rect width="150" height="38.4518" fill="white" transform="translate(676 8.27466)"/>
</clipPath>
<clipPath id="clip4_642_1911">
<rect width="150" height="25.2169" fill="white" transform="translate(904 14.892)"/>
</clipPath>
<clipPath id="clip5_642_1911">
<rect width="100" height="31.1111" fill="white" transform="translate(1132 11.9449)"/>
</clipPath>
</defs>
</svg>
