<svg width="32" height="32" viewBox="0 0 32 32" fill="none" xmlns="http://www.w3.org/2000/svg">
<path fill-rule="evenodd" clip-rule="evenodd" d="M28.1927 22.521C27.9682 22.5021 27.8618 22.4933 27.7162 22.4808L27.6056 22.3491C27.3062 22.3095 27.0166 22.2746 26.7284 22.2321C26.4851 22.1963 26.2442 22.1376 26.0002 22.115C25.7283 22.09 25.4617 22.0336 25.1852 22.0209C24.9357 22.0097 24.6651 22.0698 24.4302 21.9675C24.1573 21.8481 23.8823 21.9728 23.6102 21.908C23.3589 21.848 23.0966 21.8351 22.8397 21.8017C22.8392 21.8075 22.836 21.8465 22.8316 21.895C22.0535 21.8959 21.2716 21.8774 20.4719 22.1167C20.4531 22.1061 20.3894 22.0708 20.3112 22.0272C20.3003 22.0815 20.2903 22.131 20.2801 22.1821C19.8405 22.2771 19.3987 22.4014 18.9581 22.4828C18.4155 22.5828 17.9029 22.8085 17.3389 22.8267C17.0557 22.8359 16.7581 22.9387 16.5038 23.0702C16.3482 23.1509 16.3029 23.0443 16.1967 23.0166C16.1757 23.0798 16.1545 23.143 16.1264 23.2278C15.7779 23.3031 15.4191 23.3807 15.0496 23.4606C15.0534 23.3672 15.0559 23.3107 15.0596 23.2214C14.8876 23.176 14.7413 22.9935 14.4221 23.1825C14.5192 23.0191 14.5792 22.918 14.6532 22.7935C14.4226 22.7823 14.332 22.7778 14.2179 22.7721C14.1929 22.8461 14.1697 22.9154 14.1441 22.9917C14.0402 23.0108 13.9211 23.033 13.8062 23.0543C13.7809 23.0123 13.7378 22.97 13.746 22.9494C13.8094 22.7979 13.883 22.6505 13.9528 22.5029C13.812 22.255 13.6179 22.4511 13.4507 22.4366C13.4541 22.3971 13.4577 22.3578 13.4623 22.3032C13.3906 22.2724 13.3142 22.2395 13.2338 22.2049C13.2794 22.0365 13.3223 21.8778 13.3833 21.6525C13.7351 21.3091 14.1724 20.9458 14.5233 20.5125C14.7047 20.2888 14.9735 20.1219 15.0827 19.8838C15.2185 19.5881 15.5295 19.5009 15.6605 19.2577C15.8053 18.9897 16.0795 18.856 16.2246 18.6248C16.3839 18.3709 16.6487 18.2267 16.7944 17.9962C17.141 17.4473 17.6732 17.0379 17.9389 16.4339C18.1868 16.3194 18.2408 15.9742 18.5442 15.926C18.6425 15.6187 18.8535 15.385 19.0488 15.1394C19.3247 14.7928 19.4823 14.3623 19.8306 14.0627C19.929 13.9779 19.9621 13.8173 20.0645 13.6126C19.5358 13.8465 19.082 14.047 18.527 14.2924C18.4753 14.2822 18.3036 14.2479 18.1305 14.2131C18.0303 14.3624 17.9599 14.4674 17.8846 14.5793C17.3437 14.7645 16.8369 15.1664 16.1935 15.1277C16.1975 15.413 15.8917 15.4493 15.7835 15.6197C15.0927 15.7789 14.5532 16.1871 13.8866 16.5108C13.8754 16.5092 13.778 16.4962 13.6854 16.4838C13.4269 16.5734 13.3041 16.8482 12.9981 16.8889C12.776 16.9182 12.5397 17.0828 12.3769 17.252C12.1781 17.4585 11.9169 17.5773 11.688 17.6285C11.4037 17.6921 11.2808 17.9126 11.0337 18.0289C10.9671 18.0202 10.8695 18.0073 10.7344 17.9895C10.3197 18.4086 9.79097 18.7026 9.28948 19.0621C9.1965 19.0412 9.10369 19.0201 8.98381 18.9932L8.51863 19.3835C8.51968 19.2675 8.52036 19.2139 8.52165 19.1023C8.30774 19.32 8.07078 19.3079 7.80137 19.2386C7.79003 19.1761 7.77691 19.104 7.76561 19.0429C7.34065 19 6.90422 18.956 6.50599 18.9159C6.43936 18.7665 6.389 18.6531 6.3238 18.5068C6.34331 18.4635 6.38002 18.3823 6.41656 18.3011L6.32736 18.1948C6.26654 18.2186 6.1995 18.2448 6.0975 18.2848C5.85294 18.0335 5.8627 17.7228 5.90591 17.4087C6.08669 17.1961 6.08668 17.1961 6.00969 16.8128C5.95793 16.9497 5.93828 17.0017 5.90764 17.0824C5.86281 17.0503 5.81172 17.014 5.74108 16.9633C5.82989 16.8627 5.90294 16.7801 5.9933 16.6777C5.92 16.6626 5.87142 16.6524 5.83538 16.6449C5.80899 16.2769 5.78252 15.9082 5.753 15.4949L5.95498 15.3254C5.86536 15.3102 5.81297 15.3011 5.74188 15.2891C5.77971 15.2267 5.81552 15.168 5.8627 15.0904L5.70145 14.8983C5.71093 14.79 5.71795 14.7115 5.72486 14.6325C5.89248 14.6319 6.06607 14.5138 6.2284 14.6583C6.20369 14.3345 5.94376 14.4035 5.70268 14.3574C5.78596 14.2742 5.85084 14.2093 5.91907 14.1413C5.87537 13.8601 5.89089 13.5735 5.68325 13.3108C5.50987 13.0917 5.63366 12.8081 5.77343 12.5425C5.6996 12.5248 5.65491 12.5141 5.56579 12.4931C5.63358 12.409 5.69389 12.3346 5.77079 12.2397C5.74979 12.2208 5.71864 12.1927 5.62636 12.1091C5.61109 11.919 5.64012 11.6383 5.55712 11.3958C5.43888 11.0505 5.65089 10.724 5.52395 10.3724C5.41265 10.064 5.39832 9.71853 5.41218 9.36981C5.43112 8.89434 5.33697 8.41454 5.28793 7.90199L5.03904 8.11083C5.05504 8.17112 5.07797 8.25791 5.10907 8.37641C5.00623 8.39069 4.9162 8.40301 4.80867 8.41811C4.74991 8.58223 4.67009 8.75099 4.63188 8.92878C4.59973 9.07766 4.44453 9.22179 4.58589 9.38924C4.37605 9.4882 4.39048 9.69326 4.37245 9.87652C4.31662 9.87148 4.27746 9.86805 4.24686 9.86537C4.17875 10.5363 3.92435 11.1447 3.62368 11.7392C3.61001 11.9554 3.5962 12.1714 3.58241 12.3854L3.43201 12.5116C3.3519 12.8229 3.28227 13.0937 3.2032 13.4019C3.07345 13.3537 2.98132 13.3196 2.86246 13.2756C2.79465 13.4586 2.73102 13.6308 2.67205 13.7903C2.79998 13.884 2.91021 13.965 3.0196 14.045C2.90043 14.452 2.79114 14.8256 2.6513 15.3032C2.54384 15.0937 2.59606 14.9708 2.59352 14.8377C2.32223 14.878 2.44474 15.1057 2.39215 15.2417C2.32078 15.2469 2.24978 15.2515 2.09765 15.2617C2.14688 15.365 2.19284 15.4617 2.2388 15.5584C2.19683 15.5553 2.15486 15.5522 2.11303 15.5494C2.19586 15.5788 2.27868 15.6082 2.36986 15.6409C2.29967 15.8019 2.24164 15.9347 2.18424 16.0657C2.10869 16.0642 2.05129 16.063 1.98944 16.0616C1.98269 16.114 1.9752 16.1697 1.96583 16.2416C2.09254 16.3456 2.22698 16.4565 2.34981 16.5573C2.16518 17.0782 1.98926 17.5737 1.81347 18.0694C1.79069 18.0672 1.76788 18.0654 1.7454 18.0633C1.74124 18.0069 1.7369 17.9508 1.72642 17.8116C1.53264 18.0459 1.37282 18.2393 1.18713 18.464C0.989701 18.3331 0.80729 18.212 0.542575 18.036C0.531759 18.0363 0.414424 18.0401 0.265558 18.0448C0.473536 17.3662 0.521366 16.6944 0.614713 16.038C0.743995 15.1294 1.04026 14.2699 1.22528 13.3798C1.41781 12.453 1.73348 11.5513 1.99253 10.638C2.14023 10.118 2.27187 9.593 2.42965 9.07588C2.65131 8.35007 2.86248 7.61918 3.13474 6.91244C3.25478 6.60106 3.25497 6.26409 3.43981 5.961C3.59855 5.70079 3.62313 5.35809 3.70365 5.05096C3.90946 4.26672 4.1381 3.48942 4.2551 2.68246C4.33099 2.15694 4.47617 1.64104 4.60696 1.04479L5.14883 0.5901C5.26328 0.718045 5.43316 0.816769 5.4095 1.08186C5.53996 0.995071 5.66176 0.913848 5.77684 0.837125C6.30567 1.02676 6.67898 1.39564 7.01267 1.9109C6.99563 1.97708 6.96154 2.10945 6.89946 2.35206C6.88399 2.38092 6.80731 2.52436 6.71502 2.6965C6.88562 2.79575 7.01368 2.87031 7.1344 2.94053C7.15062 3.20448 7.18491 3.46801 7.17754 3.73021C7.17141 3.95366 7.38034 4.18746 7.06996 4.39431C7.19293 4.40538 7.23226 4.40867 7.30553 4.41523C7.16308 4.67255 7.49405 4.95987 7.20958 5.20538C7.26683 5.29286 7.31823 5.37136 7.37917 5.46425C7.34899 5.50431 7.31586 5.54828 7.27906 5.59701C7.52652 6.30852 7.49626 7.05971 7.5193 7.81833C7.54722 7.85161 7.61095 7.8931 7.61891 7.94313C7.65071 8.14524 7.74708 8.39354 7.66747 8.54397C7.53788 8.78823 7.79462 9.07291 7.51861 9.27106C7.60443 9.38617 7.68404 9.49288 7.76946 9.60718C7.73455 9.66795 7.6982 9.73106 7.65383 9.80826C7.69553 9.86371 7.7414 9.92445 7.81179 10.0185C7.78986 10.211 7.76443 10.4347 7.73432 10.6996C7.6008 10.6381 7.52212 10.6018 7.41309 10.5512C7.43252 10.7291 7.45008 10.8896 7.46778 11.0502C7.53387 11.0719 7.59968 11.0932 7.70493 11.1271C7.66889 11.2308 7.61417 11.324 7.6103 11.4194C7.60685 11.5028 7.6607 11.5886 7.68871 11.672C7.74741 11.6882 7.81847 11.7077 7.93918 11.7411C7.90109 11.8488 7.86823 11.9407 7.81336 12.0956C7.77854 12.1112 7.66412 12.1627 7.53399 12.2212L7.68825 12.405C7.60293 12.6172 7.54162 12.7648 7.66658 12.9998C7.87905 13.3994 7.91659 13.8742 8.01573 14.3198C8.03103 14.388 7.95406 14.4767 7.91992 14.555C7.98183 14.5662 8.03312 14.5757 8.02797 14.5746C8.02553 14.8298 8.0569 15.0686 8.01191 15.292C7.96644 15.5193 7.8455 15.7316 7.7352 16.0056C7.77797 16.1387 7.89525 16.0845 8.09913 15.8281C8.0472 16.0886 8.02984 16.176 8.00854 16.282C7.92777 16.3013 7.84464 16.3212 7.6864 16.359C7.84071 16.4436 7.94427 16.5004 8.06122 16.5644C8.06378 16.6128 8.06722 16.6686 8.07237 16.7595C8.14802 16.7635 8.27561 16.8064 8.31354 16.7658C8.49895 16.5671 8.73791 16.5353 8.95774 16.4895C9.21666 16.1237 9.66166 16.0627 9.99898 15.8386C10.3701 15.5916 10.76 15.3596 11.1704 15.1905C11.5632 15.0282 11.9694 14.873 12.3088 14.6376C12.6691 14.3874 13.0761 14.2512 13.446 14.0318C13.8231 13.8081 14.2355 13.6364 14.6477 13.4819C15.045 13.3334 15.3946 13.0942 15.7983 12.9499C16.2086 12.8033 16.6213 12.6197 17.0008 12.4053C17.377 12.1928 17.79 12.1011 18.1701 11.9149C18.5488 11.7293 18.937 11.5614 19.329 11.4055C19.7358 11.2436 20.1533 11.1087 20.5638 10.9556C20.9584 10.8085 21.3501 10.6534 21.7763 10.4888C21.9234 10.5017 22.1179 10.5186 22.3097 10.5354C22.3082 10.586 22.3069 10.6435 22.3053 10.6953C22.4542 10.9012 22.6196 10.7593 22.7528 10.7343C22.9524 10.8991 23.1393 11.0533 23.3413 11.22C23.3398 11.2497 23.337 11.3079 23.3343 11.3617C23.7453 11.4211 23.7537 11.7588 23.7684 12.049C23.783 12.3421 23.7256 12.6386 23.698 12.9541C23.3123 13.3821 23.2303 14.0547 22.6192 14.339C22.6616 14.4176 22.6879 14.4662 22.732 14.5474C22.5008 14.8166 22.2561 15.101 21.9791 15.423C21.9847 15.4361 22.0125 15.5007 22.0332 15.5486C21.8399 15.8298 21.659 16.1078 21.4614 16.3734C21.3836 16.4778 21.2787 16.6132 21.1685 16.6319C20.8885 16.6797 20.7325 16.8121 20.6368 17.0781C20.5928 17.2003 20.4487 17.2861 20.4056 17.4473L20.7615 17.1487C20.7815 17.2249 20.8032 17.2744 20.7945 17.2803C20.5388 17.458 20.3955 17.7322 20.2419 17.9824C20.1127 18.1932 19.9374 18.3945 19.7452 18.4307C19.496 18.4776 19.4101 18.6719 19.124 18.7841C19.2695 18.821 19.3117 18.8318 19.3546 18.8426C19.2306 19.2412 19.1586 19.3836 18.8598 19.4565C18.6207 19.5149 18.5345 19.698 18.4088 19.8685C18.5407 19.781 18.6726 19.6936 18.8994 19.5432C18.6583 19.8519 18.4889 20.0686 18.2498 20.3744C19.2385 20.096 20.1548 20.096 21.0598 19.9963C21.9816 19.8948 22.4667 19.9147 23.2192 20.0723C23.3559 20.1007 23.5092 20.0418 23.65 20.0603C23.8939 20.0927 24.1323 20.1748 24.3765 20.1972C24.6007 20.2178 24.8349 20.1526 25.0558 20.1855C25.6404 20.273 26.2079 20.4574 26.8016 20.5064C26.8598 20.5112 26.9105 20.6095 26.9707 20.6707C27.0683 20.6566 27.1842 20.6058 27.2795 20.6316C27.7455 20.7575 28.2178 20.8734 28.664 21.0527C29.0186 21.1952 29.3844 21.3087 29.7339 21.4824C30.0793 21.6538 30.3319 21.917 30.6335 22.1216C30.9453 22.3334 31.12 22.696 31.2285 23.0994C30.6768 23.092 30.6685 23.6946 30.3292 23.9464C30.4912 23.8306 30.6533 23.7147 30.8155 23.5988C30.8342 23.6242 30.8529 23.6499 30.8717 23.6752L30.5714 23.9272C30.4805 24.0034 30.3884 24.0782 30.2993 24.1561C30.1996 24.2437 30.0619 24.3077 30.0893 24.4786C29.9209 24.392 29.9433 24.6408 29.8368 24.629C29.6456 24.6082 29.786 24.874 29.603 24.8727C29.5019 24.8722 29.3924 24.9386 29.3016 24.9978C29.1895 25.0709 29.093 25.1677 28.9993 25.2463C28.9095 25.193 28.8469 25.1559 28.748 25.0972C28.7875 25.2004 28.8125 25.2656 28.8476 25.3564C28.803 25.4009 28.7504 25.4535 28.6643 25.5394C28.5041 25.5255 28.3142 25.509 28.1436 25.4943C28.0669 25.566 28.0115 25.6179 27.9608 25.6653C27.9912 25.7492 28.0159 25.8175 28.0504 25.9119C27.9492 25.8661 27.8718 25.8309 27.7943 25.7959L27.6948 25.8794C27.7162 25.9607 27.739 26.0476 27.7643 26.1434C27.4321 26.2776 27.087 26.3602 26.8075 26.6063C26.6809 26.7177 26.4703 26.7336 26.279 26.7992C26.2799 26.7956 26.2724 26.8299 26.2609 26.8824C25.9813 27.013 25.6915 27.1484 25.3343 27.3151C25.3655 27.1526 25.3864 27.0441 25.4057 26.9431C25.244 27.0442 25.1575 27.1358 25.0565 27.3178C25.0377 27.3188 25.019 27.3218 25.0001 27.3209C24.9607 27.3185 24.9214 27.3143 24.8754 27.3101C24.8737 27.3493 24.8729 27.3882 24.8699 27.427C24.8684 27.4458 24.8631 27.4645 24.859 27.4846C24.7069 27.5459 24.5537 27.6076 24.3524 27.6886L24.0176 27.2897C23.9887 27.2968 23.96 27.3042 23.9312 27.3117C23.9418 27.4 23.9527 27.4884 23.9678 27.6141C24.0132 27.6318 24.0938 27.6629 24.2469 27.7224C23.9934 27.8467 23.7865 27.9482 23.5855 28.0466C23.5273 28.0018 23.4837 27.9681 23.4382 27.9331C23.3396 28.2802 23.0661 28.2959 22.7841 28.3071C22.6942 28.3108 22.6007 28.3342 22.5175 28.3689C22.3309 28.4464 22.1495 28.5368 21.9286 28.6397C21.9226 28.6356 21.877 28.6053 21.7826 28.5427C21.7031 28.619 21.6079 28.7106 21.4565 28.8563C21.5005 28.8563 21.4439 28.8416 21.3996 28.8584C21.0404 28.9939 20.6979 29.1719 20.327 29.2779C20.292 29.288 20.2661 29.3253 20.2321 29.3419C20.0106 29.4496 19.7308 29.2831 19.5316 29.4818C19.3556 29.6573 19.1112 29.6066 18.9073 29.69C18.6881 29.7798 18.4605 29.8492 18.2354 29.9235C18.1661 29.9466 18.0863 29.9441 18.0233 29.9768C17.9548 30.0121 17.9005 30.0747 17.8125 30.1486C17.7233 30.1282 17.6089 30.1023 17.5242 30.0828L17.2165 30.3411C16.8745 30.3029 16.5292 30.2586 16.2462 30.5329C16.2211 30.5574 16.1785 30.5847 16.1486 30.5802C15.6436 30.5041 15.2359 30.8463 14.752 30.8968C14.2854 30.9455 13.8371 31.1491 13.3719 31.2383C12.7557 31.3568 12.1312 31.4308 11.5096 31.5206C11.4526 31.529 11.3864 31.5259 11.3337 31.5049C10.8404 31.3096 10.349 31.1089 9.90339 30.9289C9.75944 30.6695 9.6412 30.4562 9.48914 30.1821C9.52446 30.0762 9.58268 29.9023 9.63908 29.7334C9.96072 29.6234 10.2671 29.5013 10.5835 29.4158C10.9015 29.3298 11.227 29.2563 11.5538 29.22C12.2691 29.1399 12.9482 28.9018 13.6505 28.771C14.0661 28.6936 14.4592 28.4919 14.8977 28.5396C15.5493 28.233 16.2568 28.1179 16.9411 27.9222C17.2369 27.8375 17.5489 27.7964 17.835 27.6623C18.0985 27.5384 18.3813 27.4562 18.6552 27.3545C19.5117 27.0373 20.3693 26.724 21.2233 26.4003C21.6679 26.2319 22.1095 26.0533 22.546 25.8643C22.9855 25.6738 23.4126 25.4337 23.8511 25.2667C24.6196 24.974 25.2747 24.4836 26.0251 24.1652C26.4213 23.9972 26.7621 23.6897 27.111 23.423C27.4511 23.1634 27.77 22.8757 28.1927 22.521Z" fill="white"/>
</svg>
