<svg width="216" height="59" viewBox="0 0 216 59" fill="none" xmlns="http://www.w3.org/2000/svg">
<g clip-path="url(#clip0_336_8431)">
<path d="M87.622 30.5147L84.1661 21.3162C84.1342 21.2333 84.0778 21.1621 84.0046 21.1118C83.9314 21.0615 83.8446 21.0346 83.7558 21.0346C83.667 21.0346 83.5802 21.0615 83.507 21.1118C83.4337 21.1621 83.3775 21.2333 83.3455 21.3162L79.8896 30.5162C79.8656 30.5815 79.858 30.6516 79.8673 30.7205C79.8767 30.7894 79.9027 30.855 79.9431 30.9115C79.9836 30.9681 80.0373 31.0138 80.0995 31.045C80.1617 31.076 80.2305 31.0913 80.2999 31.0897H87.2411C87.3445 31.0909 87.4443 31.0528 87.5208 30.9832C87.5971 30.9137 87.6443 30.8177 87.6528 30.7147C87.6593 30.6471 87.6487 30.5788 87.622 30.5162V30.5147ZM89.2323 35.6765H78.2793C78.19 35.6771 78.1028 35.7049 78.0296 35.756C77.9564 35.8072 77.9003 35.8796 77.869 35.9632L75.7014 41.7015C75.6702 41.785 75.6145 41.8571 75.5415 41.9082C75.4686 41.9596 75.3818 41.9874 75.2925 41.9882H70.544C70.4715 41.9893 70.3999 41.9722 70.3356 41.9387C70.2714 41.905 70.2165 41.856 70.1759 41.7959C70.1353 41.7357 70.1103 41.6665 70.1033 41.5943C70.0962 41.5221 70.1071 41.4493 70.1352 41.3824L81.0587 14.5692C81.0914 14.488 81.1487 14.4192 81.2225 14.3725C81.2965 14.3258 81.3833 14.3035 81.4705 14.3089H86.0087C86.0949 14.3094 86.1792 14.3341 86.252 14.3801C86.3248 14.4261 86.3831 14.4916 86.4205 14.5692L97.3425 41.3824C97.3706 41.4494 97.3817 41.5225 97.3745 41.5949C97.3673 41.6672 97.3421 41.7366 97.3015 41.7969C97.2608 41.8571 97.2058 41.9063 97.1412 41.94C97.0768 41.9737 97.005 41.9907 96.9323 41.9897H92.1911C92.1015 41.989 92.0143 41.961 91.9411 41.9096C91.8678 41.8581 91.812 41.7856 91.7808 41.7015L89.6131 35.9632C89.5925 35.8787 89.5434 35.8038 89.474 35.7513C89.4046 35.6988 89.3193 35.6719 89.2323 35.675V35.6765ZM99.5999 23.7088H103.672C103.787 23.711 103.897 23.7574 103.978 23.8381C104.06 23.9187 104.108 24.0278 104.112 24.1427V41.5588C104.108 41.6735 104.06 41.7822 103.978 41.8625C103.896 41.9427 103.787 41.9882 103.672 41.9897H99.6014C99.4865 41.9887 99.3765 41.9432 99.2943 41.8629C99.2121 41.7827 99.164 41.6737 99.1602 41.5588V24.1427C99.1596 24.0849 99.1706 24.0277 99.1927 23.9743C99.2148 23.9209 99.2474 23.8725 99.2886 23.8319C99.3298 23.7915 99.3787 23.7597 99.4324 23.7385C99.4862 23.7174 99.5437 23.7072 99.6014 23.7088H99.5999ZM118.932 27.9471C118.929 28.0622 118.881 28.1716 118.799 28.2527C118.718 28.3337 118.608 28.3802 118.493 28.3824H118.375C116.354 28.3824 114.89 28.8412 113.953 29.7941C113.016 30.7471 112.547 32.3029 112.547 34.4912V41.528C112.543 41.6427 112.496 41.7515 112.414 41.8322C112.333 41.9128 112.223 41.9593 112.109 41.9618H108.094C107.979 41.9593 107.87 41.9128 107.789 41.8322C107.707 41.7515 107.66 41.6427 107.656 41.528V24.1427C107.66 24.0278 107.707 23.9187 107.789 23.8381C107.871 23.7574 107.981 23.711 108.095 23.7088H112.078C112.193 23.7107 112.303 23.7568 112.385 23.8375C112.467 23.9182 112.515 24.0275 112.519 24.1427V27.5735H112.606C113.013 26.2703 113.81 25.1235 114.89 24.2882C116.018 23.4921 117.377 23.0871 118.757 23.1353H118.962V27.9485H118.932V27.9471ZM130.032 27.7765C129.918 27.7784 129.809 27.8238 129.728 27.9038C129.646 27.9837 129.598 28.0918 129.594 28.2059V35.4441C129.54 36.0103 129.695 36.575 130.032 37.0324C130.326 37.3471 130.823 37.4912 131.556 37.4912H131.966C132.081 37.4938 132.19 37.5402 132.272 37.6209C132.353 37.7016 132.401 37.8105 132.404 37.925V41.5574C132.401 41.6718 132.353 41.7803 132.271 41.8605C132.19 41.9407 132.08 41.9865 131.966 41.9882H130.24C128.451 41.9882 127.076 41.5265 126.11 40.6324C125.143 39.7118 124.675 38.3838 124.675 36.5691V28.2059C124.671 28.0913 124.623 27.9828 124.54 27.9028C124.458 27.8228 124.348 27.7775 124.234 27.7765H121.687C121.572 27.774 121.462 27.7274 121.381 27.6463C121.299 27.5653 121.252 27.456 121.248 27.3412V24.1427C121.252 24.028 121.299 23.9188 121.381 23.8381C121.462 23.7574 121.572 23.711 121.687 23.7088H124.235C124.35 23.7074 124.46 23.6618 124.542 23.5816C124.623 23.5013 124.671 23.3927 124.675 23.2779V16.8177C124.679 16.7031 124.727 16.5944 124.808 16.5141C124.89 16.4338 125 16.3883 125.115 16.3868H129.185C129.3 16.3883 129.41 16.4338 129.492 16.5141C129.573 16.5944 129.621 16.7031 129.625 16.8177V23.2779C129.629 23.3927 129.677 23.5013 129.758 23.5816C129.84 23.6618 129.95 23.7074 130.065 23.7088H132.993C133.108 23.711 133.217 23.7574 133.299 23.8381C133.381 23.9187 133.429 24.0278 133.432 24.1427V27.3412C133.429 27.4563 133.381 27.5657 133.299 27.6468C133.218 27.7278 133.108 27.7743 132.993 27.7765H130.032ZM148.631 36.5412C149.099 36.0457 149.462 35.4609 149.699 34.8215C149.935 34.1821 150.04 33.5015 150.007 32.8206C150.033 32.1404 149.925 31.4618 149.689 30.8234C149.453 30.185 149.093 29.5994 148.631 29.1C147.639 28.1922 146.344 27.6887 144.999 27.6887C143.655 27.6887 142.359 28.1922 141.368 29.1C140.899 29.5955 140.536 30.1804 140.299 30.8197C140.063 31.4591 139.958 32.1397 139.991 32.8206C139.965 33.5007 140.073 34.1794 140.309 34.8178C140.545 35.4562 140.905 36.0418 141.368 36.5412C141.843 37.0144 142.411 37.3841 143.036 37.6271C143.661 37.87 144.33 37.981 145 37.9529C145.671 37.9903 146.342 37.8837 146.969 37.6403C147.595 37.3968 148.163 37.0221 148.632 36.5412H148.631ZM139.257 41.4147C137.882 40.635 136.763 39.4721 136.037 38.0677C135.265 36.4259 134.865 34.634 134.865 32.8199C134.865 31.0057 135.265 29.214 136.037 27.5721C136.772 26.1744 137.889 25.0143 139.257 24.2265C140.633 23.4525 142.188 23.0549 143.766 23.0735C145.057 23.0419 146.335 23.3299 147.487 23.9118C148.505 24.451 149.356 25.2593 149.947 26.2485H150.035V24.1103C150.039 23.996 150.087 23.8878 150.169 23.8077C150.25 23.7275 150.359 23.6816 150.473 23.6794H154.487C154.601 23.6813 154.711 23.7269 154.793 23.8072C154.874 23.8874 154.922 23.9959 154.926 24.1103V41.525C154.923 41.6405 154.875 41.75 154.793 41.8312C154.711 41.9122 154.601 41.9585 154.485 41.9603H150.476C150.361 41.9581 150.251 41.9116 150.169 41.8306C150.088 41.7496 150.04 41.6402 150.037 41.525V39.3927H149.948C149.358 40.3829 148.506 41.1918 147.487 41.7309C146.334 42.3106 145.056 42.5979 143.766 42.5677C142.188 42.5865 140.633 42.1888 139.257 41.4147ZM171.652 36.5412C172.119 36.0457 172.482 35.4607 172.719 34.8213C172.956 34.1821 173.06 33.5015 173.028 32.8206C173.054 32.1404 172.946 31.4618 172.71 30.8234C172.474 30.185 172.113 29.5994 171.652 29.1C170.66 28.1918 169.363 27.688 168.019 27.688C166.675 27.688 165.378 28.1918 164.387 29.1C163.919 29.5957 163.556 30.1807 163.319 30.82C163.084 31.4594 162.978 32.1399 163.012 32.8206C162.985 33.5007 163.094 34.1794 163.329 34.8178C163.566 35.4562 163.925 36.0418 164.388 36.5412C164.863 37.0144 165.431 37.3841 166.057 37.6271C166.682 37.87 167.35 37.981 168.021 37.9529C168.691 37.9902 169.363 37.8834 169.99 37.64C170.616 37.3965 171.182 37.0219 171.653 36.5412H171.652ZM165.56 41.7294C164.541 41.19 163.69 40.3812 163.099 39.3912H163.01V41.5265C163.006 41.6412 162.959 41.75 162.878 41.8307C162.796 41.9113 162.687 41.9578 162.572 41.9603H158.5C158.385 41.9578 158.277 41.9113 158.194 41.8307C158.113 41.75 158.065 41.6412 158.062 41.5265V14.7118C158.065 14.5973 158.113 14.4886 158.194 14.4082C158.277 14.3277 158.385 14.2817 158.5 14.2794H162.572C162.687 14.2813 162.796 14.327 162.878 14.4072C162.96 14.4873 163.007 14.5959 163.012 14.7103V26.275H163.1C163.691 25.2862 164.543 24.4777 165.56 23.9368C166.713 23.3574 167.99 23.07 169.279 23.1C170.857 23.081 172.413 23.4803 173.788 24.2574C175.163 25.0356 176.282 26.1971 177.009 27.6C177.832 29.2234 178.235 31.0275 178.182 32.8471C178.219 34.6654 177.818 36.4657 177.01 38.0956C176.275 39.4941 175.157 40.6544 173.79 41.4412C172.413 42.2153 170.857 42.6131 169.279 42.5941C167.988 42.6047 166.712 42.3074 165.559 41.7265L165.56 41.7294ZM185.037 41.9632H180.968C180.853 41.9615 180.743 41.9152 180.66 41.834C180.578 41.7528 180.531 41.6432 180.528 41.528V14.7133C180.532 14.5983 180.579 14.4892 180.662 14.4087C180.744 14.3281 180.854 14.2824 180.969 14.2809H185.038C185.153 14.2835 185.262 14.3294 185.343 14.4095C185.424 14.4896 185.472 14.5977 185.477 14.7118V41.5265C185.478 41.611 185.454 41.694 185.409 41.765C185.363 41.836 185.297 41.8918 185.219 41.925C185.162 41.9499 185.1 41.9619 185.038 41.9603V41.9632H185.037ZM194.615 27.9206C193.906 28.4863 193.419 29.2827 193.238 30.1706C193.225 30.2347 193.228 30.3009 193.244 30.3641C193.26 30.4274 193.291 30.4862 193.334 30.536C193.375 30.5859 193.428 30.6256 193.488 30.6522C193.547 30.6788 193.613 30.6916 193.678 30.6897H201.41C201.472 30.69 201.534 30.6769 201.591 30.6516C201.649 30.6263 201.699 30.5893 201.74 30.5428C201.782 30.4965 201.813 30.4418 201.832 30.3825C201.852 30.3231 201.857 30.2605 201.85 30.1985C201.732 29.3366 201.304 28.5471 200.647 27.9779C199.8 27.3044 198.741 26.9559 197.66 26.9956C196.572 26.9662 195.503 27.2897 194.615 27.9191L194.613 27.9206H194.615ZM204.515 25.6721C206.096 27.3706 206.887 29.7721 206.885 32.878V33.4C206.881 33.5146 206.834 33.6231 206.752 33.7032C206.669 33.7834 206.56 33.8291 206.446 33.8309H193.532C193.468 33.8322 193.404 33.8471 193.347 33.8746C193.288 33.9021 193.237 33.9416 193.196 33.9904C193.153 34.0394 193.122 34.0966 193.104 34.1584C193.087 34.2202 193.082 34.2849 193.091 34.3485C193.259 35.4285 193.81 36.4118 194.646 37.1177C195.671 37.9196 196.949 38.3281 198.249 38.2691C200.19 38.2421 202.047 37.4678 203.432 36.1074C203.478 36.0656 203.532 36.0344 203.591 36.016C203.652 35.9977 203.713 35.9925 203.775 36.0009C203.837 36.0093 203.896 36.031 203.947 36.0647C204 36.0984 204.044 36.1431 204.077 36.1956L206.038 38.9912C206.094 39.0805 206.119 39.1856 206.107 39.2903C206.097 39.3949 206.052 39.4931 205.979 39.5691C205.006 40.3991 203.934 41.1063 202.788 41.675C201.36 42.3116 199.81 42.6265 198.247 42.5971C196.416 42.6387 194.603 42.2216 192.975 41.3838C191.507 40.6128 190.296 39.4309 189.49 37.9824C188.637 36.4291 188.203 34.6806 188.231 32.9088C188.199 31.1341 188.612 29.3797 189.432 27.8059C190.202 26.3622 191.371 25.1712 192.8 24.3765C194.353 23.5296 196.099 23.1018 197.868 23.1353C200.737 23.1015 202.934 23.9677 204.515 25.6706V25.6721ZM104.638 17.2544C104.647 17.8453 104.48 18.4254 104.158 18.9214C103.837 19.4173 103.376 19.8069 102.833 20.0409C102.291 20.2748 101.691 20.3426 101.11 20.2357C100.528 20.1288 99.992 19.852 99.5681 19.4402C99.1443 19.0285 98.852 18.5003 98.7283 17.9225C98.6045 17.3447 98.6549 16.7431 98.873 16.1939C99.0911 15.6447 99.4671 15.1725 99.9536 14.8369C100.44 14.5014 101.015 14.3177 101.606 14.3089H101.62C102.409 14.3052 103.167 14.6115 103.732 15.1617C104.296 15.7119 104.622 16.4619 104.638 17.25V17.253V17.2544Z" fill="#1B1A32"/>
<path d="M31.278 8.69961L12.8017 16.3447C11.7745 16.7702 11.7849 18.2296 12.8191 18.6395L31.3724 25.9969C33.0026 26.6434 34.818 26.6434 36.4481 25.9969L55.0017 18.6395C56.0354 18.2296 56.0462 16.7702 55.0186 16.345L36.5427 8.69961C34.8571 8.00211 32.9636 8.00211 31.278 8.69961Z" fill="#F99B0F"/>
<path d="M35.5563 30.0143V48.3946C35.5563 49.2684 36.4377 49.8674 37.2504 49.5452L57.9245 41.5205C58.1551 41.4291 58.3529 41.2706 58.4922 41.0653C58.6316 40.8602 58.706 40.6178 58.706 40.3699V21.9898C58.706 21.1156 57.8245 20.517 57.0119 20.8391L36.3377 28.8638C36.1072 28.9553 35.9095 29.1138 35.7701 29.3191C35.6308 29.5243 35.5563 29.7665 35.5563 30.0146" fill="#2CA0F4"/>
<path d="M30.7287 30.9625L24.5931 33.925L23.9702 34.2262L11.0182 40.4321C10.1975 40.8281 9.14929 40.2299 9.14929 39.3178V22.0667C9.14929 21.7367 9.31848 21.4518 9.54537 21.2376C9.63845 21.1449 9.74405 21.0657 9.85909 21.0023C10.1683 20.8165 10.6098 20.767 10.9852 20.9154L30.6256 28.6975C31.624 29.0936 31.7024 30.4925 30.7287 30.9628" fill="#EE3333"/>
<path d="M30.7286 30.9625L24.593 33.925L9.54529 21.2373C9.63839 21.1447 9.74399 21.0656 9.85902 21.0023C10.1683 20.8165 10.6097 20.767 10.9851 20.9154L30.6256 28.6975C31.6238 29.0936 31.7022 30.4925 30.7286 30.9628" fill="#161616" fill-opacity="0.25"/>
</g>
<defs>
<clipPath id="clip0_336_8431">
<rect width="200" height="42.6471" fill="white" transform="translate(8 8.17648)"/>
</clipPath>
</defs>
</svg>
