<svg width="181" height="52" viewBox="0 0 181 52" fill="none" xmlns="http://www.w3.org/2000/svg">
<path fill-rule="evenodd" clip-rule="evenodd" d="M9.15524 16.2914C9.11049 16.306 9.06603 16.3205 9.02128 16.3351C9.35684 17.4804 9.69235 18.6253 10.0279 19.7706C10.084 19.7523 10.1398 19.734 10.1956 19.716C9.84872 18.5745 9.50212 17.4329 9.15524 16.2914ZM18.7356 21.153C18.5176 21.9367 18.129 22.3296 17.5506 22.5853C14.3377 24.0027 9.90456 23.0205 8.9326 18.2694C8.47113 16.0143 7.34773 14.3577 4.99969 13.6654C4.18219 13.4241 3.38481 13.079 2.63481 12.6791C2.29329 12.497 1.96645 12.0979 1.87649 11.7362C1.83354 11.5636 2.31912 11.1207 2.63345 11.0264C3.15563 10.8701 3.78918 10.7247 4.27612 10.8768C5.71039 11.3249 7.14442 11.8269 8.48586 12.4876C9.72797 13.0993 10.4597 14.176 11.0303 15.4921C11.6021 16.8117 11.5704 18.263 12.3 19.5468C12.9787 20.7413 15.4729 21.8279 16.8747 21.4907C17.4415 21.3543 18.0232 21.2799 18.7356 21.153Z" fill="black"/>
<path fill-rule="evenodd" clip-rule="evenodd" d="M22.074 16.9702C21.6246 17.0863 21.168 17.3271 20.7267 17.2978C18.5908 17.1571 16.5226 14.5464 17.0945 12.4451C17.8731 9.58324 16.5718 7.82432 14.5387 6.24902C13.8503 5.71554 13.2335 5.06226 12.6777 4.38324C12.5208 4.19171 12.5699 3.53167 12.7434 3.40803C13.1206 3.13849 13.8245 2.80071 14.0686 2.97441C15.5098 4.00102 17.0074 5.02214 18.1958 6.32387C19.4785 7.7284 20.1422 9.49995 19.5112 11.5277C19.2307 12.4296 18.9409 13.3394 19.3791 14.3238C19.8518 15.3857 20.5901 16.0903 21.6442 16.4796C21.7779 16.5287 21.9023 16.6047 22.0313 16.6682C22.0455 16.7689 22.0598 16.8697 22.074 16.9702Z" fill="black"/>
<path fill-rule="evenodd" clip-rule="evenodd" d="M28.6505 2.80345C28.5963 2.82197 28.5422 2.8405 28.4884 2.85925L29.4246 8.22534C29.4801 8.2163 29.5358 8.20694 29.5916 8.19786L28.6505 2.80345ZM28.5797 15.9351C28.0371 16.0066 27.6552 16.0569 27.2734 16.1072C28.0599 15.3549 27.1577 14.9159 27.0321 14.3923L27.1814 15.2478C26.8309 15.5181 26.7958 14.3405 26.3804 15.2966C26.0103 14.248 25.4979 13.3295 26.1724 12.4016C26.4653 11.999 26.5481 11.2581 27.4153 11.1448C27.4325 11.1105 27.4953 10.813 27.676 10.648C29.1328 9.31959 28.9834 7.67904 28.6065 5.98369C28.4011 5.06086 28.1027 4.14459 28.032 3.21094C27.9783 2.50131 28.1609 1.75443 28.3421 1.05159C28.5163 0.376634 29.1819 0.204484 29.7476 0.0887742C29.9152 0.0546142 30.3554 0.525022 30.3835 0.794587C30.5675 2.55094 30.6725 4.31566 30.8615 6.08114C30.7688 5.70027 30.6764 5.31991 30.5837 4.93903C30.5423 4.94182 30.5008 4.94521 30.4597 4.94795C30.4637 5.1279 30.4953 5.31238 30.466 5.48624C30.414 5.79728 30.3483 6.10932 30.2461 6.40612C30.1335 6.7331 29.9731 7.04314 29.9865 7.40035C30.2232 7.22446 30.4602 7.0488 30.5883 6.95354C30.7488 7.28883 30.8665 7.46913 30.9202 7.66657C30.9734 7.86295 31.0463 8.12367 30.9645 8.27566C30.6018 8.95072 30.4664 9.70866 29.7517 10.2474C28.8591 10.9199 28.1646 11.8642 27.3995 12.7052C27.293 12.8221 27.1916 13.0382 27.2239 13.1762C27.4014 13.9362 27.5952 14.6956 27.8455 15.4335C27.9032 15.6036 28.205 15.689 28.5797 15.9351Z" fill="black"/>
<rect x="23.254" y="21.6799" width="157" height="30.3201" rx="8" fill="#161616"/>
<path d="M48.5392 37.8868V32.8008H50.0392V37.7051C50.0392 38.334 50.1837 38.8184 50.4728 39.1583C50.7618 39.4942 51.1915 39.6622 51.7618 39.6622C52.3048 39.6622 52.7228 39.4942 53.0157 39.1583C53.3087 38.8223 53.4552 38.3516 53.4552 37.7462V32.8008H54.9552V37.9102C54.9552 38.8399 54.672 39.586 54.1056 40.1485C53.5431 40.7071 52.7618 40.9864 51.7618 40.9864C50.6993 40.9864 49.8966 40.713 49.3536 40.1661C48.8107 39.6153 48.5392 38.8555 48.5392 37.8868ZM56.3439 38.2266H57.8556C57.84 38.7579 57.9747 39.1446 58.2599 39.3868C58.549 39.629 58.9747 39.7501 59.5372 39.7501C60.0411 39.7501 60.42 39.6544 60.674 39.463C60.9318 39.2676 61.0607 38.9981 61.0607 38.6544C61.0607 38.295 60.924 38.0313 60.6505 37.8633C60.3771 37.6915 59.8986 37.543 59.215 37.418C58.8712 37.3555 58.5685 37.2852 58.3068 37.2071C58.045 37.1251 57.7931 37.0215 57.5509 36.8965C57.3126 36.7676 57.1173 36.6192 56.965 36.4512C56.8126 36.2833 56.6915 36.0801 56.6017 35.8419C56.5118 35.5997 56.4669 35.3262 56.4669 35.0215C56.4669 34.5176 56.5978 34.084 56.8595 33.7208C57.1212 33.3575 57.4689 33.0899 57.9025 32.918C58.34 32.7422 58.84 32.6544 59.4025 32.6544C59.8439 32.6544 60.2521 32.711 60.6271 32.8243C61.0021 32.9376 61.3263 33.1016 61.5997 33.3165C61.8771 33.5313 62.09 33.8067 62.2384 34.1426C62.3868 34.4786 62.4532 34.8594 62.4376 35.2852H60.9493C60.9611 34.8204 60.8302 34.4727 60.5568 34.2422C60.2833 34.0079 59.8829 33.8907 59.3556 33.8907C58.922 33.8907 58.5822 33.9844 58.3361 34.1719C58.09 34.3555 57.9669 34.6016 57.9669 34.9102C57.9669 35.2735 58.1017 35.5411 58.3712 35.713C58.6407 35.8809 59.1017 36.0255 59.754 36.1465C60.1329 36.2169 60.4611 36.293 60.7384 36.3751C61.0157 36.4532 61.2755 36.5547 61.5177 36.6797C61.7599 36.8008 61.9552 36.9434 62.1036 37.1075C62.256 37.2715 62.3732 37.4708 62.4552 37.7051C62.5411 37.9356 62.5841 38.2012 62.5841 38.502C62.5841 39.2637 62.3087 39.8692 61.7579 40.3184C61.2072 40.7637 60.4474 40.9864 59.4786 40.9864C58.4747 40.9864 57.6915 40.7481 57.129 40.2715C56.5665 39.7911 56.3048 39.1094 56.3439 38.2266ZM69.4161 34.1075H65.5431V36.1114H68.9474V37.3946H65.5431V39.5333H69.4161V40.8399H64.0431V32.8008H69.4161V34.1075ZM70.8517 32.8008H73.8165C74.3087 32.8008 74.7618 32.8672 75.1759 33.0001C75.5939 33.1329 75.9532 33.3184 76.254 33.5567C76.5587 33.795 76.8165 34.0782 77.0275 34.4063C77.2423 34.7344 77.4025 35.0958 77.5079 35.4903C77.6134 35.8848 77.6661 36.3047 77.6661 36.7501C77.6661 37.3282 77.5782 37.8653 77.4025 38.3614C77.2306 38.8536 76.9825 39.2852 76.6583 39.6563C76.3341 40.0235 75.922 40.3126 75.422 40.5235C74.922 40.7344 74.3615 40.8399 73.7404 40.8399H70.8517V32.8008ZM73.6583 39.5333C74.0724 39.5333 74.4376 39.4649 74.754 39.3282C75.0743 39.1915 75.3341 39.0001 75.5333 38.754C75.7325 38.504 75.881 38.213 75.9786 37.8809C76.0802 37.5489 76.131 37.1797 76.131 36.7735C76.131 36.3907 76.0822 36.0411 75.9845 35.7247C75.8868 35.4044 75.7404 35.1231 75.545 34.8809C75.3497 34.6348 75.0919 34.4454 74.7716 34.3126C74.4513 34.1758 74.0802 34.1075 73.6583 34.1075H72.3517V39.5333H73.6583ZM81.2462 39.293C81.2462 38.9727 81.3107 38.6934 81.4396 38.4551C81.5724 38.2169 81.7443 38.0255 81.9552 37.8809C82.17 37.7364 82.4415 37.6212 82.7697 37.5352C83.0978 37.4454 83.4318 37.3829 83.7716 37.3477C84.1154 37.3126 84.5079 37.293 84.9493 37.2891V36.8438C84.9493 36.4649 84.8654 36.1837 84.6974 36.0001C84.5294 35.8126 84.2697 35.7188 83.9181 35.7188C83.6017 35.7188 83.3439 35.8008 83.1447 35.9649C82.9493 36.129 82.8517 36.3575 82.8517 36.6505C82.8517 36.7559 82.8595 36.8477 82.8751 36.9258H81.5099C81.5021 36.8555 81.4982 36.7598 81.4982 36.6387C81.4982 36.0333 81.7267 35.543 82.1837 35.168C82.6447 34.7891 83.2404 34.5997 83.9708 34.5997C84.756 34.5997 85.3536 34.7969 85.7638 35.1915C86.174 35.586 86.379 36.1485 86.379 36.879V38.9532C86.379 39.2618 86.4025 39.4747 86.4493 39.5919C86.5001 39.7051 86.59 39.7618 86.7189 39.7618C86.8126 39.7618 86.8966 39.7364 86.9708 39.6856V40.7579C86.9083 40.8008 86.799 40.8399 86.6427 40.8751C86.4865 40.9141 86.3341 40.9337 86.1857 40.9337C85.7599 40.9337 85.465 40.8594 85.3009 40.711C85.1368 40.5587 85.0372 40.3008 85.0021 39.9376H84.9786C84.8146 40.2501 84.5743 40.4981 84.2579 40.6817C83.9454 40.8653 83.5646 40.9571 83.1154 40.9571C82.5177 40.9571 82.0568 40.8126 81.7325 40.5235C81.4083 40.2344 81.2462 39.8243 81.2462 39.293ZM84.9493 38.8712V38.1973C84.1759 38.2169 83.6075 38.2969 83.2443 38.4376C82.8849 38.5743 82.7052 38.8106 82.7052 39.1465C82.7052 39.627 83.0021 39.8672 83.5958 39.8672C83.8927 39.8672 84.1622 39.7813 84.4044 39.6094C84.6505 39.4337 84.8322 39.1876 84.9493 38.8712ZM87.9669 34.7227H89.4083V35.8477H89.4435C89.5607 35.4805 89.7755 35.1817 90.088 34.9512C90.4044 34.7169 90.8087 34.5997 91.3009 34.5997C91.8986 34.5997 92.3712 34.7794 92.7189 35.1387C93.0704 35.4942 93.2462 36.0137 93.2462 36.6973V40.8399H91.7931V37.0606C91.7931 36.2598 91.4493 35.8594 90.7618 35.8594C90.3712 35.8594 90.0509 36.0255 89.8009 36.3575C89.5548 36.6895 89.4318 37.1231 89.4318 37.6583V40.8399H87.9669V34.7227ZM98.7716 32.1973H100.225V40.8399H98.795V39.7501H98.7599C98.674 40.0743 98.4747 40.3575 98.1622 40.5997C97.8497 40.838 97.4376 40.9571 96.9259 40.9571C96.5704 40.9571 96.2404 40.8887 95.9357 40.752C95.631 40.6153 95.3634 40.418 95.1329 40.1602C94.9064 39.9024 94.7286 39.5743 94.5997 39.1758C94.4708 38.7735 94.4064 38.3243 94.4064 37.8282C94.4064 36.836 94.6486 36.0508 95.1329 35.4727C95.6173 34.8907 96.2599 34.5997 97.0607 34.5997C97.5294 34.5997 97.9025 34.6993 98.1798 34.8985C98.4611 35.0938 98.6505 35.3184 98.7482 35.5723H98.7716V32.1973ZM98.7716 37.8633V37.5645C98.7716 37.0098 98.6407 36.5723 98.379 36.252C98.1173 35.9278 97.7853 35.7657 97.3829 35.7657C96.9259 35.7657 96.5626 35.9473 96.2931 36.3106C96.0275 36.6739 95.8947 37.1641 95.8947 37.7813C95.8947 38.4141 96.0255 38.9063 96.2872 39.2579C96.5529 39.6094 96.9025 39.7852 97.3361 39.7852C97.754 39.7852 98.0978 39.6153 98.3673 39.2755C98.6368 38.9317 98.7716 38.461 98.7716 37.8633ZM106.055 39.5215H109.629V40.8399H104.555V32.8008H106.055V39.5215ZM110.016 36.8555C110.016 36.043 110.164 35.3204 110.461 34.6876C110.758 34.0547 111.19 33.5587 111.756 33.1993C112.326 32.836 112.99 32.6544 113.748 32.6544C114.502 32.6544 115.16 32.838 115.723 33.2051C116.285 33.5684 116.711 34.0606 117 34.6817C117.289 35.2989 117.434 36.0001 117.434 36.7852C117.434 37.6016 117.285 38.3262 116.988 38.959C116.695 39.5919 116.266 40.088 115.699 40.4473C115.133 40.8067 114.471 40.9864 113.713 40.9864C113.147 40.9864 112.629 40.8809 112.16 40.67C111.695 40.4551 111.307 40.1622 110.994 39.7911C110.682 39.42 110.44 38.9844 110.268 38.4844C110.1 37.9805 110.016 37.4376 110.016 36.8555ZM115.307 38.877C115.693 38.3419 115.887 37.6563 115.887 36.8204C115.887 35.9844 115.695 35.2989 115.313 34.7637C114.934 34.2286 114.408 33.961 113.736 33.961C113.283 33.961 112.891 34.088 112.559 34.3419C112.227 34.5958 111.977 34.9376 111.809 35.3672C111.645 35.793 111.563 36.2774 111.563 36.8204C111.563 37.6563 111.754 38.3419 112.137 38.877C112.524 39.4083 113.053 39.6739 113.725 39.6739C114.397 39.6739 114.924 39.4083 115.307 38.877ZM117.621 32.8008H119.209L120.914 37.7579C121.07 38.2344 121.197 38.6583 121.295 39.0294H121.318C121.436 38.5997 121.565 38.1758 121.705 37.7579L123.41 32.8008H124.945L122.121 40.8399H120.457L117.621 32.8008ZM131.338 34.1075H127.465V36.1114H130.869V37.3946H127.465V39.5333H131.338V40.8399L125.965 40.8399V32.8008H131.338V34.1075ZM132.774 32.8008H135.738C136.231 32.8008 136.684 32.8672 137.098 33.0001C137.516 33.1329 137.875 33.3184 138.176 33.5567C138.481 33.795 138.738 34.0782 138.949 34.4063C139.164 34.7344 139.324 35.0958 139.43 35.4903C139.535 35.8848 139.588 36.3047 139.588 36.7501C139.588 37.3282 139.5 37.8653 139.324 38.3614C139.152 38.8536 138.904 39.2852 138.58 39.6563C138.256 40.0235 137.844 40.3126 137.344 40.5235C136.844 40.7344 136.283 40.8399 135.662 40.8399H132.774V32.8008ZM135.58 39.5333C135.994 39.5333 136.359 39.4649 136.676 39.3282C136.996 39.1915 137.256 39.0001 137.455 38.754C137.654 38.504 137.803 38.213 137.901 37.8809C138.002 37.5489 138.053 37.1797 138.053 36.7735C138.053 36.3907 138.004 36.0411 137.906 35.7247C137.809 35.4044 137.662 35.1231 137.467 34.8809C137.272 34.6348 137.014 34.4454 136.693 34.3126C136.373 34.1758 136.002 34.1075 135.58 34.1075H134.274V39.5333H135.58ZM144.844 39.8672H144.82L144.645 40.8399H143.526V32.1973H144.99V34.8399C144.99 35.2657 144.986 35.5938 144.979 35.8243H145.002C145.092 35.4962 145.299 35.211 145.623 34.9688C145.947 34.7227 146.359 34.5997 146.859 34.5997C147.602 34.5997 148.203 34.8712 148.664 35.4141C149.125 35.9532 149.356 36.7169 149.356 37.7051C149.356 38.6973 149.113 39.4883 148.629 40.0782C148.149 40.6641 147.512 40.9571 146.719 40.9571C146.238 40.9571 145.836 40.8497 145.512 40.6348C145.192 40.42 144.969 40.1641 144.844 39.8672ZM147.457 39.2579C147.731 38.8946 147.867 38.4024 147.867 37.7813C147.867 37.1602 147.734 36.6739 147.469 36.3223C147.207 35.9669 146.861 35.7891 146.432 35.7891C146.01 35.7891 145.664 35.959 145.395 36.2989C145.125 36.6387 144.99 37.1075 144.99 37.7051V38.0333C144.99 38.5723 145.119 39.002 145.377 39.3223C145.639 39.6387 145.969 39.7969 146.367 39.7969C146.824 39.7969 147.188 39.6172 147.457 39.2579ZM149.865 43.418V42.2227C150.143 42.3087 150.41 42.3516 150.668 42.3516C150.984 42.3516 151.221 42.2774 151.377 42.129C151.533 41.9844 151.682 41.7266 151.822 41.3555L151.975 40.9337L149.719 34.7227H151.283L152.42 38.1387C152.631 38.8028 152.748 39.1876 152.772 39.293H152.795C152.822 39.1719 152.93 38.7911 153.117 38.1505L154.195 34.7227H155.748L153.322 41.2383C153.178 41.6212 153.037 41.9415 152.901 42.1993C152.768 42.4571 152.606 42.6973 152.414 42.92C152.227 43.1426 152.008 43.3067 151.758 43.4122C151.512 43.5215 151.229 43.5762 150.908 43.5762C150.498 43.5762 150.151 43.5235 149.865 43.418Z" fill="white"/>
</svg>
