<svg width="384" height="19" viewBox="0 0 384 19" fill="none" xmlns="http://www.w3.org/2000/svg">
<line x1="54" y1="9" x2="174" y2="9" stroke="#161616" stroke-opacity="0.2"/>
<path d="M181.688 9.6875C181.688 8.60417 181.885 7.64062 182.281 6.79688C182.677 5.95312 183.253 5.29167 184.008 4.8125C184.768 4.32812 185.654 4.08594 186.664 4.08594C187.669 4.08594 188.547 4.33073 189.297 4.82031C190.047 5.30469 190.615 5.96094 191 6.78906C191.385 7.61198 191.578 8.54688 191.578 9.59375C191.578 10.6823 191.38 11.6484 190.984 12.4922C190.594 13.3359 190.021 13.9974 189.266 14.4766C188.51 14.9557 187.628 15.1953 186.617 15.1953C185.862 15.1953 185.172 15.0547 184.547 14.7734C183.927 14.487 183.409 14.0964 182.992 13.6016C182.576 13.1068 182.253 12.526 182.023 11.8594C181.799 11.1875 181.688 10.4635 181.688 9.6875ZM188.742 12.3828C189.258 11.6693 189.516 10.7552 189.516 9.64062C189.516 8.52604 189.26 7.61198 188.75 6.89844C188.245 6.1849 187.544 5.82812 186.648 5.82812C186.044 5.82812 185.521 5.9974 185.078 6.33594C184.635 6.67448 184.302 7.13021 184.078 7.70312C183.859 8.27083 183.75 8.91667 183.75 9.64062C183.75 10.7552 184.005 11.6693 184.516 12.3828C185.031 13.0911 185.737 13.4453 186.633 13.4453C187.529 13.4453 188.232 13.0911 188.742 12.3828ZM201.992 15H199.703L197.562 11.2109H195.5V15H193.5V4.28125H197.93C199.102 4.28125 200.029 4.57812 200.711 5.17188C201.393 5.76562 201.734 6.5625 201.734 7.5625C201.734 8.34375 201.542 9.02083 201.156 9.59375C200.776 10.1667 200.245 10.5885 199.562 10.8594L201.992 15ZM195.5 6.02344V9.53125H197.75C198.365 9.53125 198.841 9.36979 199.18 9.04688C199.518 8.71875 199.688 8.27083 199.688 7.70312C199.688 7.16146 199.518 6.7474 199.18 6.46094C198.846 6.16927 198.37 6.02344 197.75 6.02344H195.5Z" fill="#161616" fill-opacity="0.6"/>
<line x1="210" y1="9" x2="330" y2="9" stroke="#161616" stroke-opacity="0.2"/>
</svg>
