<svg width="140" height="45" viewBox="0 0 140 45" fill="none" xmlns="http://www.w3.org/2000/svg">
<g clip-path="url(#clip0_336_8441)">
<path d="M38.6785 30.371C37.2437 30.2804 35.8491 29.8009 34.6119 28.9725C33.3747 28.1443 32.331 26.9915 31.5687 25.611C32.4883 17.3043 35.1647 14.7221 38.7059 14.7221C42.2471 14.7221 44.9373 17.8332 44.9373 22.4999C44.9373 27.1665 42.1922 30.2776 38.7059 30.2776L38.6785 30.371ZM38.7059 9.52658C36.2068 9.41181 33.7517 10.2961 31.7696 12.025C29.7876 13.7538 28.4047 16.2171 27.8628 18.9843C26.6879 16.1946 25.799 13.2614 25.2138 10.2421H16.4706V22.531C16.4706 26.9954 14.6863 30.3087 11.1863 30.3087C7.68629 30.3087 5.69609 27.011 5.69609 22.531V10.2421H0.672568V22.531C0.558557 25.9364 1.59423 29.2629 3.56864 31.8332C4.53236 33.0224 5.70961 33.964 7.02121 34.5946C8.33279 35.2251 9.74832 35.53 11.1726 35.4887C17.2255 35.4887 21.4667 30.2154 21.4667 22.671V14.3644C22.4946 18.8342 24.194 23.0701 26.4902 26.8865L23.8 44.2776H28.9059L30.6765 31.9576C31.2626 32.5296 31.8867 33.0496 32.5432 33.5132C34.2488 34.7341 36.2094 35.4212 38.2255 35.5043H38.6922C40.1918 35.522 41.6793 35.1957 43.0647 34.5447C44.4503 33.8938 45.7052 32.932 46.7541 31.7171C47.803 30.5021 48.6242 29.0593 49.1683 27.4753C49.7123 25.8913 49.9678 24.1988 49.9196 22.4999C49.9546 20.8073 49.6891 19.124 49.1385 17.5499C48.5881 15.9759 47.7641 14.5434 46.7154 13.3375C45.6668 12.1316 44.4149 11.177 43.0343 10.5303C41.6536 9.88366 40.1724 9.55819 38.6785 9.57325" fill="#4EA52F"/>
<path d="M110.902 12.9488V10.3355H105.961V34.6489H110.971V25.1289C110.971 19.2644 111.437 15.0488 118.382 15.5933V10.0555C115.143 9.77548 112.618 10.5377 110.902 12.9644" fill="#4EA52F"/>
<path d="M76.1901 10.3199L72.5666 27.3376L68.696 10.3199H62.3274L58.4568 27.3376L54.8333 10.3199H49.7686L55.3274 34.6643H61.3391L65.5117 17.3821L69.6431 34.6643H75.6548L81.5293 10.3199H76.1901Z" fill="#4EA52F"/>
<path d="M92.5375 30.3867C88.9826 30.3867 86.3198 27.1978 86.3198 22.6089C86.3198 18.02 89.0649 14.8311 92.5375 14.8311C96.01 14.8311 98.8238 17.8333 98.8238 22.5C98.8238 27.1667 96.0787 30.2778 92.5924 30.2778L92.5375 30.3867ZM92.5924 9.51107C91.0904 9.48713 89.5998 9.8084 88.2104 10.4555C86.821 11.1025 85.5616 12.062 84.5086 13.2759C83.4555 14.4898 82.6303 15.933 82.0829 17.5183C81.5355 19.1038 81.2772 20.7984 81.3238 22.5C81.2711 24.2074 81.5224 25.9093 82.0625 27.5042C82.6026 29.0993 83.4206 30.5547 84.4677 31.7837C85.515 33.0126 86.7698 33.9901 88.1573 34.6576C89.5449 35.3252 91.0369 35.6692 92.5444 35.6692C94.0518 35.6692 95.5438 35.3252 96.9314 34.6576C98.3191 33.9901 99.5739 33.0126 100.621 31.7837C101.668 30.5547 102.486 29.0993 103.026 27.5042C103.566 25.9093 103.818 24.2074 103.765 22.5C103.802 20.808 103.538 19.1251 102.989 17.5512C102.44 15.9772 101.617 14.5445 100.57 13.3384C99.5223 12.1323 98.2713 11.1774 96.8913 10.5306C95.5114 9.88372 94.0307 9.55817 92.5375 9.57329" fill="#4EA52F"/>
<path d="M125.547 22.7022H126.7L133.686 34.6644H139.327L131.298 21.3956C133.229 20.493 134.88 18.9591 136.038 16.9893C137.197 15.0194 137.812 12.703 137.804 10.3356H132.822C132.822 15.5778 129.171 17.5689 125.547 17.5689V0.722229H120.537V34.6644H125.533L125.547 22.7022Z" fill="#4EA52F"/>
</g>
<defs>
<clipPath id="clip0_336_8441">
<rect width="140" height="43.5556" fill="white" transform="translate(0 0.722229)"/>
</clipPath>
</defs>
</svg>
