<svg width="15" height="57" viewBox="0 0 15 57" fill="none" xmlns="http://www.w3.org/2000/svg">
<path d="M10.1322 53.4739C10.0878 53.2519 10.1322 53.1631 10.0878 53.0744C8.00132 49.1677 6.62512 44.9948 5.11575 40.8662C3.56198 36.6044 2.00821 32.3426 0.942763 27.9033C0.410042 25.4172 -0.0782858 22.9312 0.010501 20.4008C0.0548945 19.6461 0.143681 18.847 0.410042 18.0923C0.89837 16.583 2.23017 15.9614 3.73955 16.5386C4.36106 16.7605 4.93817 17.1157 5.47089 17.5596C6.31437 18.2255 7.06906 18.9802 7.86814 19.6905C8.26768 20.0456 8.66722 20.4008 9.11116 20.7115C9.99902 21.2887 10.7093 21.1111 11.2864 20.2676C11.8635 19.4241 12.0855 18.4475 12.1743 17.4708C12.2631 16.0502 11.9967 14.7184 11.5972 13.3866C10.7093 10.4567 9.4663 7.65987 7.82375 5.08505C7.15784 4.01961 6.53634 2.95417 5.91483 1.88872C5.69286 1.53358 5.55968 1.08964 5.51529 0.6901C5.47089 0.468133 5.69286 0.0685916 5.87043 0.0241982C6.0924 -0.0645887 6.44755 0.112985 6.71391 0.201772C6.8027 0.246165 6.84709 0.379346 6.89148 0.468133C8.00132 2.11069 9.15555 3.79764 10.221 5.57338C12.0411 8.54774 13.4173 11.7441 14.1276 15.2068C14.4384 16.8493 14.4384 18.4919 13.8169 20.0456C13.5505 20.7559 13.151 21.4662 12.6626 22.0433C11.5084 23.3751 9.82145 23.6415 8.31207 22.7536C7.55739 22.3097 6.89148 21.6882 6.22558 21.1111C5.38211 20.4452 4.58302 19.7349 3.78394 19.069C3.56198 18.8914 3.20683 18.8026 2.94047 18.6694C2.49653 19.1134 2.58532 19.6461 2.54093 20.1344C2.49653 22.8424 2.94047 25.506 3.73955 28.1252C5.38211 33.5412 7.11345 38.9128 8.8004 44.2845C9.4663 46.3709 10.0878 48.4574 10.7981 50.7215C10.9313 50.4108 11.0201 50.2332 11.1089 50.0112C11.3752 49.1677 11.5972 48.3243 11.9079 47.4808C12.0411 47.1256 12.2187 46.7705 12.4851 46.4597C12.7514 46.1046 13.1954 45.9714 13.5505 46.2378C13.8169 46.4153 13.9944 46.7705 14.0832 47.0812C14.172 47.392 14.0832 47.7028 13.9944 48.0135C13.3729 50.4551 12.7958 52.8968 12.1299 55.3384C11.7748 56.5814 10.7981 57.0254 9.64388 56.4039C9.02237 56.0931 8.40086 55.6492 7.95693 55.1165C6.22558 53.2519 4.53863 51.2986 2.89607 49.3453C2.58532 48.9902 2.31896 48.5018 2.14139 48.0579C1.96381 47.5252 2.31896 47.17 2.80729 47.4364C3.47319 47.7915 4.18348 48.1911 4.7606 48.7238C6.0924 49.9224 7.33542 51.1654 8.62283 52.3641C8.97797 52.6748 9.28873 52.9856 9.64388 53.2963C9.77706 53.2963 9.91024 53.3407 10.1322 53.4739Z" fill="white"/>
</svg>
