<svg width="304" height="62" viewBox="0 0 304 62" fill="none" xmlns="http://www.w3.org/2000/svg">
<path fill-rule="evenodd" clip-rule="evenodd" d="M27.5014 0C28.2227 0.0982047 28.8452 0.407336 29.3679 0.883842C29.5836 1.08025 29.667 1.45542 29.4157 1.65325C28.5945 2.29998 28.7744 3.18582 28.827 4.00874C29.1626 9.24377 30.3462 14.3131 31.9106 19.3011C32.4814 21.1214 33.1224 22.9198 33.7207 24.7314C33.8019 24.9773 33.9778 25.2141 33.6738 25.4956C33.3706 25.7766 33.1671 25.4763 32.9431 25.4908C31.2423 25.6015 30.8617 24.2802 30.3004 23.1453C27.4613 17.4059 26.0739 11.3049 25.7747 4.935C25.72 3.76935 25.7804 2.6057 26.102 1.47791C26.3073 0.75945 26.6574 0.132932 27.5014 0Z" fill="black"/>
<path fill-rule="evenodd" clip-rule="evenodd" d="M13.3805 10.8728C13.5866 10.3593 13.877 10.1546 14.3694 10.3248C14.8533 10.4919 15.0987 10.7347 15.124 11.3097C15.1784 12.5397 15.8527 13.5647 16.4497 14.5892C18.5507 18.1971 20.9133 21.6383 23.2246 25.1119C23.4065 25.3854 23.6101 25.6553 23.4265 26.0387C23.2036 26.5055 22.8808 26.0791 22.6198 26.1671C21.7604 26.4566 21.3123 25.8628 20.8654 25.3157C18.5455 22.4746 16.1565 19.683 14.4244 16.4164C13.8562 15.3447 13.3188 14.261 12.8918 13.1215C12.7031 12.6174 13.0415 12.0507 12.5832 11.5559C12.3965 11.3547 12.4791 10.86 12.7301 10.544C12.8605 10.3798 12.9926 10.1668 13.2191 10.2346C13.485 10.314 13.3273 10.5861 13.3805 10.8728Z" fill="black"/>
<path fill-rule="evenodd" clip-rule="evenodd" d="M1.7814 19.0497C2.77284 19.0853 3.35893 19.4639 3.91429 20.1504C4.98401 21.4732 6.47957 22.2993 7.9367 23.137C9.86265 24.2449 11.8538 25.2204 13.9252 26.0336C14.4501 26.2394 14.9403 26.5417 15.4276 26.8312C15.6132 26.9414 15.8289 27.0991 15.6601 27.3968C15.5229 27.6396 15.3371 27.6188 15.0831 27.6342C13.1028 27.754 11.455 26.7307 9.73313 26.0444C7.3859 25.1088 5.13886 23.9397 3.1315 22.367C2.39482 21.7897 1.74041 21.1339 1.18562 20.381C0.947937 20.0582 0.780278 19.7217 0.986935 19.3056C1.2138 18.8493 1.56535 18.9802 1.7814 19.0497Z" fill="black"/>
<rect x="25.1066" y="31.0315" width="278" height="30.3201" rx="8" fill="#161616"/>
<path d="M49.6671 49.8928C49.6749 49.1428 49.8937 48.4846 50.3234 47.9182C50.757 47.3518 51.4698 46.8049 52.462 46.2776C52.8761 46.0315 53.1827 45.8303 53.382 45.6741C53.5851 45.5178 53.7413 45.342 53.8507 45.1467C53.964 44.9475 54.0206 44.7131 54.0206 44.4436C54.0206 44.0725 53.9093 43.7815 53.6866 43.5706C53.464 43.3596 53.1515 43.2542 52.7491 43.2542C52.2921 43.2542 51.9366 43.3752 51.6827 43.6174C51.4327 43.8596 51.3077 44.2112 51.3077 44.6721C51.3077 44.7932 51.3116 44.885 51.3195 44.9475H49.8195C49.8116 44.885 49.8077 44.7854 49.8077 44.6487C49.8077 43.8284 50.0734 43.1838 50.6046 42.7151C51.1359 42.2424 51.8546 42.0061 52.7609 42.0061C53.6593 42.0061 54.3488 42.2151 54.8292 42.6331C55.3136 43.051 55.5558 43.6233 55.5558 44.3499C55.5558 44.7639 55.4777 45.1272 55.3214 45.4397C55.1691 45.7483 54.9327 46.0354 54.6124 46.301C54.296 46.5627 53.8507 46.8518 53.2765 47.1682C52.589 47.5627 52.1066 47.8733 51.8292 48.0999C51.5519 48.3264 51.3859 48.5803 51.3312 48.8616H55.5558V50.1917H49.6671V49.8928ZM56.6046 46.1956C56.6046 45.387 56.7335 44.6682 56.9913 44.0393C57.2491 43.4065 57.6281 42.9104 58.1281 42.551C58.6281 42.1877 59.212 42.0061 59.88 42.0061C60.5597 42.0061 61.1456 42.1819 61.6378 42.5334C62.1339 42.885 62.507 43.3694 62.757 43.9866C63.007 44.6038 63.132 45.3206 63.132 46.137C63.132 46.9456 63.0031 47.6663 62.7452 48.2991C62.4913 48.928 62.1124 49.426 61.6085 49.7932C61.1085 50.1565 60.5206 50.3381 59.8448 50.3381C59.173 50.3381 58.5909 50.1624 58.0988 49.8108C57.6066 49.4553 57.2335 48.967 56.9796 48.3459C56.7296 47.7249 56.6046 47.0081 56.6046 46.1956ZM61.5851 46.1487C61.5851 45.5862 61.5245 45.094 61.4034 44.6721C61.2823 44.2502 61.0909 43.9124 60.8292 43.6584C60.5675 43.4045 60.2472 43.2776 59.8683 43.2776C59.3136 43.2776 58.8878 43.5471 58.5909 44.0862C58.298 44.6213 58.1515 45.3206 58.1515 46.1838C58.1515 46.7424 58.212 47.2346 58.3331 47.6604C58.4581 48.0862 58.6515 48.426 58.9132 48.6799C59.1749 48.9338 59.4933 49.0608 59.8683 49.0608C60.4269 49.0608 60.8527 48.7913 61.1456 48.2522C61.4386 47.7131 61.5851 47.012 61.5851 46.1487ZM64.1632 46.1956C64.1632 45.387 64.2921 44.6682 64.5499 44.0393C64.8077 43.4065 65.1866 42.9104 65.6866 42.551C66.1866 42.1877 66.7706 42.0061 67.4386 42.0061C68.1183 42.0061 68.7042 42.1819 69.1964 42.5334C69.6925 42.885 70.0656 43.3694 70.3156 43.9866C70.5656 44.6038 70.6906 45.3206 70.6906 46.137C70.6906 46.9456 70.5616 47.6663 70.3038 48.2991C70.0499 48.928 69.671 49.426 69.1671 49.7932C68.6671 50.1565 68.0792 50.3381 67.4034 50.3381C66.7316 50.3381 66.1495 50.1624 65.6573 49.8108C65.1652 49.4553 64.7921 48.967 64.5382 48.3459C64.2882 47.7249 64.1632 47.0081 64.1632 46.1956ZM69.1437 46.1487C69.1437 45.5862 69.0831 45.094 68.962 44.6721C68.8409 44.2502 68.6495 43.9124 68.3878 43.6584C68.1261 43.4045 67.8058 43.2776 67.4269 43.2776C66.8722 43.2776 66.4464 43.5471 66.1495 44.0862C65.8566 44.6213 65.7101 45.3206 65.7101 46.1838C65.7101 46.7424 65.7706 47.2346 65.8917 47.6604C66.0167 48.0862 66.2101 48.426 66.4718 48.6799C66.7335 48.9338 67.0519 49.0608 67.4269 49.0608C67.9855 49.0608 68.4113 48.7913 68.7042 48.2522C68.9972 47.7131 69.1437 47.012 69.1437 46.1487ZM77.2531 50.1917L74.9034 46.6174L73.632 48.1057V50.1917H72.132V42.1526H73.632V46.1721H73.6788L74.3644 45.3342L77.0363 42.1526H78.7648L75.9581 45.5452L79.0402 50.1917H77.2531ZM85.8663 43.9514C86.6124 43.9514 87.214 44.2249 87.671 44.7717C88.132 45.3147 88.3624 46.0862 88.3624 47.0862C88.3624 48.0667 88.1222 48.8499 87.6417 49.4358C87.1652 50.0178 86.5343 50.3088 85.7491 50.3088C85.2726 50.3088 84.8859 50.2053 84.589 49.9983C84.2921 49.7913 84.1105 49.5725 84.0441 49.342H84.0206V52.7698H82.5558V44.0745H83.9972V45.1643H84.0323C84.1378 44.8323 84.3448 44.5471 84.6534 44.3088C84.9659 44.0706 85.3702 43.9514 85.8663 43.9514ZM85.3976 49.1487C85.8546 49.1487 86.2179 48.969 86.4874 48.6096C86.7609 48.2463 86.8976 47.7581 86.8976 47.1448C86.8976 46.512 86.7667 46.0198 86.505 45.6682C86.2433 45.3167 85.8956 45.1409 85.462 45.1409C85.0402 45.1409 84.6945 45.3108 84.4249 45.6506C84.1554 45.9866 84.0206 46.4553 84.0206 47.0569V47.3733C84.0206 47.928 84.1495 48.3635 84.4073 48.6799C84.6652 48.9924 84.9952 49.1487 85.3976 49.1487ZM94.8429 46.9397C94.8429 47.0413 94.8351 47.2131 94.8195 47.4553H90.7999C90.8116 47.9944 90.9406 48.4045 91.1866 48.6858C91.4366 48.9631 91.7706 49.1018 92.1886 49.1018C92.5714 49.1018 92.8644 49.0061 93.0675 48.8147C93.2745 48.6233 93.3976 48.3792 93.4366 48.0823H94.7843C94.7648 48.3792 94.6925 48.6624 94.5675 48.9319C94.4425 49.1975 94.2706 49.4338 94.0519 49.6409C93.837 49.844 93.5675 50.0061 93.2433 50.1272C92.9191 50.2483 92.5636 50.3088 92.1769 50.3088C91.298 50.3088 90.6007 50.0354 90.0851 49.4885C89.5695 48.9377 89.3116 48.1604 89.3116 47.1565C89.3116 46.6565 89.3839 46.2034 89.5284 45.7971C89.6769 45.387 89.88 45.0491 90.1378 44.7834C90.3956 44.5178 90.6945 44.3127 91.0343 44.1682C91.3781 44.0237 91.7472 43.9514 92.1417 43.9514C92.962 43.9514 93.6163 44.217 94.1046 44.7483C94.5968 45.2756 94.8429 46.0061 94.8429 46.9397ZM92.1417 45.094C91.7902 45.094 91.4952 45.2151 91.257 45.4573C91.0187 45.6995 90.8741 46.053 90.8234 46.5178H93.4366C93.4015 46.0413 93.2687 45.6858 93.0382 45.4514C92.8116 45.2131 92.5128 45.094 92.1417 45.094ZM95.7921 47.1565C95.7921 46.6565 95.8683 46.2034 96.0206 45.7971C96.173 45.387 96.382 45.0491 96.6476 44.7834C96.9132 44.5178 97.2238 44.3127 97.5792 44.1682C97.9347 44.0237 98.3195 43.9514 98.7335 43.9514C99.5968 43.9514 100.298 44.2288 100.837 44.7834C101.376 45.3381 101.646 46.1135 101.646 47.1096C101.646 47.6057 101.569 48.0588 101.417 48.469C101.265 48.8752 101.056 49.2112 100.79 49.4768C100.525 49.7424 100.214 49.9475 99.8585 50.092C99.507 50.2366 99.1281 50.3088 98.7218 50.3088C97.8546 50.3088 97.1495 50.0334 96.6066 49.4827C96.0636 48.928 95.7921 48.1526 95.7921 47.1565ZM100.157 47.1331C100.157 46.5081 100.026 46.0217 99.7648 45.6741C99.507 45.3264 99.1632 45.1526 98.7335 45.1526C98.2999 45.1526 97.9484 45.3284 97.6788 45.6799C97.4132 46.0315 97.2804 46.5159 97.2804 47.1331C97.2804 47.7542 97.4132 48.2405 97.6788 48.592C97.9445 48.9397 98.2921 49.1135 98.7218 49.1135C99.1554 49.1135 99.5031 48.9397 99.7648 48.592C100.026 48.2405 100.157 47.7542 100.157 47.1331ZM106.21 43.9514C106.956 43.9514 107.558 44.2249 108.015 44.7717C108.476 45.3147 108.706 46.0862 108.706 47.0862C108.706 48.0667 108.466 48.8499 107.985 49.4358C107.509 50.0178 106.878 50.3088 106.093 50.3088C105.616 50.3088 105.23 50.2053 104.933 49.9983C104.636 49.7913 104.454 49.5725 104.388 49.342H104.364V52.7698H102.9V44.0745H104.341V45.1643H104.376C104.482 44.8323 104.689 44.5471 104.997 44.3088C105.31 44.0706 105.714 43.9514 106.21 43.9514ZM105.741 49.1487C106.198 49.1487 106.562 48.969 106.831 48.6096C107.105 48.2463 107.241 47.7581 107.241 47.1448C107.241 46.512 107.11 46.0198 106.849 45.6682C106.587 45.3167 106.239 45.1409 105.806 45.1409C105.384 45.1409 105.038 45.3108 104.769 45.6506C104.499 45.9866 104.364 46.4553 104.364 47.0569V47.3733C104.364 47.928 104.493 48.3635 104.751 48.6799C105.009 48.9924 105.339 49.1487 105.741 49.1487ZM109.943 41.5491H111.407V50.1917H109.943V41.5491ZM118.175 46.9397C118.175 47.0413 118.167 47.2131 118.151 47.4553H114.132C114.144 47.9944 114.273 48.4045 114.519 48.6858C114.769 48.9631 115.103 49.1018 115.521 49.1018C115.903 49.1018 116.196 49.0061 116.4 48.8147C116.607 48.6233 116.73 48.3792 116.769 48.0823H118.116C118.097 48.3792 118.025 48.6624 117.9 48.9319C117.775 49.1975 117.603 49.4338 117.384 49.6409C117.169 49.844 116.9 50.0061 116.575 50.1272C116.251 50.2483 115.896 50.3088 115.509 50.3088C114.63 50.3088 113.933 50.0354 113.417 49.4885C112.901 48.9377 112.644 48.1604 112.644 47.1565C112.644 46.6565 112.716 46.2034 112.86 45.7971C113.009 45.387 113.212 45.0491 113.47 44.7834C113.728 44.5178 114.026 44.3127 114.366 44.1682C114.71 44.0237 115.079 43.9514 115.474 43.9514C116.294 43.9514 116.948 44.217 117.437 44.7483C117.929 45.2756 118.175 46.0061 118.175 46.9397ZM115.474 45.094C115.122 45.094 114.827 45.2151 114.589 45.4573C114.351 45.6995 114.206 46.053 114.155 46.5178H116.769C116.734 46.0413 116.601 45.6858 116.37 45.4514C116.144 45.2131 115.845 45.094 115.474 45.094ZM128.874 43.9514C129.48 43.9514 129.941 44.1409 130.257 44.5198C130.577 44.8948 130.737 45.4084 130.737 46.0608V50.1917H129.284V46.4006C129.284 45.6077 128.976 45.2112 128.359 45.2112C128.003 45.2112 127.708 45.3752 127.474 45.7034C127.239 46.0315 127.122 46.4553 127.122 46.9749V50.1917H125.675V46.4006C125.675 46.0139 125.597 45.719 125.441 45.5159C125.284 45.3127 125.054 45.2112 124.749 45.2112C124.394 45.2112 124.099 45.3752 123.864 45.7034C123.63 46.0315 123.513 46.4514 123.513 46.9631V50.1917H122.048V44.0745H123.489V45.1877H123.525C123.634 44.8479 123.839 44.5569 124.14 44.3147C124.444 44.0725 124.823 43.9514 125.276 43.9514C125.737 43.9514 126.112 44.0627 126.401 44.2854C126.694 44.5081 126.896 44.8245 127.005 45.2346H127.04C127.165 44.8674 127.384 44.5627 127.696 44.3206C128.009 44.0745 128.401 43.9514 128.874 43.9514ZM131.827 48.6448C131.827 48.3245 131.892 48.0452 132.021 47.8069C132.153 47.5686 132.325 47.3772 132.536 47.2327C132.751 47.0881 133.023 46.9729 133.351 46.887C133.679 46.7971 134.013 46.7346 134.353 46.6995C134.696 46.6643 135.089 46.6448 135.53 46.6409V46.1956C135.53 45.8167 135.446 45.5354 135.278 45.3518C135.11 45.1643 134.851 45.0706 134.499 45.0706C134.183 45.0706 133.925 45.1526 133.726 45.3167C133.53 45.4807 133.433 45.7092 133.433 46.0022C133.433 46.1077 133.441 46.1995 133.456 46.2776H132.091C132.083 46.2073 132.079 46.1116 132.079 45.9905C132.079 45.385 132.308 44.8948 132.765 44.5198C133.226 44.1409 133.821 43.9514 134.552 43.9514C135.337 43.9514 135.935 44.1487 136.345 44.5432C136.755 44.9377 136.96 45.5002 136.96 46.2307V48.3049C136.96 48.6135 136.984 48.8264 137.03 48.9436C137.081 49.0569 137.171 49.1135 137.3 49.1135C137.394 49.1135 137.478 49.0881 137.552 49.0374V50.1096C137.489 50.1526 137.38 50.1917 137.224 50.2268C137.068 50.2659 136.915 50.2854 136.767 50.2854C136.341 50.2854 136.046 50.2112 135.882 50.0627C135.718 49.9104 135.618 49.6526 135.583 49.2893H135.56C135.396 49.6018 135.155 49.8499 134.839 50.0334C134.526 50.217 134.146 50.3088 133.696 50.3088C133.099 50.3088 132.638 50.1643 132.314 49.8752C131.989 49.5862 131.827 49.176 131.827 48.6448ZM135.53 48.2229V47.5491C134.757 47.5686 134.189 47.6487 133.825 47.7893C133.466 47.926 133.286 48.1624 133.286 48.4983C133.286 48.9788 133.583 49.219 134.177 49.219C134.474 49.219 134.743 49.1331 134.985 48.9612C135.232 48.7854 135.413 48.5393 135.53 48.2229ZM142.626 41.5491H144.079V50.1917H142.65V49.1018H142.614C142.528 49.426 142.329 49.7092 142.017 49.9514C141.704 50.1897 141.292 50.3088 140.78 50.3088C140.425 50.3088 140.095 50.2405 139.79 50.1038C139.485 49.967 139.218 49.7698 138.987 49.512C138.761 49.2542 138.583 48.926 138.454 48.5276C138.325 48.1252 138.261 47.676 138.261 47.1799C138.261 46.1877 138.503 45.4026 138.987 44.8245C139.472 44.2424 140.114 43.9514 140.915 43.9514C141.384 43.9514 141.757 44.051 142.034 44.2502C142.316 44.4456 142.505 44.6702 142.603 44.9241H142.626V41.5491ZM142.626 47.2151V46.9163C142.626 46.3616 142.495 45.9241 142.234 45.6038C141.972 45.2795 141.64 45.1174 141.237 45.1174C140.78 45.1174 140.417 45.2991 140.148 45.6624C139.882 46.0256 139.749 46.5159 139.749 47.1331C139.749 47.7659 139.88 48.2581 140.142 48.6096C140.407 48.9612 140.757 49.137 141.191 49.137C141.609 49.137 141.952 48.967 142.222 48.6272C142.491 48.2834 142.626 47.8127 142.626 47.2151ZM150.859 46.9397C150.859 47.0413 150.851 47.2131 150.835 47.4553H146.816C146.827 47.9944 146.956 48.4045 147.202 48.6858C147.452 48.9631 147.786 49.1018 148.204 49.1018C148.587 49.1018 148.88 49.0061 149.083 48.8147C149.29 48.6233 149.413 48.3792 149.452 48.0823H150.8C150.78 48.3792 150.708 48.6624 150.583 48.9319C150.458 49.1975 150.286 49.4338 150.068 49.6409C149.853 49.844 149.583 50.0061 149.259 50.1272C148.935 50.2483 148.579 50.3088 148.193 50.3088C147.314 50.3088 146.616 50.0354 146.101 49.4885C145.585 48.9377 145.327 48.1604 145.327 47.1565C145.327 46.6565 145.4 46.2034 145.544 45.7971C145.693 45.387 145.896 45.0491 146.153 44.7834C146.411 44.5178 146.71 44.3127 147.05 44.1682C147.394 44.0237 147.763 43.9514 148.157 43.9514C148.978 43.9514 149.632 44.217 150.12 44.7483C150.612 45.2756 150.859 46.0061 150.859 46.9397ZM148.157 45.094C147.806 45.094 147.511 45.2151 147.273 45.4573C147.034 45.6995 146.89 46.053 146.839 46.5178H149.452C149.417 46.0413 149.284 45.6858 149.054 45.4514C148.827 45.2131 148.528 45.094 148.157 45.094ZM154.65 48.2229V44.0745H156.103V47.8889C156.103 48.6702 156.421 49.0608 157.058 49.0608C157.433 49.0608 157.743 48.8928 157.989 48.5569C158.235 48.2209 158.359 47.7893 158.359 47.262V44.0745H159.818V50.1917H158.382V49.0491H158.347C158.206 49.4163 157.993 49.719 157.708 49.9573C157.423 50.1917 157.064 50.3088 156.63 50.3088C155.31 50.3088 154.65 49.6135 154.65 48.2229ZM160.984 48.3049H162.396C162.419 48.9221 162.796 49.2307 163.526 49.2307C163.866 49.2307 164.13 49.1682 164.318 49.0432C164.509 48.9182 164.605 48.7561 164.605 48.5569C164.605 48.4553 164.589 48.3674 164.558 48.2932C164.526 48.219 164.489 48.1584 164.446 48.1116C164.403 48.0647 164.325 48.0178 164.212 47.9709C164.103 47.9202 164.005 47.8811 163.919 47.8538C163.833 47.8264 163.693 47.7854 163.497 47.7307C163.482 47.7268 163.466 47.7229 163.45 47.719C163.439 47.7151 163.427 47.7112 163.415 47.7073C162.708 47.5198 162.228 47.3635 161.974 47.2385C161.528 47.0198 161.251 46.7112 161.142 46.3127C161.099 46.1565 161.077 45.9807 161.077 45.7854C161.077 45.2307 161.304 44.7874 161.757 44.4553C162.21 44.1194 162.792 43.9514 163.503 43.9514C164.288 43.9514 164.894 44.1252 165.319 44.4729C165.749 44.8167 165.95 45.2991 165.923 45.9202H164.558C164.558 45.6272 164.468 45.4045 164.288 45.2522C164.112 45.0959 163.859 45.0178 163.526 45.0178C163.226 45.0178 162.98 45.0784 162.788 45.1995C162.601 45.3206 162.507 45.4768 162.507 45.6682C162.507 45.9065 162.587 46.0764 162.747 46.178C162.911 46.2795 163.21 46.385 163.644 46.4944C163.98 46.5725 164.251 46.6428 164.458 46.7053C164.669 46.7678 164.884 46.8518 165.103 46.9573C165.325 47.0588 165.495 47.1702 165.612 47.2913C165.734 47.4124 165.831 47.5667 165.905 47.7542C165.984 47.9377 166.023 48.1506 166.023 48.3928C166.023 48.9749 165.79 49.4397 165.325 49.7874C164.864 50.135 164.249 50.3088 163.48 50.3088C162.698 50.3088 162.087 50.1389 161.646 49.7991C161.204 49.4592 160.984 48.9612 160.984 48.3049ZM172.444 46.9397C172.444 47.0413 172.437 47.2131 172.421 47.4553H168.401C168.413 47.9944 168.542 48.4045 168.788 48.6858C169.038 48.9631 169.372 49.1018 169.79 49.1018C170.173 49.1018 170.466 49.0061 170.669 48.8147C170.876 48.6233 170.999 48.3792 171.038 48.0823H172.386C172.366 48.3792 172.294 48.6624 172.169 48.9319C172.044 49.1975 171.872 49.4338 171.653 49.6409C171.439 49.844 171.169 50.0061 170.845 50.1272C170.521 50.2483 170.165 50.3088 169.778 50.3088C168.9 50.3088 168.202 50.0354 167.687 49.4885C167.171 48.9377 166.913 48.1604 166.913 47.1565C166.913 46.6565 166.985 46.2034 167.13 45.7971C167.278 45.387 167.482 45.0491 167.739 44.7834C167.997 44.5178 168.296 44.3127 168.636 44.1682C168.98 44.0237 169.349 43.9514 169.743 43.9514C170.564 43.9514 171.218 44.217 171.706 44.7483C172.198 45.2756 172.444 46.0061 172.444 46.9397ZM169.743 45.094C169.392 45.094 169.097 45.2151 168.859 45.4573C168.62 45.6995 168.476 46.053 168.425 46.5178H171.038C171.003 46.0413 170.87 45.6858 170.64 45.4514C170.413 45.2131 170.114 45.094 169.743 45.094ZM176.03 47.1565C176.03 46.6565 176.107 46.2034 176.259 45.7971C176.411 45.387 176.62 45.0491 176.886 44.7834C177.151 44.5178 177.462 44.3127 177.818 44.1682C178.173 44.0237 178.558 43.9514 178.972 43.9514C179.835 43.9514 180.536 44.2288 181.075 44.7834C181.614 45.3381 181.884 46.1135 181.884 47.1096C181.884 47.6057 181.808 48.0588 181.655 48.469C181.503 48.8752 181.294 49.2112 181.028 49.4768C180.763 49.7424 180.452 49.9475 180.097 50.092C179.745 50.2366 179.366 50.3088 178.96 50.3088C178.093 50.3088 177.388 50.0334 176.845 49.4827C176.302 48.928 176.03 48.1526 176.03 47.1565ZM180.396 47.1331C180.396 46.5081 180.265 46.0217 180.003 45.6741C179.745 45.3264 179.401 45.1526 178.972 45.1526C178.538 45.1526 178.187 45.3284 177.917 45.6799C177.651 46.0315 177.519 46.5159 177.519 47.1331C177.519 47.7542 177.651 48.2405 177.917 48.592C178.183 48.9397 178.53 49.1135 178.96 49.1135C179.394 49.1135 179.741 48.9397 180.003 48.592C180.265 48.2405 180.396 47.7542 180.396 47.1331ZM183.413 45.2698H182.599V44.0745H183.413V43.4241C183.413 42.7639 183.581 42.2678 183.917 41.9358C184.257 41.5999 184.753 41.4319 185.405 41.4319C185.726 41.4319 186.026 41.4631 186.308 41.5256V42.7268C186.077 42.6643 185.868 42.6331 185.681 42.6331C185.423 42.6331 185.222 42.6975 185.077 42.8264C184.937 42.9553 184.866 43.1741 184.866 43.4827V44.0745H186.138V45.2698H184.866V50.1917H183.413V45.2698ZM189.46 46.2073C189.46 45.4065 189.607 44.6897 189.9 44.0569C190.196 43.4241 190.628 42.9241 191.194 42.5569C191.761 42.1897 192.415 42.0061 193.157 42.0061C193.677 42.0061 194.151 42.094 194.581 42.2698C195.011 42.4417 195.364 42.676 195.642 42.9729C195.923 43.2698 196.142 43.6096 196.298 43.9924C196.458 44.3713 196.548 44.7737 196.568 45.1995H195.068C195.048 44.9573 194.995 44.7268 194.909 44.5081C194.823 44.2893 194.704 44.0901 194.552 43.9104C194.403 43.7268 194.21 43.5823 193.972 43.4768C193.734 43.3674 193.466 43.3127 193.169 43.3127C192.728 43.3127 192.341 43.4397 192.009 43.6936C191.681 43.9475 191.431 44.2932 191.259 44.7307C191.091 45.1643 191.007 45.6565 191.007 46.2073C191.007 47.0588 191.194 47.7444 191.569 48.2639C191.948 48.7795 192.474 49.0374 193.146 49.0374C193.712 49.0374 194.151 48.8635 194.464 48.5159C194.78 48.1643 194.985 47.6995 195.079 47.1213H196.568C196.528 47.5784 196.425 48.0002 196.257 48.387C196.093 48.7698 195.87 49.1077 195.589 49.4006C195.312 49.6936 194.964 49.9241 194.546 50.092C194.132 50.2561 193.669 50.3381 193.157 50.3381C192.364 50.3381 191.687 50.1643 191.124 49.8167C190.566 49.4651 190.148 48.9827 189.87 48.3694C189.597 47.7522 189.46 47.0315 189.46 46.2073ZM197.558 47.1565C197.558 46.6565 197.634 46.2034 197.786 45.7971C197.939 45.387 198.148 45.0491 198.413 44.7834C198.679 44.5178 198.989 44.3127 199.345 44.1682C199.7 44.0237 200.085 43.9514 200.499 43.9514C201.362 43.9514 202.064 44.2288 202.603 44.7834C203.142 45.3381 203.411 46.1135 203.411 47.1096C203.411 47.6057 203.335 48.0588 203.183 48.469C203.03 48.8752 202.821 49.2112 202.556 49.4768C202.29 49.7424 201.98 49.9475 201.624 50.092C201.273 50.2366 200.894 50.3088 200.487 50.3088C199.62 50.3088 198.915 50.0334 198.372 49.4827C197.829 48.928 197.558 48.1526 197.558 47.1565ZM201.923 47.1331C201.923 46.5081 201.792 46.0217 201.53 45.6741C201.273 45.3264 200.929 45.1526 200.499 45.1526C200.066 45.1526 199.714 45.3284 199.444 45.6799C199.179 46.0315 199.046 46.5159 199.046 47.1331C199.046 47.7542 199.179 48.2405 199.444 48.592C199.71 48.9397 200.058 49.1135 200.487 49.1135C200.921 49.1135 201.269 48.9397 201.53 48.592C201.792 48.2405 201.923 47.7542 201.923 47.1331ZM211.491 43.9514C212.097 43.9514 212.558 44.1409 212.874 44.5198C213.194 44.8948 213.355 45.4084 213.355 46.0608V50.1917H211.901V46.4006C211.901 45.6077 211.593 45.2112 210.976 45.2112C210.62 45.2112 210.325 45.3752 210.091 45.7034C209.857 46.0315 209.739 46.4553 209.739 46.9749V50.1917H208.292V46.4006C208.292 46.0139 208.214 45.719 208.058 45.5159C207.901 45.3127 207.671 45.2112 207.366 45.2112C207.011 45.2112 206.716 45.3752 206.482 45.7034C206.247 46.0315 206.13 46.4514 206.13 46.9631V50.1917H204.665V44.0745H206.107V45.1877H206.142C206.251 44.8479 206.456 44.5569 206.757 44.3147C207.062 44.0725 207.441 43.9514 207.894 43.9514C208.355 43.9514 208.73 44.0627 209.019 44.2854C209.312 44.5081 209.513 44.8245 209.622 45.2346H209.657C209.782 44.8674 210.001 44.5627 210.314 44.3206C210.626 44.0745 211.019 43.9514 211.491 43.9514ZM218.112 43.9514C218.859 43.9514 219.46 44.2249 219.917 44.7717C220.378 45.3147 220.609 46.0862 220.609 47.0862C220.609 48.0667 220.368 48.8499 219.888 49.4358C219.411 50.0178 218.78 50.3088 217.995 50.3088C217.519 50.3088 217.132 50.2053 216.835 49.9983C216.538 49.7913 216.357 49.5725 216.29 49.342H216.267V52.7698H214.802V44.0745H216.243V45.1643H216.278C216.384 44.8323 216.591 44.5471 216.9 44.3088C217.212 44.0706 217.616 43.9514 218.112 43.9514ZM217.644 49.1487C218.101 49.1487 218.464 48.969 218.734 48.6096C219.007 48.2463 219.144 47.7581 219.144 47.1448C219.144 46.512 219.013 46.0198 218.751 45.6682C218.489 45.3167 218.142 45.1409 217.708 45.1409C217.286 45.1409 216.941 45.3108 216.671 45.6506C216.401 45.9866 216.267 46.4553 216.267 47.0569V47.3733C216.267 47.928 216.396 48.3635 216.653 48.6799C216.911 48.9924 217.241 49.1487 217.644 49.1487ZM221.487 48.6448C221.487 48.3245 221.552 48.0452 221.681 47.8069C221.814 47.5686 221.985 47.3772 222.196 47.2327C222.411 47.0881 222.683 46.9729 223.011 46.887C223.339 46.7971 223.673 46.7346 224.013 46.6995C224.357 46.6643 224.749 46.6448 225.191 46.6409V46.1956C225.191 45.8167 225.107 45.5354 224.939 45.3518C224.771 45.1643 224.511 45.0706 224.159 45.0706C223.843 45.0706 223.585 45.1526 223.386 45.3167C223.191 45.4807 223.093 45.7092 223.093 46.0022C223.093 46.1077 223.101 46.1995 223.116 46.2776H221.751C221.743 46.2073 221.739 46.1116 221.739 45.9905C221.739 45.385 221.968 44.8948 222.425 44.5198C222.886 44.1409 223.482 43.9514 224.212 43.9514C224.997 43.9514 225.595 44.1487 226.005 44.5432C226.415 44.9377 226.62 45.5002 226.62 46.2307V48.3049C226.62 48.6135 226.644 48.8264 226.691 48.9436C226.741 49.0569 226.831 49.1135 226.96 49.1135C227.054 49.1135 227.138 49.0881 227.212 49.0374V50.1096C227.15 50.1526 227.04 50.1917 226.884 50.2268C226.728 50.2659 226.575 50.2854 226.427 50.2854C226.001 50.2854 225.706 50.2112 225.542 50.0627C225.378 49.9104 225.278 49.6526 225.243 49.2893H225.22C225.056 49.6018 224.816 49.8499 224.499 50.0334C224.187 50.217 223.806 50.3088 223.357 50.3088C222.759 50.3088 222.298 50.1643 221.974 49.8752C221.65 49.5862 221.487 49.176 221.487 48.6448ZM225.191 48.2229V47.5491C224.417 47.5686 223.849 47.6487 223.485 47.7893C223.126 47.926 222.946 48.1624 222.946 48.4983C222.946 48.9788 223.243 49.219 223.837 49.219C224.134 49.219 224.403 49.1331 224.646 48.9612C224.892 48.7854 225.073 48.5393 225.191 48.2229ZM228.208 44.0745H229.638V45.428H229.673C229.798 44.9905 230.005 44.6409 230.294 44.3792C230.587 44.1174 230.944 43.9866 231.366 43.9866C231.593 43.9866 231.792 44.0061 231.964 44.0452V45.5334C231.73 45.4709 231.489 45.4397 231.243 45.4397C230.798 45.4397 230.425 45.6057 230.124 45.9377C229.823 46.2698 229.673 46.7678 229.673 47.4319V50.1917H228.208V44.0745ZM238.011 46.9397C238.011 47.0413 238.003 47.2131 237.987 47.4553H233.968C233.98 47.9944 234.109 48.4045 234.355 48.6858C234.605 48.9631 234.939 49.1018 235.357 49.1018C235.739 49.1018 236.032 49.0061 236.235 48.8147C236.443 48.6233 236.566 48.3792 236.605 48.0823H237.952C237.933 48.3792 237.86 48.6624 237.735 48.9319C237.61 49.1975 237.439 49.4338 237.22 49.6409C237.005 49.844 236.735 50.0061 236.411 50.1272C236.087 50.2483 235.732 50.3088 235.345 50.3088C234.466 50.3088 233.769 50.0354 233.253 49.4885C232.737 48.9377 232.48 48.1604 232.48 47.1565C232.48 46.6565 232.552 46.2034 232.696 45.7971C232.845 45.387 233.048 45.0491 233.306 44.7834C233.564 44.5178 233.862 44.3127 234.202 44.1682C234.546 44.0237 234.915 43.9514 235.31 43.9514C236.13 43.9514 236.784 44.217 237.273 44.7483C237.765 45.2756 238.011 46.0061 238.011 46.9397ZM235.31 45.094C234.958 45.094 234.663 45.2151 234.425 45.4573C234.187 45.6995 234.042 46.053 233.991 46.5178H236.605C236.569 46.0413 236.437 45.6858 236.206 45.4514C235.98 45.2131 235.681 45.094 235.31 45.094ZM241.075 46.0784L238.597 42.1526H240.319L242.025 44.8889H242.06L243.823 42.1526H245.482L242.962 45.9905L245.651 50.1917H243.935L242.025 47.2151H241.978L240.068 50.1917H238.415L241.075 46.0784ZM249.519 48.428V45.2698H248.716V44.1331H249.015C249.257 44.1331 249.417 44.0803 249.495 43.9749C249.577 43.8694 249.618 43.6545 249.618 43.3303V42.1526H250.972V44.0745H252.495V45.2698H250.972V48.176C250.972 48.5159 251.03 48.7542 251.148 48.8909C251.265 49.0237 251.458 49.0901 251.728 49.0901C251.989 49.0901 252.245 49.0295 252.495 48.9084V50.1096C252.151 50.2542 251.773 50.3264 251.359 50.3264C250.706 50.3264 250.235 50.1799 249.946 49.887C249.661 49.5901 249.519 49.1038 249.519 48.428ZM253.175 47.1565C253.175 46.6565 253.251 46.2034 253.403 45.7971C253.556 45.387 253.765 45.0491 254.03 44.7834C254.296 44.5178 254.607 44.3127 254.962 44.1682C255.318 44.0237 255.702 43.9514 256.116 43.9514C256.98 43.9514 257.681 44.2288 258.22 44.7834C258.759 45.3381 259.028 46.1135 259.028 47.1096C259.028 47.6057 258.952 48.0588 258.8 48.469C258.648 48.8752 258.439 49.2112 258.173 49.4768C257.907 49.7424 257.597 49.9475 257.241 50.092C256.89 50.2366 256.511 50.3088 256.105 50.3088C255.237 50.3088 254.532 50.0334 253.989 49.4827C253.446 48.928 253.175 48.1526 253.175 47.1565ZM257.54 47.1331C257.54 46.5081 257.409 46.0217 257.148 45.6741C256.89 45.3264 256.546 45.1526 256.116 45.1526C255.683 45.1526 255.331 45.3284 255.062 45.6799C254.796 46.0315 254.663 46.5159 254.663 47.1331C254.663 47.7542 254.796 48.2405 255.062 48.592C255.327 48.9397 255.675 49.1135 256.105 49.1135C256.538 49.1135 256.886 48.9397 257.148 48.592C257.409 48.2405 257.54 47.7542 257.54 47.1331ZM264.36 41.5491H265.814V50.1917H264.384V49.1018H264.349C264.263 49.426 264.064 49.7092 263.751 49.9514C263.439 50.1897 263.026 50.3088 262.515 50.3088C262.159 50.3088 261.829 50.2405 261.525 50.1038C261.22 49.967 260.952 49.7698 260.722 49.512C260.495 49.2542 260.318 48.926 260.189 48.5276C260.06 48.1252 259.995 47.676 259.995 47.1799C259.995 46.1877 260.237 45.4026 260.722 44.8245C261.206 44.2424 261.849 43.9514 262.65 43.9514C263.118 43.9514 263.491 44.051 263.769 44.2502C264.05 44.4456 264.239 44.6702 264.337 44.9241H264.36V41.5491ZM264.36 47.2151V46.9163C264.36 46.3616 264.23 45.9241 263.968 45.6038C263.706 45.2795 263.374 45.1174 262.972 45.1174C262.515 45.1174 262.151 45.2991 261.882 45.6624C261.616 46.0256 261.484 46.5159 261.484 47.1331C261.484 47.7659 261.614 48.2581 261.876 48.6096C262.142 48.9612 262.491 49.137 262.925 49.137C263.343 49.137 263.687 48.967 263.956 48.6272C264.226 48.2834 264.36 47.8127 264.36 47.2151ZM266.991 48.6448C266.991 48.3245 267.056 48.0452 267.185 47.8069C267.318 47.5686 267.489 47.3772 267.7 47.2327C267.915 47.0881 268.187 46.9729 268.515 46.887C268.843 46.7971 269.177 46.7346 269.517 46.6995C269.86 46.6643 270.253 46.6448 270.694 46.6409V46.1956C270.694 45.8167 270.61 45.5354 270.443 45.3518C270.275 45.1643 270.015 45.0706 269.663 45.0706C269.347 45.0706 269.089 45.1526 268.89 45.3167C268.694 45.4807 268.597 45.7092 268.597 46.0022C268.597 46.1077 268.605 46.1995 268.62 46.2776H267.255C267.247 46.2073 267.243 46.1116 267.243 45.9905C267.243 45.385 267.472 44.8948 267.929 44.5198C268.39 44.1409 268.985 43.9514 269.716 43.9514C270.501 43.9514 271.099 44.1487 271.509 44.5432C271.919 44.9377 272.124 45.5002 272.124 46.2307V48.3049C272.124 48.6135 272.148 48.8264 272.194 48.9436C272.245 49.0569 272.335 49.1135 272.464 49.1135C272.558 49.1135 272.642 49.0881 272.716 49.0374V50.1096C272.653 50.1526 272.544 50.1917 272.388 50.2268C272.232 50.2659 272.079 50.2854 271.931 50.2854C271.505 50.2854 271.21 50.2112 271.046 50.0627C270.882 49.9104 270.782 49.6526 270.747 49.2893H270.724C270.56 49.6018 270.319 49.8499 270.003 50.0334C269.691 50.217 269.31 50.3088 268.86 50.3088C268.263 50.3088 267.802 50.1643 267.478 49.8752C267.153 49.5862 266.991 49.176 266.991 48.6448ZM270.694 48.2229V47.5491C269.921 47.5686 269.353 47.6487 268.989 47.7893C268.63 47.926 268.45 48.1624 268.45 48.4983C268.45 48.9788 268.747 49.219 269.341 49.219C269.638 49.219 269.907 49.1331 270.15 48.9612C270.396 48.7854 270.577 48.5393 270.694 48.2229ZM273.009 52.7698V51.5745C273.286 51.6604 273.554 51.7034 273.812 51.7034C274.128 51.7034 274.364 51.6292 274.521 51.4807C274.677 51.3362 274.825 51.0784 274.966 50.7073L275.118 50.2854L272.862 44.0745H274.427L275.564 47.4905C275.775 48.1545 275.892 48.5393 275.915 48.6448H275.939C275.966 48.5237 276.073 48.1428 276.261 47.5022L277.339 44.0745H278.892L276.466 50.5901C276.321 50.9729 276.181 51.2932 276.044 51.551C275.911 51.8088 275.749 52.0491 275.558 52.2717C275.37 52.4944 275.151 52.6584 274.901 52.7639C274.655 52.8733 274.372 52.928 274.052 52.928C273.642 52.928 273.294 52.8752 273.009 52.7698Z" fill="white"/>
</svg>
