<svg width="22" height="22" viewBox="0 0 22 22" fill="none" xmlns="http://www.w3.org/2000/svg">
<path d="M7.33333 1.8335H3.66666C2.65414 1.8335 1.83333 2.65431 1.83333 3.66683V18.3335C1.83333 19.346 2.65414 20.1668 3.66666 20.1668H7.33333C8.34585 20.1668 9.16666 19.346 9.16666 18.3335V3.66683C9.16666 2.65431 8.34585 1.8335 7.33333 1.8335Z" stroke="#3D3D3D" stroke-width="1.8" stroke-linecap="round" stroke-linejoin="round"/>
<path d="M18.3333 1.8335H14.6667C13.6541 1.8335 12.8333 2.65431 12.8333 3.66683V7.3335C12.8333 8.34602 13.6541 9.16683 14.6667 9.16683H18.3333C19.3458 9.16683 20.1667 8.34602 20.1667 7.3335V3.66683C20.1667 2.65431 19.3458 1.8335 18.3333 1.8335Z" stroke="#3D3D3D" stroke-width="1.8" stroke-linecap="round" stroke-linejoin="round"/>
<path d="M18.3333 12.8335H14.6667C13.6541 12.8335 12.8333 13.6543 12.8333 14.6668V18.3335C12.8333 19.346 13.6541 20.1668 14.6667 20.1668H18.3333C19.3458 20.1668 20.1667 19.346 20.1667 18.3335V14.6668C20.1667 13.6543 19.3458 12.8335 18.3333 12.8335Z" stroke="#3D3D3D" stroke-width="1.8" stroke-linecap="round" stroke-linejoin="round"/>
</svg>
