<svg width="28" height="29" viewBox="0 0 28 29" fill="none" xmlns="http://www.w3.org/2000/svg">
<path d="M26 13.5H18C17.4477 13.5 17 13.9477 17 14.5V26.5C17 27.0523 17.4477 27.5 18 27.5H26C26.5523 27.5 27 27.0523 27 26.5V14.5C27 13.9477 26.5523 13.5 26 13.5Z" stroke="white" stroke-width="2" stroke-linecap="round" stroke-linejoin="round"/>
<path d="M26 1.5H18C17.4477 1.5 17 1.94772 17 2.5V6.52C17 7.07228 17.4477 7.52 18 7.52H26C26.5523 7.52 27 7.07228 27 6.52V2.5C27 1.94772 26.5523 1.5 26 1.5Z" stroke="white" stroke-width="2" stroke-linecap="round" stroke-linejoin="round"/>
<path d="M10 1.5H2C1.44772 1.5 1 1.94772 1 2.5V14.5C1 15.0523 1.44772 15.5 2 15.5H10C10.5523 15.5 11 15.0523 11 14.5V2.5C11 1.94772 10.5523 1.5 10 1.5Z" stroke="white" stroke-width="2" stroke-linecap="round" stroke-linejoin="round"/>
<path d="M10 21.4805H2C1.44772 21.4805 1 21.9282 1 22.4805V26.5005C1 27.0528 1.44772 27.5005 2 27.5005H10C10.5523 27.5005 11 27.0528 11 26.5005V22.4805C11 21.9282 10.5523 21.4805 10 21.4805Z" stroke="white" stroke-width="2" stroke-linecap="round" stroke-linejoin="round"/>
</svg>
