<svg width="147" height="106" viewBox="0 0 147 106" fill="none" xmlns="http://www.w3.org/2000/svg">
<g filter="url(#filter0_f_1626_12060)">
<ellipse cx="72.4093" cy="85.0577" rx="53.7191" ry="10.3631" fill="#CCDCD7"/>
</g>
<g filter="url(#filter1_d_1626_12060)">
<path d="M119.664 32.0276L71.9263 65.3425L24.1888 32.0276L67.8887 1.51809C69.0739 0.692102 70.4837 0.249268 71.9283 0.249268C73.3729 0.249268 74.7827 0.692102 75.9678 1.51809L84.6848 7.61207L86.9671 9.19698L109.948 25.2442L112.369 26.944L119.664 32.0276Z" fill="#EBE9E9"/>
</g>
<path d="M64.1642 59.926L24.1888 88.3514V32.0276L64.1642 59.926Z" fill="#D0D0D0"/>
<g filter="url(#filter2_f_1626_12060)">
<ellipse cx="95.2497" cy="30.9156" rx="17.7654" ry="5.7103" fill="#FF4C77" fill-opacity="0.3"/>
</g>
<path d="M79.6915 59.926L119.667 88.3514V32.0276L79.6915 59.926Z" fill="#D0D0D0"/>
<path d="M24.1888 88.3513L67.8372 57.3188C69.0318 56.4681 70.4618 56.011 71.9283 56.011C73.3948 56.011 74.8248 56.4681 76.0193 57.3188L119.664 88.3513H24.1888Z" fill="#D0D0D0"/>
<path d="M95.3542 16.1202C96.9585 16.1202 98.2461 16.5196 99.2169 17.3183C100.195 18.1101 100.684 19.1774 100.684 20.52C100.684 21.7181 100.339 22.689 99.6507 23.4326C98.9621 24.1762 98.0154 24.6513 96.8104 24.8579L96.6865 26.1489H93.3815L93.1956 22.7613H94.2284C95.096 22.7544 95.7363 22.5788 96.1494 22.2345C96.5626 21.8834 96.7691 21.4186 96.7691 20.8402C96.7691 20.372 96.6314 20.0071 96.356 19.7454C96.0875 19.4769 95.7122 19.3426 95.2302 19.3426C94.6381 19.3426 94.194 19.5217 93.8979 19.8797C93.6018 20.2309 93.4882 20.7197 93.5571 21.3463H89.746C89.6564 20.2997 89.8389 19.3771 90.2933 18.5783C90.7478 17.7796 91.4122 17.1703 92.2867 16.7503C93.168 16.3302 94.1905 16.1202 95.3542 16.1202ZM93.1129 30.5281V27.0991H96.9344V30.5281H93.1129Z" fill="white"/>
<g filter="url(#filter3_d_1626_12060)">
<path d="M29.2315 21.8215C21.9131 25.2449 14.0487 27.3523 5.99911 28.0471C7.08678 30.5754 14.815 43.2316 37.7564 53.6599C38.3766 53.7553 52.7024 47.0909 60.5642 42.5208C60.2971 42.9024 36.144 34.015 29.2315 21.8215Z" fill="#DFEEE1"/>
</g>
<path d="M95.8502 37.0671C103.629 37.0671 109.935 30.8699 109.935 23.2253C109.935 15.5807 103.629 9.38354 95.8502 9.38354C88.0715 9.38354 81.7656 15.5807 81.7656 23.2253C81.7656 30.8699 88.0715 37.0671 95.8502 37.0671Z" fill="url(#paint0_linear_1626_12060)"/>
<path d="M95.8776 14.4956C97.7824 14.4956 99.2965 14.9871 100.42 15.9702C101.544 16.9445 102.105 18.2524 102.105 19.8939C102.105 21.3861 101.645 22.6194 100.723 23.5937C99.8012 24.568 98.5636 25.1781 97.0099 25.4239L96.8782 27.8465H94.0737L93.8367 23.3435H94.6662C95.9741 23.3084 96.9792 22.9968 97.6814 22.4087C98.3836 21.8118 98.7347 21.0262 98.7347 20.0519C98.7347 19.2092 98.4758 18.5377 97.9579 18.0374C97.44 17.5283 96.7115 17.2737 95.7722 17.2737C94.7101 17.2737 93.8982 17.5765 93.3364 18.1822C92.7746 18.7791 92.5289 19.5998 92.5991 20.6444H89.3074C89.1582 18.7923 89.698 17.3044 90.9269 16.1809C92.1646 15.0573 93.8148 14.4956 95.8776 14.4956ZM93.7051 32.863V29.5714H97.1547V32.863H93.7051Z" fill="white"/>
<path d="M29.7992 28.1142C29.4624 27.8805 29.0358 27.8174 28.6458 27.9436L15.8415 32.0862C15.3828 32.2346 15.2193 32.7996 15.528 33.1699C15.7765 33.4682 16.1833 33.5821 16.5506 33.4563L29.6816 28.9587C30.0522 28.8318 30.121 28.3374 29.7992 28.1142Z" fill="#C9DFFF"/>
<path d="M29.5764 33.2162C29.2516 32.9113 28.7855 32.8097 28.3632 32.9518L19.499 35.935C19.1081 36.0666 18.9701 36.5488 19.2322 36.8672C19.4463 37.1274 19.7992 37.2277 20.1182 37.1191L29.4172 33.9529C29.7311 33.846 29.8181 33.4432 29.5764 33.2162Z" fill="#C9DFFF"/>
<path d="M34.3337 35.7426C33.9948 35.4712 33.539 35.3961 33.1309 35.5444L22.9204 39.2554C22.5196 39.4011 22.399 39.9094 22.6916 40.2196C22.9155 40.4568 23.2592 40.5378 23.5655 40.4255L34.2067 36.5205C34.5375 36.3991 34.6087 35.9629 34.3337 35.7426Z" fill="#C9DFFF"/>
<path d="M37.9032 43.4024C37.5893 43.0555 37.0947 42.9368 36.6575 43.1036L30.8222 45.3304C30.4639 45.4671 30.3347 45.9079 30.5625 46.2164C30.776 46.5056 31.1566 46.6161 31.4917 46.4863L37.7463 44.0638C38.0161 43.9594 38.0973 43.6169 37.9032 43.4024Z" fill="#C9DFFF"/>
<g filter="url(#filter4_d_1626_12060)">
<path d="M113.83 39.4714C122.704 43.6225 132.24 46.1778 142.001 47.0202C140.682 50.086 131.311 65.4324 103.493 78.0774C102.741 78.1931 85.3701 70.1121 75.8372 64.5705C76.1611 65.0333 105.448 54.2567 113.83 39.4714Z" fill="#80A99C"/>
</g>
<path d="M113.143 47.1016C113.551 46.8183 114.068 46.7418 114.541 46.8948L130.067 51.9179C130.624 52.0978 130.822 52.7829 130.447 53.232C130.146 53.5936 129.653 53.7317 129.207 53.5792L113.285 48.1256C112.836 47.9717 112.753 47.3723 113.143 47.1016Z" fill="#CCDCD7"/>
<path d="M108.796 51.2365C109.19 50.8667 109.755 50.7435 110.267 50.9158L121.015 54.5332C121.489 54.6927 121.657 55.2774 121.339 55.6635C121.079 55.9789 120.651 56.1006 120.265 55.9689L108.989 52.1297C108.608 52.0001 108.503 51.5117 108.796 51.2365Z" fill="#CCDCD7"/>
<path d="M104.329 54.6688C104.74 54.3398 105.292 54.2487 105.787 54.4285L118.168 58.9283C118.654 59.1049 118.8 59.7214 118.445 60.0974C118.174 60.3852 117.757 60.4834 117.386 60.3471L104.483 55.6121C104.081 55.4649 103.995 54.9359 104.329 54.6688Z" fill="#CCDCD7"/>
<path d="M94.2766 61.5362C94.6572 61.1155 95.257 60.9716 95.787 61.1739L102.863 63.874C103.297 64.0398 103.454 64.5742 103.178 64.9484C102.919 65.299 102.457 65.433 102.051 65.2756L94.4668 62.3382C94.1397 62.2115 94.0412 61.7963 94.2766 61.5362Z" fill="#CCDCD7"/>
<path d="M98.8959 57.8688C99.3148 57.6061 99.8316 57.5517 100.296 57.7215L116.599 63.6825C117.12 63.873 117.246 64.5524 116.829 64.9173C116.552 65.1587 116.166 65.23 115.822 65.1032L99.004 58.9079C98.5505 58.7408 98.4865 58.1257 98.8959 57.8688Z" fill="#CCDCD7"/>
<path d="M41.4344 37.4168C41.089 37.2001 40.6628 37.1553 40.2798 37.2953L26.8345 42.2113C26.4048 42.3685 26.3007 42.9287 26.6453 43.2297C26.8732 43.4288 27.1917 43.4876 27.4756 43.383L41.3452 38.2737C41.7193 38.1359 41.772 37.6286 41.4344 37.4168Z" fill="#C9DFFF"/>
<path d="M119.147 7.44015C119.147 8.72499 118.105 9.76656 116.821 9.76656C115.536 9.76656 114.494 8.72499 114.494 7.44015C114.494 6.1553 115.536 5.11373 116.821 5.11373C118.105 5.11373 119.147 6.1553 119.147 7.44015Z" stroke="#80A99C" stroke-width="1.26896"/>
<circle cx="34.3391" cy="93.7292" r="2.32642" stroke="#80A99C" stroke-width="1.26896"/>
<circle cx="105.825" cy="98.3818" r="2.32642" stroke="#80A99C" stroke-width="1.26896"/>
<defs>
<filter id="filter0_f_1626_12060" x="8.11549" y="64.1199" width="128.588" height="41.8756" filterUnits="userSpaceOnUse" color-interpolation-filters="sRGB">
<feFlood flood-opacity="0" result="BackgroundImageFix"/>
<feBlend mode="normal" in="SourceGraphic" in2="BackgroundImageFix" result="shape"/>
<feGaussianBlur stdDeviation="5.28732" result="effect1_foregroundBlur_1626_12060"/>
</filter>
<filter id="filter1_d_1626_12060" x="22.4968" y="0.249268" width="98.8589" height="68.4771" filterUnits="userSpaceOnUse" color-interpolation-filters="sRGB">
<feFlood flood-opacity="0" result="BackgroundImageFix"/>
<feColorMatrix in="SourceAlpha" type="matrix" values="0 0 0 0 0 0 0 0 0 0 0 0 0 0 0 0 0 0 127 0" result="hardAlpha"/>
<feOffset dy="1.69194"/>
<feGaussianBlur stdDeviation="0.845971"/>
<feComposite in2="hardAlpha" operator="out"/>
<feColorMatrix type="matrix" values="0 0 0 0 0 0 0 0 0 0 0 0 0 0 0 0 0 0 0.25 0"/>
<feBlend mode="normal" in2="BackgroundImageFix" result="effect1_dropShadow_1626_12060"/>
<feBlend mode="normal" in="SourceGraphic" in2="effect1_dropShadow_1626_12060" result="shape"/>
</filter>
<filter id="filter2_f_1626_12060" x="66.9097" y="14.6307" width="56.68" height="32.5699" filterUnits="userSpaceOnUse" color-interpolation-filters="sRGB">
<feFlood flood-opacity="0" result="BackgroundImageFix"/>
<feBlend mode="normal" in="SourceGraphic" in2="BackgroundImageFix" result="shape"/>
<feGaussianBlur stdDeviation="5.28732" result="effect1_foregroundBlur_1626_12060"/>
</filter>
<filter id="filter3_d_1626_12060" x="0.923261" y="18.4377" width="64.7168" height="41.991" filterUnits="userSpaceOnUse" color-interpolation-filters="sRGB">
<feFlood flood-opacity="0" result="BackgroundImageFix"/>
<feColorMatrix in="SourceAlpha" type="matrix" values="0 0 0 0 0 0 0 0 0 0 0 0 0 0 0 0 0 0 127 0" result="hardAlpha"/>
<feOffset dy="1.69194"/>
<feGaussianBlur stdDeviation="2.53791"/>
<feComposite in2="hardAlpha" operator="out"/>
<feColorMatrix type="matrix" values="0 0 0 0 0.0196078 0 0 0 0 0.168627 0 0 0 0 0.396078 0 0 0 0.15 0"/>
<feBlend mode="normal" in2="BackgroundImageFix" result="effect1_dropShadow_1626_12060"/>
<feBlend mode="normal" in="SourceGraphic" in2="effect1_dropShadow_1626_12060" result="shape"/>
</filter>
<filter id="filter4_d_1626_12060" x="66.0819" y="38.6255" width="80.545" height="52.9887" filterUnits="userSpaceOnUse" color-interpolation-filters="sRGB">
<feFlood flood-opacity="0" result="BackgroundImageFix"/>
<feColorMatrix in="SourceAlpha" type="matrix" values="0 0 0 0 0 0 0 0 0 0 0 0 0 0 0 0 0 0 127 0" result="hardAlpha"/>
<feOffset dx="-2.56447" dy="6.34478"/>
<feGaussianBlur stdDeviation="3.59538"/>
<feComposite in2="hardAlpha" operator="out"/>
<feColorMatrix type="matrix" values="0 0 0 0 0.021441 0 0 0 0 0.168056 0 0 0 0 0.395833 0 0 0 0.15 0"/>
<feBlend mode="normal" in2="BackgroundImageFix" result="effect1_dropShadow_1626_12060"/>
<feBlend mode="normal" in="SourceGraphic" in2="effect1_dropShadow_1626_12060" result="shape"/>
</filter>
<linearGradient id="paint0_linear_1626_12060" x1="81.9003" y1="11.2461" x2="109.494" y2="37.6392" gradientUnits="userSpaceOnUse">
<stop stop-color="#FF698D"/>
<stop offset="1" stop-color="#FF3868"/>
</linearGradient>
</defs>
</svg>
