<svg width="33" height="27" viewBox="0 0 33 27" fill="none" xmlns="http://www.w3.org/2000/svg">
<path d="M19.8462 1.22949H4.23077C2.99875 1.22949 2 2.22824 2 3.46026V7.9218C2 9.15382 2.99875 10.1526 4.23077 10.1526H19.8462C21.0782 10.1526 22.0769 9.15382 22.0769 7.9218V3.46026C22.0769 2.22824 21.0782 1.22949 19.8462 1.22949Z" stroke="white" stroke-width="2.23077" stroke-linecap="round" stroke-linejoin="round"/>
<path d="M28.768 16.8467H13.1526C11.9206 16.8467 10.9219 17.8454 10.9219 19.0774V23.539C10.9219 24.771 11.9206 25.7698 13.1526 25.7698H28.768C30 25.7698 30.9988 24.771 30.9988 23.539V19.0774C30.9988 17.8454 30 16.8467 28.768 16.8467Z" stroke="white" stroke-width="2.23077" stroke-linecap="round" stroke-linejoin="round"/>
</svg>
