<svg width="32" height="33" viewBox="0 0 32 33" fill="none" xmlns="http://www.w3.org/2000/svg">
<path d="M11 18.9365L12.41 20.3465L15 17.7665V29.9365H17V17.7665L19.59 20.3465L21 18.9365L16 13.9365L11 18.9365Z" fill="#161616"/>
<path d="M23.5018 22.9361H23.0018V20.9361H23.5018C24.6953 20.9838 25.8588 20.5555 26.7365 19.7454C27.6142 18.9352 28.1341 17.8096 28.1818 16.6161C28.2296 15.4226 27.8012 14.2591 26.9911 13.3814C26.1809 12.5037 25.0553 11.9838 23.8618 11.9361H23.0018L22.9018 11.1161C22.68 9.43254 21.8537 7.88704 20.5769 6.76748C19.3001 5.64792 17.6599 5.03064 15.9618 5.03064C14.2637 5.03064 12.6235 5.64792 11.3467 6.76748C10.0699 7.88704 9.24367 9.43254 9.02181 11.1161L9.00181 11.9361H8.14181C6.94834 11.9838 5.82271 12.5037 5.01255 13.3814C4.20239 14.2591 3.77407 15.4226 3.82181 16.6161C3.86955 17.8096 4.38944 18.9352 5.26711 19.7454C6.14478 20.5555 7.30834 20.9838 8.50181 20.9361H9.00181V22.9361H8.50181C6.89822 22.9259 5.35498 22.3233 4.1688 21.2442C2.98262 20.165 2.23723 18.6855 2.07594 17.09C1.91466 15.4945 2.34886 13.8957 3.29506 12.6009C4.24127 11.3062 5.63269 10.407 7.20181 10.0761C7.63352 8.06261 8.74265 6.25807 10.3441 4.96356C11.9456 3.66906 13.9426 2.96289 16.0018 2.96289C18.0611 2.96289 20.058 3.66906 21.6595 4.96356C23.261 6.25807 24.3701 8.06261 24.8018 10.0761C26.3709 10.407 27.7624 11.3062 28.7086 12.6009C29.6548 13.8957 30.089 15.4945 29.9277 17.09C29.7664 18.6855 29.021 20.165 27.8348 21.2442C26.6486 22.3233 25.1054 22.9259 23.5018 22.9361Z" fill="#161616"/>
</svg>
