<svg width="52" height="35" viewBox="0 0 52 35" fill="none" xmlns="http://www.w3.org/2000/svg">
<rect x="0.171875" y="0.961914" width="51.3206" height="33.547" rx="15" fill="#FFC107"/>
<path d="M22.4685 16.3936H20.7207C20.6708 16.1069 20.5789 15.853 20.4449 15.6318C20.311 15.4075 20.1443 15.2174 19.9449 15.0616C19.7455 14.9059 19.518 14.789 19.2626 14.7111C19.0102 14.6301 18.7376 14.5896 18.4447 14.5896C17.9244 14.5896 17.4633 14.7205 17.0614 14.9822C16.6595 15.2408 16.3448 15.6209 16.1174 16.1225C15.8899 16.621 15.7762 17.2301 15.7762 17.9498C15.7762 18.682 15.8899 19.2988 16.1174 19.8005C16.3479 20.299 16.6626 20.6759 17.0614 20.9314C17.4633 21.1838 17.9229 21.31 18.4401 21.31C18.7267 21.31 18.9946 21.2726 19.2439 21.1978C19.4962 21.1199 19.7221 21.0062 19.9215 20.8566C20.124 20.7071 20.2938 20.5233 20.4309 20.3052C20.5711 20.0871 20.6677 19.8378 20.7207 19.5574L22.4685 19.5668C22.4031 20.0217 22.2613 20.4485 22.0432 20.8473C21.8283 21.2461 21.5463 21.5982 21.1974 21.9035C20.8484 22.2057 20.4403 22.4425 19.9729 22.6138C19.5056 22.7821 18.9868 22.8662 18.4167 22.8662C17.5755 22.8662 16.8246 22.6715 16.1641 22.282C15.5036 21.8926 14.9833 21.3302 14.6032 20.5949C14.2231 19.8597 14.033 18.9779 14.033 17.9498C14.033 16.9185 14.2246 16.0368 14.6079 15.3047C14.9911 14.5694 15.5129 14.007 16.1735 13.6176C16.834 13.2281 17.5817 13.0334 18.4167 13.0334C18.9495 13.0334 19.4448 13.1082 19.9028 13.2577C20.3608 13.4073 20.769 13.6269 21.1273 13.9167C21.4855 14.2033 21.78 14.5554 22.0105 14.9728C22.2442 15.3872 22.3969 15.8608 22.4685 16.3936ZM29.655 17.4544L28.1128 17.6227C28.0692 17.4669 27.9929 17.3204 27.8838 17.1834C27.7779 17.0463 27.6346 16.9357 27.4539 16.8515C27.2732 16.7674 27.0519 16.7254 26.7902 16.7254C26.4382 16.7254 26.1422 16.8017 25.9023 16.9544C25.6655 17.107 25.5487 17.3049 25.5518 17.5479C25.5487 17.7566 25.625 17.9264 25.7808 18.0573C25.9397 18.1881 26.2014 18.2956 26.5659 18.3797L27.7903 18.6415C28.4695 18.7879 28.9743 19.02 29.3045 19.3378C29.6379 19.6556 29.8061 20.0715 29.8093 20.5856C29.8061 21.0374 29.6737 21.4361 29.412 21.782C29.1534 22.1247 28.7936 22.3926 28.3325 22.5858C27.8714 22.779 27.3417 22.8756 26.7435 22.8756C25.8649 22.8756 25.1577 22.6917 24.6218 22.3241C24.0859 21.9533 23.7666 21.4377 23.6637 20.7772L25.3134 20.6183C25.3882 20.9423 25.5471 21.1869 25.7901 21.352C26.0331 21.5172 26.3494 21.5997 26.7388 21.5997C27.1407 21.5997 27.4632 21.5172 27.7062 21.352C27.9524 21.1869 28.0754 20.9828 28.0754 20.7398C28.0754 20.5342 27.996 20.3644 27.8371 20.2304C27.6813 20.0964 27.4383 19.9936 27.108 19.922L25.8836 19.6649C25.1951 19.5216 24.6857 19.2802 24.3554 18.9406C24.0251 18.5978 23.8616 18.1648 23.8647 17.6414C23.8616 17.1989 23.9815 16.8157 24.2245 16.4917C24.4707 16.1646 24.8118 15.9122 25.248 15.7346C25.6873 15.5539 26.1936 15.4635 26.7669 15.4635C27.6081 15.4635 28.2701 15.6427 28.7531 16.001C29.2391 16.3593 29.5398 16.8438 29.655 17.4544ZM37.6162 15.557L35.0598 22.7354H33.1905L30.6341 15.557H32.438L34.0877 20.8894H34.1625L35.8169 15.557H37.6162Z" fill="#161616"/>
</svg>
