<svg width="32" height="32" viewBox="0 0 32 32" fill="none" xmlns="http://www.w3.org/2000/svg">
<mask id="mask0_1626_12050" style="mask-type:alpha" maskUnits="userSpaceOnUse" x="0" y="0" width="32" height="32">
<path d="M16 32C24.8366 32 32 24.8366 32 16C32 7.16344 24.8366 0 16 0C7.16344 0 0 7.16344 0 16C0 24.8366 7.16344 32 16 32Z" fill="white"/>
</mask>
<g mask="url(#mask0_1626_12050)">
<path d="M16 32C24.8366 32 32 24.8366 32 16C32 7.16344 24.8366 0 16 0C7.16344 0 0 7.16344 0 16C0 24.8366 7.16344 32 16 32Z" fill="#F5F5F5"/>
</g>
<path d="M10.2351 15.9717C10.1937 15.9754 10.1728 15.9245 10.2022 15.8951C10.2836 15.8137 10.365 15.7323 10.4463 15.6509C10.5725 15.5248 10.7002 15.3971 10.8264 15.2709C10.872 15.2253 10.9176 15.1797 10.9632 15.1341C11.0255 15.0718 11.0924 15.014 11.1486 14.9456C11.2885 14.7814 11.3158 14.5412 11.22 14.3481C11.1226 14.1535 10.9128 14.0349 10.6954 14.0485C10.5479 14.0591 10.4232 14.129 10.3214 14.2309C10.2515 14.3008 10.18 14.3723 10.1101 14.4422C10.0098 14.5425 9.91098 14.6413 9.81065 14.7416C9.67081 14.8815 9.53096 15.0213 9.39111 15.1612C9.27711 15.2752 9.16158 15.3907 9.04758 15.5047C8.95485 15.5974 8.86213 15.6902 8.76788 15.7844C8.6858 15.8665 8.60219 15.9501 8.52011 16.0322C8.47299 16.0793 8.41978 16.1264 8.37874 16.1796C8.24346 16.3514 8.22375 16.5962 8.33173 16.7893C8.37735 16.8684 8.4473 16.9322 8.51117 16.9961C8.64195 17.1269 8.7712 17.2561 8.90198 17.3869C9.02819 17.5131 9.15593 17.6408 9.28214 17.7671C9.37642 17.8613 9.47223 17.9571 9.56651 18.0514C9.67447 18.1594 9.78092 18.2658 9.88889 18.3738C10.0318 18.5167 10.1748 18.6597 10.3177 18.8026C10.415 18.9 10.526 18.9714 10.6659 18.9897C10.8818 19.0171 11.0962 18.9092 11.2056 18.7207C11.3135 18.5337 11.2983 18.2935 11.169 18.1217C11.1082 18.0396 11.0276 17.9711 10.9561 17.8997C10.8436 17.7871 10.7326 17.6761 10.62 17.5636C10.5151 17.4587 10.4087 17.3522 10.3037 17.2473C10.2367 17.1802 10.2845 17.0654 10.3793 17.0655C10.6384 17.0659 10.8975 17.0653 11.1566 17.0665C11.4637 17.0666 11.7693 17.0682 12.0749 17.0667C12.3608 17.0668 12.6466 17.0668 12.9324 17.0669C13.2152 17.0669 13.501 17.067 13.7838 17.067C13.9997 17.0671 14.2156 17.0671 14.43 17.0687C14.4756 17.0687 14.5212 17.0687 14.5668 17.0687C14.7705 17.0657 14.9606 16.9548 15.0533 16.7708C15.1475 16.5884 15.1277 16.3618 15.0045 16.1961C14.9011 16.0562 14.7369 15.9771 14.5636 15.9771C14.4039 15.9755 14.2443 15.977 14.0831 15.977C13.7988 15.9754 13.5145 15.9769 13.2302 15.9753C12.917 15.9752 12.6068 15.9752 12.2936 15.9751C11.9409 15.9751 11.5882 15.975 11.234 15.9734C10.901 15.9718 10.568 15.9733 10.2351 15.9717ZM15.943 18.4783C15.9431 18.8007 15.9431 19.123 15.9432 19.4453C15.9417 19.7083 15.9433 19.9713 15.9418 20.2344C15.9419 20.4837 15.9419 20.7331 15.9404 20.9839C15.939 21.2652 15.9406 21.5464 15.9391 21.8277C15.9392 22.1713 15.9392 22.5119 15.9393 22.8555C15.9393 22.8656 15.9271 22.8706 15.9199 22.8635C15.762 22.7056 15.6029 22.5464 15.4451 22.3886C15.2824 22.2259 15.1212 22.0647 14.9585 21.902C14.8672 21.8108 14.7577 21.7469 14.63 21.7286C14.4628 21.7043 14.2925 21.762 14.1724 21.8821L14.1739 21.8806C14.0478 22.0068 13.99 22.1892 14.0235 22.3625C14.0448 22.4811 14.1057 22.5815 14.1893 22.6651C14.3094 22.7852 14.428 22.9038 14.5482 23.024C14.7367 23.2125 14.9253 23.4011 15.1154 23.5912C15.2842 23.76 15.4545 23.9303 15.6233 24.0991C15.7312 24.207 15.8392 24.315 15.9472 24.423C15.9958 24.4716 16.043 24.5188 16.0916 24.5674C16.1859 24.6617 16.306 24.7241 16.4398 24.7363C16.6025 24.75 16.7591 24.6907 16.8746 24.5782C16.9142 24.5387 16.9537 24.4992 16.9917 24.4612C17.1087 24.3441 17.2258 24.2271 17.3428 24.1101C17.51 23.9428 17.6772 23.7756 17.8444 23.6084C18.0269 23.426 18.2093 23.2436 18.3917 23.0612C18.5163 22.9366 18.6394 22.8134 18.7641 22.6888C18.831 22.6219 18.8903 22.5505 18.9252 22.4608C18.986 22.2996 18.9677 22.1172 18.8749 21.9727C18.6864 21.6777 18.2698 21.6442 18.0235 21.8874C17.9323 21.9786 17.8426 22.0683 17.7514 22.1595C17.5584 22.3526 17.3653 22.5456 17.1723 22.7386C17.1207 22.7903 17.0324 22.7537 17.0324 22.6807C17.0324 22.5916 17.0324 22.5024 17.0323 22.4133C17.0323 22.2126 17.0307 22.0104 17.0322 21.8082C17.0322 21.6957 17.0322 21.5862 17.0322 21.4737C17.0321 21.2487 17.0321 21.0206 17.032 20.7956C17.032 20.7013 17.032 20.6071 17.032 20.5128C17.0319 20.2848 17.0304 20.0552 17.0318 19.8256C17.0318 19.7222 17.0318 19.6188 17.0318 19.5154C17.0317 19.3026 17.0317 19.0928 17.0317 18.8799C17.0316 18.7765 17.0316 18.6762 17.0316 18.5728C17.0316 18.5059 17.0346 18.439 17.0224 18.3721C16.9829 18.1532 16.805 17.9783 16.5875 17.9372C16.3686 17.8946 16.1421 17.9934 16.022 18.1804C15.9734 18.2716 15.943 18.375 15.943 18.4783ZM21.8853 14.1723C21.6725 14.3851 21.6786 14.7317 21.887 14.9462C21.9691 15.0283 22.0527 15.1119 22.1348 15.194C22.2991 15.3582 22.4648 15.524 22.629 15.6882C22.7231 15.7823 22.6569 15.9432 22.5239 15.9437C22.3033 15.9447 22.0824 15.9456 21.8628 15.9465C21.5618 15.9465 21.2608 15.9495 20.9597 15.9494C20.6785 15.9509 20.3987 15.9508 20.1175 15.9523C19.8392 15.9538 19.5595 15.9537 19.2797 15.9567C19.0654 15.9582 18.8525 15.9581 18.6381 15.9596C18.5895 15.9596 18.5424 15.9611 18.4952 15.9596C18.3067 15.9626 18.1304 16.0599 18.027 16.218C17.916 16.3897 17.9085 16.6102 18.0089 16.7866C18.1032 16.9569 18.2841 17.0618 18.4787 17.0649C18.6231 17.0664 18.7676 17.0649 18.9135 17.065C19.1994 17.065 19.4852 17.0651 19.7695 17.0667C20.0797 17.0667 20.3898 17.0668 20.7015 17.0684C21.0512 17.0684 21.3993 17.07 21.7475 17.0686C22.0744 17.0701 22.4013 17.0687 22.7281 17.0703C22.7693 17.0703 22.7911 17.1229 22.762 17.152C22.563 17.3509 22.365 17.549 22.1657 17.7482C22.0593 17.8546 21.9514 17.9595 21.8465 18.0675C21.7188 18.1982 21.6596 18.3852 21.6961 18.5646C21.7387 18.7714 21.9029 18.9386 22.1082 18.9858C22.2937 19.0284 22.4837 18.9692 22.6175 18.8384C22.6692 18.7867 22.7208 18.7351 22.771 18.6849C22.882 18.5739 22.9929 18.463 23.1039 18.352C23.3304 18.1255 23.5569 17.899 23.7834 17.6725C24.0236 17.4324 24.2637 17.1922 24.5054 16.9505C24.5176 16.9383 24.5297 16.9262 24.5419 16.914C24.6453 16.8106 24.7182 16.6617 24.7227 16.5142C24.7258 16.3743 24.6908 16.2177 24.5934 16.1113C24.5189 16.0307 24.4368 15.9546 24.3577 15.8756C24.2042 15.722 24.049 15.5669 23.8955 15.4133C23.7419 15.2597 23.5883 15.1061 23.4362 14.9541C23.2826 14.8005 23.129 14.6469 22.9755 14.4933C22.8751 14.3929 22.7747 14.2926 22.6759 14.1937C22.6181 14.1359 22.5558 14.0858 22.4797 14.0553C22.3475 13.9991 22.1954 13.999 22.0632 14.0522C21.9993 14.0796 21.937 14.1206 21.8853 14.1723ZM16.8715 8.38633C17.0844 8.59922 17.2973 8.81212 17.5102 9.02501C17.755 9.26983 17.9999 9.51466 18.2447 9.75948C18.3344 9.8492 18.4241 9.93892 18.5139 10.0286C18.5899 10.1047 18.6659 10.1807 18.742 10.2567C18.8165 10.3313 18.8879 10.4058 18.926 10.5076C18.999 10.7023 18.9534 10.9273 18.812 11.0778C18.6707 11.2252 18.4548 11.2829 18.2587 11.2236C18.1309 11.184 18.0427 11.0989 17.9515 11.0077C17.8952 10.9514 17.8375 10.8936 17.7812 10.8373C17.5531 10.6092 17.325 10.3811 17.0969 10.153C17.0739 10.13 17.0346 10.1463 17.0346 10.1789C17.0346 10.4966 17.0347 10.8164 17.0347 11.1337C17.0348 11.4408 17.0349 11.7509 17.0349 12.058C17.035 12.3439 17.035 12.6297 17.0351 12.9186C17.0351 13.2044 17.0352 13.4872 17.0353 13.773C17.0353 13.9889 17.0353 14.2048 17.0369 14.4222C17.0369 14.4739 17.0369 14.5226 17.0369 14.5743C17.0354 14.7704 16.9336 14.9513 16.7633 15.0486C16.5855 15.1504 16.3574 15.1443 16.1871 15.0287C16.0366 14.9268 15.9469 14.755 15.9468 14.5725C15.9468 14.4144 15.9468 14.2563 15.9467 14.0982C15.9467 13.8093 15.9466 13.5204 15.945 13.23C15.9435 12.9153 15.9449 12.6006 15.9433 12.2859C15.9433 11.9301 15.9432 11.5744 15.9416 11.2171C15.94 10.8811 15.9415 10.5451 15.9399 10.2091C15.9399 10.1653 15.887 10.1434 15.856 10.1743C15.771 10.2594 15.6855 10.3448 15.6009 10.4295C15.4732 10.5571 15.344 10.6864 15.2163 10.814C15.1646 10.8657 15.1145 10.9159 15.0628 10.9676C14.9746 11.0557 14.891 11.1515 14.774 11.2016C14.5703 11.2898 14.3285 11.2426 14.1719 11.086C14.0153 10.9294 13.9696 10.6861 14.0562 10.4839C14.0988 10.3836 14.1733 10.3121 14.2477 10.2376C14.3313 10.154 14.415 10.0704 14.4986 9.98682C14.5958 9.88954 14.6946 9.79073 14.7919 9.69345C14.909 9.5764 15.0275 9.45784 15.1446 9.34079C15.2875 9.1979 15.4319 9.0535 15.5748 8.91061C15.6812 8.8042 15.7876 8.6978 15.894 8.59139C15.9593 8.52603 16.0232 8.46219 16.0886 8.39682C16.2162 8.26914 16.3926 8.20532 16.572 8.23576C16.686 8.2525 16.7909 8.30574 16.8715 8.38633Z" fill="#161616"/>
<circle cx="16.5" cy="16.4854" r="0.5" fill="#161616"/>
</svg>
