<svg width="707" height="35" viewBox="0 0 707 35" fill="none" xmlns="http://www.w3.org/2000/svg">
<path d="M10.0013 25.8337C14.6037 25.8337 18.3346 22.1027 18.3346 17.5003C18.3346 12.898 14.6037 9.16699 10.0013 9.16699C5.39893 9.16699 1.66797 12.898 1.66797 17.5003C1.66797 22.1027 5.39893 25.8337 10.0013 25.8337Z" stroke="#51CF66" stroke-width="2" stroke-linecap="round" stroke-linejoin="round"/>
<path d="M10 20.8333V17.5" stroke="#51CF66" stroke-width="2" stroke-linecap="round" stroke-linejoin="round"/>
<path d="M10 14.167H10.0083" stroke="#51CF66" stroke-width="2" stroke-linecap="round" stroke-linejoin="round"/>
<path d="M21 17.5L27 14.0359V20.9641L21 17.5Z" fill="#84AA89"/>
<path d="M43.2891 13.5312H37.8516V16.875H42.5391V18.1172H37.8516V21.75H43.2891V23H36.4531V12.2812H43.2891V13.5312ZM45.2656 14.9375H46.6094V16.6016H46.6406C46.7812 16.0859 47.0781 15.6536 47.5312 15.3047C47.9844 14.9505 48.5573 14.7734 49.25 14.7734C50.0521 14.7734 50.6823 15.0182 51.1406 15.5078C51.6042 15.9974 51.8359 16.6979 51.8359 17.6094V23H50.4766V17.9297C50.4766 17.2474 50.3385 16.7526 50.0625 16.4453C49.7865 16.1328 49.3698 15.9766 48.8125 15.9766C48.1771 15.9766 47.6536 16.2474 47.2422 16.7891C46.8307 17.3307 46.625 18.026 46.625 18.875V23H45.2656V14.9375ZM53.5625 20.5547H54.9062C54.9479 21.5339 55.5729 22.0234 56.7812 22.0234C57.3281 22.0234 57.7552 21.9167 58.0625 21.7031C58.3698 21.4896 58.5234 21.2188 58.5234 20.8906C58.5234 20.724 58.5026 20.5833 58.4609 20.4688C58.4193 20.3542 58.3516 20.2552 58.2578 20.1719C58.1693 20.0885 58.0573 20.0156 57.9219 19.9531C57.7917 19.8906 57.6276 19.8307 57.4297 19.7734C57.237 19.7109 57.0234 19.6458 56.7891 19.5781C56.7318 19.5625 56.6901 19.5521 56.6641 19.5469C55.7734 19.3073 55.1693 19.1094 54.8516 18.9531C54.2734 18.6667 53.9193 18.2552 53.7891 17.7188C53.7422 17.526 53.7188 17.3125 53.7188 17.0781C53.7188 16.375 54.0026 15.8151 54.5703 15.3984C55.1432 14.9818 55.8568 14.7734 56.7109 14.7734C57.6849 14.7734 58.4427 14.9948 58.9844 15.4375C59.526 15.8802 59.7891 16.5026 59.7734 17.3047H58.4297C58.4245 16.8516 58.2734 16.5078 57.9766 16.2734C57.6849 16.0339 57.2682 15.9141 56.7266 15.9141C56.2474 15.9141 55.8516 16.013 55.5391 16.2109C55.2318 16.4089 55.0781 16.6667 55.0781 16.9844C55.0781 17.151 55.1068 17.2969 55.1641 17.4219C55.2214 17.5417 55.2786 17.638 55.3359 17.7109C55.3932 17.7839 55.5182 17.862 55.7109 17.9453C55.9089 18.0234 56.0573 18.0781 56.1562 18.1094C56.2552 18.1406 56.4635 18.1979 56.7812 18.2812C56.7969 18.2865 56.8099 18.2917 56.8203 18.2969C56.8307 18.2969 56.8411 18.2995 56.8516 18.3047C56.8672 18.3047 56.8802 18.3073 56.8906 18.3125C57.25 18.401 57.5417 18.4792 57.7656 18.5469C57.9948 18.6146 58.237 18.6979 58.4922 18.7969C58.7474 18.8958 58.9479 19.0026 59.0938 19.1172C59.2448 19.2266 59.3854 19.362 59.5156 19.5234C59.6458 19.6797 59.7396 19.8646 59.7969 20.0781C59.8542 20.2865 59.8828 20.5234 59.8828 20.7891C59.8828 21.487 59.5938 22.0573 59.0156 22.5C58.4427 22.9375 57.6797 23.1562 56.7266 23.1562C55.737 23.1562 54.9609 22.9401 54.3984 22.5078C53.8411 22.0703 53.5625 21.4193 53.5625 20.5547ZM61.6016 20.3438V14.9375H62.9609V20.0703C62.9609 21.3307 63.4896 21.9609 64.5469 21.9609C65.1667 21.9609 65.6797 21.6927 66.0859 21.1562C66.4922 20.6146 66.6953 19.9219 66.6953 19.0781V14.9375H68.0547V23H66.7109V21.3203H66.6719C66.5104 21.8359 66.2214 22.2708 65.8047 22.625C65.388 22.9792 64.8672 23.1562 64.2422 23.1562C63.3984 23.1562 62.7474 22.9219 62.2891 22.4531C61.8307 21.9792 61.6016 21.276 61.6016 20.3438ZM70.4688 14.9375H71.8125V16.9375H71.8438C72.0208 16.3073 72.3177 15.7969 72.7344 15.4062C73.151 15.0156 73.6536 14.8203 74.2422 14.8203C74.5234 14.8203 74.7891 14.849 75.0391 14.9062V16.2812C74.7786 16.2083 74.4818 16.1719 74.1484 16.1719C73.8516 16.1719 73.5677 16.2344 73.2969 16.3594C73.0312 16.4792 72.7865 16.6615 72.5625 16.9062C72.3385 17.1458 72.1589 17.4688 72.0234 17.875C71.8932 18.276 71.8281 18.737 71.8281 19.2578V23H70.4688V14.9375ZM82.9141 18.6797C82.9141 18.8047 82.9036 19.0078 82.8828 19.2891H77.3203C77.3359 20.1589 77.5417 20.8281 77.9375 21.2969C78.3333 21.7604 78.8828 21.9922 79.5859 21.9922C80.1901 21.9922 80.6589 21.8333 80.9922 21.5156C81.3255 21.1979 81.5182 20.8125 81.5703 20.3594H82.8359C82.8099 20.724 82.7188 21.0729 82.5625 21.4062C82.4115 21.7344 82.2031 22.0312 81.9375 22.2969C81.6719 22.5573 81.3333 22.7656 80.9219 22.9219C80.5156 23.0781 80.0651 23.1562 79.5703 23.1562C78.4401 23.1562 77.5495 22.7917 76.8984 22.0625C76.2474 21.3333 75.9219 20.3073 75.9219 18.9844C75.9219 17.6875 76.2604 16.6615 76.9375 15.9062C77.6146 15.151 78.4661 14.7734 79.4922 14.7734C80.5443 14.7734 81.3776 15.1224 81.9922 15.8203C82.6068 16.5182 82.9141 17.4714 82.9141 18.6797ZM79.4922 15.9141C78.9141 15.9141 78.4323 16.1172 78.0469 16.5234C77.6615 16.9297 77.4297 17.5104 77.3516 18.2656H81.5703C81.5234 17.4896 81.3125 16.9036 80.9375 16.5078C80.5677 16.112 80.0859 15.9141 79.4922 15.9141ZM88.8984 20.9219V16.1016H87.7578V14.9844H88.2422C88.5495 14.9844 88.75 14.9219 88.8438 14.7969C88.9427 14.6667 88.9922 14.3984 88.9922 13.9922V12.2812H90.2578V14.9375H92.4297V16.1016H90.2578V20.6797C90.2578 21.1797 90.3411 21.5234 90.5078 21.7109C90.6745 21.8984 90.9583 21.9922 91.3594 21.9922C91.7031 21.9922 92.0599 21.9115 92.4297 21.75V22.8906C92.0443 23.0677 91.5807 23.1562 91.0391 23.1562C90.2734 23.1562 89.724 22.987 89.3906 22.6484C89.0625 22.3047 88.8984 21.7292 88.8984 20.9219ZM98.0625 14.7734C98.849 14.7734 99.4688 15.0182 99.9219 15.5078C100.375 15.9974 100.602 16.6979 100.602 17.6094V23H99.2422V17.9297C99.2422 17.2474 99.1042 16.7526 98.8281 16.4453C98.5521 16.1328 98.1354 15.9766 97.5781 15.9766C96.9427 15.9766 96.4193 16.2474 96.0078 16.7891C95.5964 17.3307 95.3906 18.026 95.3906 18.875V23H94.0312V11.4766H95.3906V14.9375C95.3906 15.2969 95.3802 15.8516 95.3594 16.6016H95.3906C95.5312 16.0859 95.8307 15.6536 96.2891 15.3047C96.7526 14.9505 97.3438 14.7734 98.0625 14.7734ZM109.461 18.6797C109.461 18.8047 109.451 19.0078 109.43 19.2891H103.867C103.883 20.1589 104.089 20.8281 104.484 21.2969C104.88 21.7604 105.43 21.9922 106.133 21.9922C106.737 21.9922 107.206 21.8333 107.539 21.5156C107.872 21.1979 108.065 20.8125 108.117 20.3594H109.383C109.357 20.724 109.266 21.0729 109.109 21.4062C108.958 21.7344 108.75 22.0312 108.484 22.2969C108.219 22.5573 107.88 22.7656 107.469 22.9219C107.062 23.0781 106.612 23.1562 106.117 23.1562C104.987 23.1562 104.096 22.7917 103.445 22.0625C102.794 21.3333 102.469 20.3073 102.469 18.9844C102.469 17.6875 102.807 16.6615 103.484 15.9062C104.161 15.151 105.013 14.7734 106.039 14.7734C107.091 14.7734 107.924 15.1224 108.539 15.8203C109.154 16.5182 109.461 17.4714 109.461 18.6797ZM106.039 15.9141C105.461 15.9141 104.979 16.1172 104.594 16.5234C104.208 16.9297 103.977 17.5104 103.898 18.2656H108.117C108.07 17.4896 107.859 16.9036 107.484 16.5078C107.115 16.112 106.633 15.9141 106.039 15.9141ZM121.523 14.9375V23H120.164V16.0859H116.805V23H115.445V16.0859H114.258V14.9375H115.445V13.8672C115.445 12.1693 116.271 11.3203 117.922 11.3203C118.193 11.3203 118.497 11.3568 118.836 11.4297V12.5703C118.586 12.513 118.326 12.4844 118.055 12.4844C117.654 12.4844 117.344 12.5833 117.125 12.7812C116.911 12.9792 116.805 13.3229 116.805 13.8125V14.9375H121.523ZM120.117 11.8672H121.555V13.3047H120.117V11.8672ZM124.062 11.4766H125.422V23H124.062V11.4766ZM134.398 18.6797C134.398 18.8047 134.388 19.0078 134.367 19.2891H128.805C128.82 20.1589 129.026 20.8281 129.422 21.2969C129.818 21.7604 130.367 21.9922 131.07 21.9922C131.674 21.9922 132.143 21.8333 132.477 21.5156C132.81 21.1979 133.003 20.8125 133.055 20.3594H134.32C134.294 20.724 134.203 21.0729 134.047 21.4062C133.896 21.7344 133.688 22.0312 133.422 22.2969C133.156 22.5573 132.818 22.7656 132.406 22.9219C132 23.0781 131.549 23.1562 131.055 23.1562C129.924 23.1562 129.034 22.7917 128.383 22.0625C127.732 21.3333 127.406 20.3073 127.406 18.9844C127.406 17.6875 127.745 16.6615 128.422 15.9062C129.099 15.151 129.951 14.7734 130.977 14.7734C132.029 14.7734 132.862 15.1224 133.477 15.8203C134.091 16.5182 134.398 17.4714 134.398 18.6797ZM130.977 15.9141C130.398 15.9141 129.917 16.1172 129.531 16.5234C129.146 16.9297 128.914 17.5104 128.836 18.2656H133.055C133.008 17.4896 132.797 16.9036 132.422 16.5078C132.052 16.112 131.57 15.9141 130.977 15.9141ZM139.984 11.8672H141.406V13.3047H139.984V11.8672ZM140.016 14.9375H141.375V23H140.016V14.9375ZM143.219 20.5547H144.562C144.604 21.5339 145.229 22.0234 146.438 22.0234C146.984 22.0234 147.411 21.9167 147.719 21.7031C148.026 21.4896 148.18 21.2188 148.18 20.8906C148.18 20.724 148.159 20.5833 148.117 20.4688C148.076 20.3542 148.008 20.2552 147.914 20.1719C147.826 20.0885 147.714 20.0156 147.578 19.9531C147.448 19.8906 147.284 19.8307 147.086 19.7734C146.893 19.7109 146.68 19.6458 146.445 19.5781C146.388 19.5625 146.346 19.5521 146.32 19.5469C145.43 19.3073 144.826 19.1094 144.508 18.9531C143.93 18.6667 143.576 18.2552 143.445 17.7188C143.398 17.526 143.375 17.3125 143.375 17.0781C143.375 16.375 143.659 15.8151 144.227 15.3984C144.799 14.9818 145.513 14.7734 146.367 14.7734C147.341 14.7734 148.099 14.9948 148.641 15.4375C149.182 15.8802 149.445 16.5026 149.43 17.3047H148.086C148.081 16.8516 147.93 16.5078 147.633 16.2734C147.341 16.0339 146.924 15.9141 146.383 15.9141C145.904 15.9141 145.508 16.013 145.195 16.2109C144.888 16.4089 144.734 16.6667 144.734 16.9844C144.734 17.151 144.763 17.2969 144.82 17.4219C144.878 17.5417 144.935 17.638 144.992 17.7109C145.049 17.7839 145.174 17.862 145.367 17.9453C145.565 18.0234 145.714 18.0781 145.812 18.1094C145.911 18.1406 146.12 18.1979 146.438 18.2812C146.453 18.2865 146.466 18.2917 146.477 18.2969C146.487 18.2969 146.497 18.2995 146.508 18.3047C146.523 18.3047 146.536 18.3073 146.547 18.3125C146.906 18.401 147.198 18.4792 147.422 18.5469C147.651 18.6146 147.893 18.6979 148.148 18.7969C148.404 18.8958 148.604 19.0026 148.75 19.1172C148.901 19.2266 149.042 19.362 149.172 19.5234C149.302 19.6797 149.396 19.8646 149.453 20.0781C149.51 20.2865 149.539 20.5234 149.539 20.7891C149.539 21.487 149.25 22.0573 148.672 22.5C148.099 22.9375 147.336 23.1562 146.383 23.1562C145.393 23.1562 144.617 22.9401 144.055 22.5078C143.497 22.0703 143.219 21.4193 143.219 20.5547ZM154.984 11.8672H156.406V13.3047H154.984V11.8672ZM155.016 14.9375H156.375V23H155.016V14.9375ZM158.797 14.9375H160.141V16.6016H160.172C160.312 16.0859 160.609 15.6536 161.062 15.3047C161.516 14.9505 162.089 14.7734 162.781 14.7734C163.583 14.7734 164.214 15.0182 164.672 15.5078C165.135 15.9974 165.367 16.6979 165.367 17.6094V23H164.008V17.9297C164.008 17.2474 163.87 16.7526 163.594 16.4453C163.318 16.1328 162.901 15.9766 162.344 15.9766C161.708 15.9766 161.185 16.2474 160.773 16.7891C160.362 17.3307 160.156 18.026 160.156 18.875V23H158.797V14.9375ZM173.281 18.8906L170.594 14.9375H172.188L174.172 17.9141H174.203L176.219 14.9375H177.711L175.023 18.8047L177.836 23H176.258L174.109 19.7812H174.078L171.867 23H170.398L173.281 18.8906ZM179.375 11.4766H180.734V23H179.375V11.4766ZM182.578 20.5547H183.922C183.964 21.5339 184.589 22.0234 185.797 22.0234C186.344 22.0234 186.771 21.9167 187.078 21.7031C187.385 21.4896 187.539 21.2188 187.539 20.8906C187.539 20.724 187.518 20.5833 187.477 20.4688C187.435 20.3542 187.367 20.2552 187.273 20.1719C187.185 20.0885 187.073 20.0156 186.938 19.9531C186.807 19.8906 186.643 19.8307 186.445 19.7734C186.253 19.7109 186.039 19.6458 185.805 19.5781C185.747 19.5625 185.706 19.5521 185.68 19.5469C184.789 19.3073 184.185 19.1094 183.867 18.9531C183.289 18.6667 182.935 18.2552 182.805 17.7188C182.758 17.526 182.734 17.3125 182.734 17.0781C182.734 16.375 183.018 15.8151 183.586 15.3984C184.159 14.9818 184.872 14.7734 185.727 14.7734C186.701 14.7734 187.458 14.9948 188 15.4375C188.542 15.8802 188.805 16.5026 188.789 17.3047H187.445C187.44 16.8516 187.289 16.5078 186.992 16.2734C186.701 16.0339 186.284 15.9141 185.742 15.9141C185.263 15.9141 184.867 16.013 184.555 16.2109C184.247 16.4089 184.094 16.6667 184.094 16.9844C184.094 17.151 184.122 17.2969 184.18 17.4219C184.237 17.5417 184.294 17.638 184.352 17.7109C184.409 17.7839 184.534 17.862 184.727 17.9453C184.924 18.0234 185.073 18.0781 185.172 18.1094C185.271 18.1406 185.479 18.1979 185.797 18.2812C185.812 18.2865 185.826 18.2917 185.836 18.2969C185.846 18.2969 185.857 18.2995 185.867 18.3047C185.883 18.3047 185.896 18.3073 185.906 18.3125C186.266 18.401 186.557 18.4792 186.781 18.5469C187.01 18.6146 187.253 18.6979 187.508 18.7969C187.763 18.8958 187.964 19.0026 188.109 19.1172C188.26 19.2266 188.401 19.362 188.531 19.5234C188.661 19.6797 188.755 19.8646 188.812 20.0781C188.87 20.2865 188.898 20.5234 188.898 20.7891C188.898 21.487 188.609 22.0573 188.031 22.5C187.458 22.9375 186.695 23.1562 185.742 23.1562C184.753 23.1562 183.977 22.9401 183.414 22.5078C182.857 22.0703 182.578 21.4193 182.578 20.5547ZM193.938 19.0156C193.938 17.6979 194.289 16.6615 194.992 15.9062C195.695 15.151 196.581 14.7734 197.648 14.7734C198.737 14.7734 199.622 15.1432 200.305 15.8828C200.992 16.6224 201.336 17.6458 201.336 18.9531C201.336 20.2448 200.984 21.2682 200.281 22.0234C199.578 22.7786 198.695 23.1562 197.633 23.1562C196.549 23.1562 195.661 22.7891 194.969 22.0547C194.281 21.3151 193.938 20.3021 193.938 19.0156ZM199.938 18.9844C199.938 18.0312 199.727 17.2865 199.305 16.75C198.883 16.2135 198.331 15.9453 197.648 15.9453C196.966 15.9453 196.409 16.2188 195.977 16.7656C195.549 17.3073 195.336 18.0469 195.336 18.9844C195.336 19.9323 195.547 20.6719 195.969 21.2031C196.396 21.7292 196.951 21.9922 197.633 21.9922C198.32 21.9922 198.875 21.7266 199.297 21.1953C199.724 20.6589 199.938 19.9219 199.938 18.9844ZM203.312 14.9375H204.656V16.9375H204.688C204.865 16.3073 205.161 15.7969 205.578 15.4062C205.995 15.0156 206.497 14.8203 207.086 14.8203C207.367 14.8203 207.633 14.849 207.883 14.9062V16.2812C207.622 16.2083 207.326 16.1719 206.992 16.1719C206.695 16.1719 206.411 16.2344 206.141 16.3594C205.875 16.4792 205.63 16.6615 205.406 16.9062C205.182 17.1458 205.003 17.4688 204.867 17.875C204.737 18.276 204.672 18.737 204.672 19.2578V23H203.312V14.9375ZM212.641 19.0469C212.641 18.3854 212.734 17.7839 212.922 17.2422C213.115 16.6953 213.375 16.2448 213.703 15.8906C214.036 15.5312 214.424 15.2552 214.867 15.0625C215.31 14.8698 215.789 14.7734 216.305 14.7734C216.815 14.7734 217.279 14.8594 217.695 15.0312C218.112 15.2031 218.456 15.4375 218.727 15.7344C219.003 16.026 219.214 16.3646 219.359 16.75C219.51 17.1302 219.591 17.5339 219.602 17.9609H218.242C218.216 17.4036 218.039 16.9297 217.711 16.5391C217.388 16.1432 216.919 15.9453 216.305 15.9453C215.633 15.9453 215.086 16.2188 214.664 16.7656C214.247 17.3073 214.039 18.0573 214.039 19.0156C214.039 19.9479 214.245 20.6771 214.656 21.2031C215.068 21.7292 215.607 21.9922 216.273 21.9922C217.378 21.9922 218.034 21.3255 218.242 19.9922H219.602C219.497 20.9557 219.164 21.724 218.602 22.2969C218.039 22.8698 217.258 23.1562 216.258 23.1562C215.19 23.1562 214.32 22.7943 213.648 22.0703C212.977 21.3411 212.641 20.3333 212.641 19.0469ZM221.047 20.5547H222.391C222.432 21.5339 223.057 22.0234 224.266 22.0234C224.812 22.0234 225.24 21.9167 225.547 21.7031C225.854 21.4896 226.008 21.2188 226.008 20.8906C226.008 20.724 225.987 20.5833 225.945 20.4688C225.904 20.3542 225.836 20.2552 225.742 20.1719C225.654 20.0885 225.542 20.0156 225.406 19.9531C225.276 19.8906 225.112 19.8307 224.914 19.7734C224.721 19.7109 224.508 19.6458 224.273 19.5781C224.216 19.5625 224.174 19.5521 224.148 19.5469C223.258 19.3073 222.654 19.1094 222.336 18.9531C221.758 18.6667 221.404 18.2552 221.273 17.7188C221.227 17.526 221.203 17.3125 221.203 17.0781C221.203 16.375 221.487 15.8151 222.055 15.3984C222.628 14.9818 223.341 14.7734 224.195 14.7734C225.169 14.7734 225.927 14.9948 226.469 15.4375C227.01 15.8802 227.273 16.5026 227.258 17.3047H225.914C225.909 16.8516 225.758 16.5078 225.461 16.2734C225.169 16.0339 224.753 15.9141 224.211 15.9141C223.732 15.9141 223.336 16.013 223.023 16.2109C222.716 16.4089 222.562 16.6667 222.562 16.9844C222.562 17.151 222.591 17.2969 222.648 17.4219C222.706 17.5417 222.763 17.638 222.82 17.7109C222.878 17.7839 223.003 17.862 223.195 17.9453C223.393 18.0234 223.542 18.0781 223.641 18.1094C223.74 18.1406 223.948 18.1979 224.266 18.2812C224.281 18.2865 224.294 18.2917 224.305 18.2969C224.315 18.2969 224.326 18.2995 224.336 18.3047C224.352 18.3047 224.365 18.3073 224.375 18.3125C224.734 18.401 225.026 18.4792 225.25 18.5469C225.479 18.6146 225.721 18.6979 225.977 18.7969C226.232 18.8958 226.432 19.0026 226.578 19.1172C226.729 19.2266 226.87 19.362 227 19.5234C227.13 19.6797 227.224 19.8646 227.281 20.0781C227.339 20.2865 227.367 20.5234 227.367 20.7891C227.367 21.487 227.078 22.0573 226.5 22.5C225.927 22.9375 225.164 23.1562 224.211 23.1562C223.221 23.1562 222.445 22.9401 221.883 22.5078C221.326 22.0703 221.047 21.4193 221.047 20.5547ZM228.055 14.9375H229.492L231.398 20.2656C231.612 20.8906 231.75 21.3177 231.812 21.5469H231.844C231.984 21 232.112 20.5729 232.227 20.2656L234.102 14.9375H235.492L232.547 23H231.008L228.055 14.9375ZM240.883 16.0859H239.695V14.9375H240.883V13.8672C240.883 12.1693 241.708 11.3203 243.359 11.3203C243.635 11.3203 243.951 11.3568 244.305 11.4297V12.5859C243.992 12.5182 243.721 12.4844 243.492 12.4844C243.091 12.4844 242.781 12.5833 242.562 12.7812C242.349 12.9792 242.242 13.3229 242.242 13.8125V14.9375H244.078V16.0859H242.242V23H240.883V16.0859ZM245 19.0156C245 17.6979 245.352 16.6615 246.055 15.9062C246.758 15.151 247.643 14.7734 248.711 14.7734C249.799 14.7734 250.685 15.1432 251.367 15.8828C252.055 16.6224 252.398 17.6458 252.398 18.9531C252.398 20.2448 252.047 21.2682 251.344 22.0234C250.641 22.7786 249.758 23.1562 248.695 23.1562C247.612 23.1562 246.724 22.7891 246.031 22.0547C245.344 21.3151 245 20.3021 245 19.0156ZM251 18.9844C251 18.0312 250.789 17.2865 250.367 16.75C249.945 16.2135 249.393 15.9453 248.711 15.9453C248.029 15.9453 247.471 16.2188 247.039 16.7656C246.612 17.3073 246.398 18.0469 246.398 18.9844C246.398 19.9323 246.609 20.6719 247.031 21.2031C247.458 21.7292 248.013 21.9922 248.695 21.9922C249.383 21.9922 249.938 21.7266 250.359 21.1953C250.786 20.6589 251 19.9219 251 18.9844ZM254.375 14.9375H255.719V16.9375H255.75C255.927 16.3073 256.224 15.7969 256.641 15.4062C257.057 15.0156 257.56 14.8203 258.148 14.8203C258.43 14.8203 258.695 14.849 258.945 14.9062V16.2812C258.685 16.2083 258.388 16.1719 258.055 16.1719C257.758 16.1719 257.474 16.2344 257.203 16.3594C256.938 16.4792 256.693 16.6615 256.469 16.9062C256.245 17.1458 256.065 17.4688 255.93 17.875C255.799 18.276 255.734 18.737 255.734 19.2578V23H254.375V14.9375ZM269.172 14.7734C269.974 14.7734 270.586 15.0286 271.008 15.5391C271.435 16.0443 271.648 16.7448 271.648 17.6406V23H270.305V17.9297C270.305 16.6276 269.805 15.9766 268.805 15.9766C268.216 15.9766 267.729 16.2474 267.344 16.7891C266.958 17.3307 266.766 18.0208 266.766 18.8594V23H265.406V17.9297C265.406 16.6276 264.906 15.9766 263.906 15.9766C263.318 15.9766 262.831 16.2448 262.445 16.7812C262.065 17.3177 261.875 17.9974 261.875 18.8203V23H260.516V14.9375H261.859V16.5859H261.891C262.016 16.0964 262.294 15.6719 262.727 15.3125C263.159 14.9531 263.695 14.7734 264.336 14.7734C264.961 14.7734 265.469 14.9349 265.859 15.2578C266.25 15.5807 266.516 16.0391 266.656 16.6328H266.688C266.828 16.1276 267.117 15.6927 267.555 15.3281C267.992 14.9583 268.531 14.7734 269.172 14.7734ZM273.422 21.0156C273.422 20.6667 273.477 20.3568 273.586 20.0859C273.701 19.8151 273.867 19.5859 274.086 19.3984C274.31 19.2109 274.562 19.0521 274.844 18.9219C275.13 18.7917 275.471 18.6901 275.867 18.6172C276.268 18.5391 276.672 18.4818 277.078 18.4453C277.484 18.4089 277.945 18.3854 278.461 18.375V17.7188C278.461 17.1146 278.326 16.6693 278.055 16.3828C277.789 16.0911 277.365 15.9453 276.781 15.9453C276.266 15.9453 275.849 16.0755 275.531 16.3359C275.214 16.5964 275.055 16.9609 275.055 17.4297C275.055 17.5495 275.06 17.6458 275.07 17.7188H273.789C273.779 17.6354 273.773 17.5391 273.773 17.4297C273.773 16.638 274.057 15.9974 274.625 15.5078C275.198 15.0182 275.938 14.7734 276.844 14.7734C277.818 14.7734 278.557 15.026 279.062 15.5312C279.568 16.0365 279.82 16.7708 279.82 17.7344V20.6797C279.82 21.1745 279.857 21.513 279.93 21.6953C280.008 21.8724 280.143 21.9609 280.336 21.9609C280.487 21.9609 280.609 21.9349 280.703 21.8828V22.9219C280.516 23.0469 280.242 23.1094 279.883 23.1094C279.388 23.1094 279.042 23.0078 278.844 22.8047C278.651 22.5964 278.539 22.224 278.508 21.6875H278.477C278.258 22.151 277.924 22.513 277.477 22.7734C277.034 23.0286 276.497 23.1562 275.867 23.1562C275.096 23.1562 274.495 22.9688 274.062 22.5938C273.635 22.2188 273.422 21.6927 273.422 21.0156ZM278.461 20.4062V19.3359C277.206 19.3516 276.284 19.4766 275.695 19.7109C275.107 19.9401 274.812 20.3281 274.812 20.875C274.812 21.6719 275.299 22.0703 276.273 22.0703C276.753 22.0703 277.188 21.9297 277.578 21.6484C277.974 21.3672 278.268 20.9531 278.461 20.4062ZM282.523 20.9219V16.1016H281.383V14.9844H281.867C282.174 14.9844 282.375 14.9219 282.469 14.7969C282.568 14.6667 282.617 14.3984 282.617 13.9922V12.2812H283.883V14.9375H286.055V16.1016H283.883V20.6797C283.883 21.1797 283.966 21.5234 284.133 21.7109C284.299 21.8984 284.583 21.9922 284.984 21.9922C285.328 21.9922 285.685 21.9115 286.055 21.75V22.8906C285.669 23.0677 285.206 23.1562 284.664 23.1562C283.898 23.1562 283.349 22.987 283.016 22.6484C282.688 22.3047 282.523 21.7292 282.523 20.9219ZM290.75 21.0156C290.75 20.6667 290.805 20.3568 290.914 20.0859C291.029 19.8151 291.195 19.5859 291.414 19.3984C291.638 19.2109 291.891 19.0521 292.172 18.9219C292.458 18.7917 292.799 18.6901 293.195 18.6172C293.596 18.5391 294 18.4818 294.406 18.4453C294.812 18.4089 295.273 18.3854 295.789 18.375V17.7188C295.789 17.1146 295.654 16.6693 295.383 16.3828C295.117 16.0911 294.693 15.9453 294.109 15.9453C293.594 15.9453 293.177 16.0755 292.859 16.3359C292.542 16.5964 292.383 16.9609 292.383 17.4297C292.383 17.5495 292.388 17.6458 292.398 17.7188H291.117C291.107 17.6354 291.102 17.5391 291.102 17.4297C291.102 16.638 291.385 15.9974 291.953 15.5078C292.526 15.0182 293.266 14.7734 294.172 14.7734C295.146 14.7734 295.885 15.026 296.391 15.5312C296.896 16.0365 297.148 16.7708 297.148 17.7344V20.6797C297.148 21.1745 297.185 21.513 297.258 21.6953C297.336 21.8724 297.471 21.9609 297.664 21.9609C297.815 21.9609 297.938 21.9349 298.031 21.8828V22.9219C297.844 23.0469 297.57 23.1094 297.211 23.1094C296.716 23.1094 296.37 23.0078 296.172 22.8047C295.979 22.5964 295.867 22.224 295.836 21.6875H295.805C295.586 22.151 295.253 22.513 294.805 22.7734C294.362 23.0286 293.826 23.1562 293.195 23.1562C292.424 23.1562 291.823 22.9688 291.391 22.5938C290.964 22.2188 290.75 21.6927 290.75 21.0156ZM295.789 20.4062V19.3359C294.534 19.3516 293.612 19.4766 293.023 19.7109C292.435 19.9401 292.141 20.3281 292.141 20.875C292.141 21.6719 292.628 22.0703 293.602 22.0703C294.081 22.0703 294.516 21.9297 294.906 21.6484C295.302 21.3672 295.596 20.9531 295.789 20.4062ZM299.578 14.9375H300.922V16.6016H300.953C301.094 16.0859 301.391 15.6536 301.844 15.3047C302.297 14.9505 302.87 14.7734 303.562 14.7734C304.365 14.7734 304.995 15.0182 305.453 15.5078C305.917 15.9974 306.148 16.6979 306.148 17.6094V23H304.789V17.9297C304.789 17.2474 304.651 16.7526 304.375 16.4453C304.099 16.1328 303.682 15.9766 303.125 15.9766C302.49 15.9766 301.966 16.2474 301.555 16.7891C301.143 17.3307 300.938 18.026 300.938 18.875V23H299.578V14.9375ZM313.984 11.4766H315.344V23H314V21.3984H313.969C313.854 21.862 313.581 22.2708 313.148 22.625C312.716 22.9792 312.154 23.1562 311.461 23.1562C310.451 23.1562 309.622 22.7891 308.977 22.0547C308.336 21.3203 308.016 20.3073 308.016 19.0156C308.016 17.724 308.346 16.6953 309.008 15.9297C309.674 15.1589 310.544 14.7734 311.617 14.7734C311.956 14.7734 312.266 14.8229 312.547 14.9219C312.833 15.0156 313.068 15.1432 313.25 15.3047C313.432 15.4609 313.581 15.6198 313.695 15.7812C313.815 15.9427 313.901 16.1042 313.953 16.2656H313.984V11.4766ZM313.984 19.0312V18.7266C313.984 17.8724 313.773 17.1901 313.352 16.6797C312.93 16.1693 312.401 15.9141 311.766 15.9141C311.057 15.9141 310.487 16.1927 310.055 16.75C309.628 17.3073 309.414 18.0521 309.414 18.9844C309.414 19.9323 309.622 20.6771 310.039 21.2188C310.461 21.7552 311.008 22.0234 311.68 22.0234C312.346 22.0234 312.896 21.7578 313.328 21.2266C313.766 20.6953 313.984 19.9635 313.984 19.0312ZM321.758 20.9219V16.1016H320.617V14.9844H321.102C321.409 14.9844 321.609 14.9219 321.703 14.7969C321.802 14.6667 321.852 14.3984 321.852 13.9922V12.2812H323.117V14.9375H325.289V16.1016H323.117V20.6797C323.117 21.1797 323.201 21.5234 323.367 21.7109C323.534 21.8984 323.818 21.9922 324.219 21.9922C324.562 21.9922 324.919 21.9115 325.289 21.75V22.8906C324.904 23.0677 324.44 23.1562 323.898 23.1562C323.133 23.1562 322.583 22.987 322.25 22.6484C321.922 22.3047 321.758 21.7292 321.758 20.9219ZM330.922 14.7734C331.708 14.7734 332.328 15.0182 332.781 15.5078C333.234 15.9974 333.461 16.6979 333.461 17.6094V23H332.102V17.9297C332.102 17.2474 331.964 16.7526 331.688 16.4453C331.411 16.1328 330.995 15.9766 330.438 15.9766C329.802 15.9766 329.279 16.2474 328.867 16.7891C328.456 17.3307 328.25 18.026 328.25 18.875V23H326.891V11.4766H328.25V14.9375C328.25 15.2969 328.24 15.8516 328.219 16.6016H328.25C328.391 16.0859 328.69 15.6536 329.148 15.3047C329.612 14.9505 330.203 14.7734 330.922 14.7734ZM342.32 18.6797C342.32 18.8047 342.31 19.0078 342.289 19.2891H336.727C336.742 20.1589 336.948 20.8281 337.344 21.2969C337.74 21.7604 338.289 21.9922 338.992 21.9922C339.596 21.9922 340.065 21.8333 340.398 21.5156C340.732 21.1979 340.924 20.8125 340.977 20.3594H342.242C342.216 20.724 342.125 21.0729 341.969 21.4062C341.818 21.7344 341.609 22.0312 341.344 22.2969C341.078 22.5573 340.74 22.7656 340.328 22.9219C339.922 23.0781 339.471 23.1562 338.977 23.1562C337.846 23.1562 336.956 22.7917 336.305 22.0625C335.654 21.3333 335.328 20.3073 335.328 18.9844C335.328 17.6875 335.667 16.6615 336.344 15.9062C337.021 15.151 337.872 14.7734 338.898 14.7734C339.951 14.7734 340.784 15.1224 341.398 15.8203C342.013 16.5182 342.32 17.4714 342.32 18.6797ZM338.898 15.9141C338.32 15.9141 337.839 16.1172 337.453 16.5234C337.068 16.9297 336.836 17.5104 336.758 18.2656H340.977C340.93 17.4896 340.719 16.9036 340.344 16.5078C339.974 16.112 339.492 15.9141 338.898 15.9141ZM344.312 14.9375H345.656V16.9375H345.688C345.865 16.3073 346.161 15.7969 346.578 15.4062C346.995 15.0156 347.497 14.8203 348.086 14.8203C348.367 14.8203 348.633 14.849 348.883 14.9062V16.2812C348.622 16.2083 348.326 16.1719 347.992 16.1719C347.695 16.1719 347.411 16.2344 347.141 16.3594C346.875 16.4792 346.63 16.6615 346.406 16.9062C346.182 17.1458 346.003 17.4688 345.867 17.875C345.737 18.276 345.672 18.737 345.672 19.2578V23H344.312V14.9375ZM356.758 18.6797C356.758 18.8047 356.747 19.0078 356.727 19.2891H351.164C351.18 20.1589 351.385 20.8281 351.781 21.2969C352.177 21.7604 352.727 21.9922 353.43 21.9922C354.034 21.9922 354.503 21.8333 354.836 21.5156C355.169 21.1979 355.362 20.8125 355.414 20.3594H356.68C356.654 20.724 356.562 21.0729 356.406 21.4062C356.255 21.7344 356.047 22.0312 355.781 22.2969C355.516 22.5573 355.177 22.7656 354.766 22.9219C354.359 23.0781 353.909 23.1562 353.414 23.1562C352.284 23.1562 351.393 22.7917 350.742 22.0625C350.091 21.3333 349.766 20.3073 349.766 18.9844C349.766 17.6875 350.104 16.6615 350.781 15.9062C351.458 15.151 352.31 14.7734 353.336 14.7734C354.388 14.7734 355.221 15.1224 355.836 15.8203C356.451 16.5182 356.758 17.4714 356.758 18.6797ZM353.336 15.9141C352.758 15.9141 352.276 16.1172 351.891 16.5234C351.505 16.9297 351.273 17.5104 351.195 18.2656H355.414C355.367 17.4896 355.156 16.9036 354.781 16.5078C354.411 16.112 353.93 15.9141 353.336 15.9141ZM361.844 21.0156C361.844 20.6667 361.898 20.3568 362.008 20.0859C362.122 19.8151 362.289 19.5859 362.508 19.3984C362.732 19.2109 362.984 19.0521 363.266 18.9219C363.552 18.7917 363.893 18.6901 364.289 18.6172C364.69 18.5391 365.094 18.4818 365.5 18.4453C365.906 18.4089 366.367 18.3854 366.883 18.375V17.7188C366.883 17.1146 366.747 16.6693 366.477 16.3828C366.211 16.0911 365.786 15.9453 365.203 15.9453C364.688 15.9453 364.271 16.0755 363.953 16.3359C363.635 16.5964 363.477 16.9609 363.477 17.4297C363.477 17.5495 363.482 17.6458 363.492 17.7188H362.211C362.201 17.6354 362.195 17.5391 362.195 17.4297C362.195 16.638 362.479 15.9974 363.047 15.5078C363.62 15.0182 364.359 14.7734 365.266 14.7734C366.24 14.7734 366.979 15.026 367.484 15.5312C367.99 16.0365 368.242 16.7708 368.242 17.7344V20.6797C368.242 21.1745 368.279 21.513 368.352 21.6953C368.43 21.8724 368.565 21.9609 368.758 21.9609C368.909 21.9609 369.031 21.9349 369.125 21.8828V22.9219C368.938 23.0469 368.664 23.1094 368.305 23.1094C367.81 23.1094 367.464 23.0078 367.266 22.8047C367.073 22.5964 366.961 22.224 366.93 21.6875H366.898C366.68 22.151 366.346 22.513 365.898 22.7734C365.456 23.0286 364.919 23.1562 364.289 23.1562C363.518 23.1562 362.917 22.9688 362.484 22.5938C362.057 22.2188 361.844 21.6927 361.844 21.0156ZM366.883 20.4062V19.3359C365.628 19.3516 364.706 19.4766 364.117 19.7109C363.529 19.9401 363.234 20.3281 363.234 20.875C363.234 21.6719 363.721 22.0703 364.695 22.0703C365.174 22.0703 365.609 21.9297 366 21.6484C366.396 21.3672 366.69 20.9531 366.883 20.4062ZM370.672 14.9375H372.016V16.9375H372.047C372.224 16.3073 372.521 15.7969 372.938 15.4062C373.354 15.0156 373.857 14.8203 374.445 14.8203C374.727 14.8203 374.992 14.849 375.242 14.9062V16.2812C374.982 16.2083 374.685 16.1719 374.352 16.1719C374.055 16.1719 373.771 16.2344 373.5 16.3594C373.234 16.4792 372.99 16.6615 372.766 16.9062C372.542 17.1458 372.362 17.4688 372.227 17.875C372.096 18.276 372.031 18.737 372.031 19.2578V23H370.672V14.9375ZM383.117 18.6797C383.117 18.8047 383.107 19.0078 383.086 19.2891H377.523C377.539 20.1589 377.745 20.8281 378.141 21.2969C378.536 21.7604 379.086 21.9922 379.789 21.9922C380.393 21.9922 380.862 21.8333 381.195 21.5156C381.529 21.1979 381.721 20.8125 381.773 20.3594H383.039C383.013 20.724 382.922 21.0729 382.766 21.4062C382.615 21.7344 382.406 22.0312 382.141 22.2969C381.875 22.5573 381.536 22.7656 381.125 22.9219C380.719 23.0781 380.268 23.1562 379.773 23.1562C378.643 23.1562 377.753 22.7917 377.102 22.0625C376.451 21.3333 376.125 20.3073 376.125 18.9844C376.125 17.6875 376.464 16.6615 377.141 15.9062C377.818 15.151 378.669 14.7734 379.695 14.7734C380.747 14.7734 381.581 15.1224 382.195 15.8203C382.81 16.5182 383.117 17.4714 383.117 18.6797ZM379.695 15.9141C379.117 15.9141 378.635 16.1172 378.25 16.5234C377.865 16.9297 377.633 17.5104 377.555 18.2656H381.773C381.727 17.4896 381.516 16.9036 381.141 16.5078C380.771 16.112 380.289 15.9141 379.695 15.9141ZM388.734 14.9375H390.078V16.6016H390.109C390.25 16.0859 390.547 15.6536 391 15.3047C391.453 14.9505 392.026 14.7734 392.719 14.7734C393.521 14.7734 394.151 15.0182 394.609 15.5078C395.073 15.9974 395.305 16.6979 395.305 17.6094V23H393.945V17.9297C393.945 17.2474 393.807 16.7526 393.531 16.4453C393.255 16.1328 392.839 15.9766 392.281 15.9766C391.646 15.9766 391.122 16.2474 390.711 16.7891C390.299 17.3307 390.094 18.026 390.094 18.875V23H388.734V14.9375ZM397.172 19.0156C397.172 17.6979 397.523 16.6615 398.227 15.9062C398.93 15.151 399.815 14.7734 400.883 14.7734C401.971 14.7734 402.857 15.1432 403.539 15.8828C404.227 16.6224 404.57 17.6458 404.57 18.9531C404.57 20.2448 404.219 21.2682 403.516 22.0234C402.812 22.7786 401.93 23.1562 400.867 23.1562C399.784 23.1562 398.896 22.7891 398.203 22.0547C397.516 21.3151 397.172 20.3021 397.172 19.0156ZM403.172 18.9844C403.172 18.0312 402.961 17.2865 402.539 16.75C402.117 16.2135 401.565 15.9453 400.883 15.9453C400.201 15.9453 399.643 16.2188 399.211 16.7656C398.784 17.3073 398.57 18.0469 398.57 18.9844C398.57 19.9323 398.781 20.6719 399.203 21.2031C399.63 21.7292 400.185 21.9922 400.867 21.9922C401.555 21.9922 402.109 21.7266 402.531 21.1953C402.958 20.6589 403.172 19.9219 403.172 18.9844ZM406.867 20.9219V16.1016H405.727V14.9844H406.211C406.518 14.9844 406.719 14.9219 406.812 14.7969C406.911 14.6667 406.961 14.3984 406.961 13.9922V12.2812H408.227V14.9375H410.398V16.1016H408.227V20.6797C408.227 21.1797 408.31 21.5234 408.477 21.7109C408.643 21.8984 408.927 21.9922 409.328 21.9922C409.672 21.9922 410.029 21.9115 410.398 21.75V22.8906C410.013 23.0677 409.549 23.1562 409.008 23.1562C408.242 23.1562 407.693 22.987 407.359 22.6484C407.031 22.3047 406.867 21.7292 406.867 20.9219ZM424.281 14.7734C425.083 14.7734 425.695 15.0286 426.117 15.5391C426.544 16.0443 426.758 16.7448 426.758 17.6406V23H425.414V17.9297C425.414 16.6276 424.914 15.9766 423.914 15.9766C423.326 15.9766 422.839 16.2474 422.453 16.7891C422.068 17.3307 421.875 18.0208 421.875 18.8594V23H420.516V17.9297C420.516 16.6276 420.016 15.9766 419.016 15.9766C418.427 15.9766 417.94 16.2448 417.555 16.7812C417.174 17.3177 416.984 17.9974 416.984 18.8203V23H415.625V14.9375H416.969V16.5859H417C417.125 16.0964 417.404 15.6719 417.836 15.3125C418.268 14.9531 418.805 14.7734 419.445 14.7734C420.07 14.7734 420.578 14.9349 420.969 15.2578C421.359 15.5807 421.625 16.0391 421.766 16.6328H421.797C421.938 16.1276 422.227 15.6927 422.664 15.3281C423.102 14.9583 423.641 14.7734 424.281 14.7734ZM428.625 19.0156C428.625 17.6979 428.977 16.6615 429.68 15.9062C430.383 15.151 431.268 14.7734 432.336 14.7734C433.424 14.7734 434.31 15.1432 434.992 15.8828C435.68 16.6224 436.023 17.6458 436.023 18.9531C436.023 20.2448 435.672 21.2682 434.969 22.0234C434.266 22.7786 433.383 23.1562 432.32 23.1562C431.237 23.1562 430.349 22.7891 429.656 22.0547C428.969 21.3151 428.625 20.3021 428.625 19.0156ZM434.625 18.9844C434.625 18.0312 434.414 17.2865 433.992 16.75C433.57 16.2135 433.018 15.9453 432.336 15.9453C431.654 15.9453 431.096 16.2188 430.664 16.7656C430.237 17.3073 430.023 18.0469 430.023 18.9844C430.023 19.9323 430.234 20.6719 430.656 21.2031C431.083 21.7292 431.638 21.9922 432.32 21.9922C433.008 21.9922 433.562 21.7266 433.984 21.1953C434.411 20.6589 434.625 19.9219 434.625 18.9844ZM438 14.9375H439.344V16.9375H439.375C439.552 16.3073 439.849 15.7969 440.266 15.4062C440.682 15.0156 441.185 14.8203 441.773 14.8203C442.055 14.8203 442.32 14.849 442.57 14.9062V16.2812C442.31 16.2083 442.013 16.1719 441.68 16.1719C441.383 16.1719 441.099 16.2344 440.828 16.3594C440.562 16.4792 440.318 16.6615 440.094 16.9062C439.87 17.1458 439.69 17.4688 439.555 17.875C439.424 18.276 439.359 18.737 439.359 19.2578V23H438V14.9375ZM450.445 18.6797C450.445 18.8047 450.435 19.0078 450.414 19.2891H444.852C444.867 20.1589 445.073 20.8281 445.469 21.2969C445.865 21.7604 446.414 21.9922 447.117 21.9922C447.721 21.9922 448.19 21.8333 448.523 21.5156C448.857 21.1979 449.049 20.8125 449.102 20.3594H450.367C450.341 20.724 450.25 21.0729 450.094 21.4062C449.943 21.7344 449.734 22.0312 449.469 22.2969C449.203 22.5573 448.865 22.7656 448.453 22.9219C448.047 23.0781 447.596 23.1562 447.102 23.1562C445.971 23.1562 445.081 22.7917 444.43 22.0625C443.779 21.3333 443.453 20.3073 443.453 18.9844C443.453 17.6875 443.792 16.6615 444.469 15.9062C445.146 15.151 445.997 14.7734 447.023 14.7734C448.076 14.7734 448.909 15.1224 449.523 15.8203C450.138 16.5182 450.445 17.4714 450.445 18.6797ZM447.023 15.9141C446.445 15.9141 445.964 16.1172 445.578 16.5234C445.193 16.9297 444.961 17.5104 444.883 18.2656H449.102C449.055 17.4896 448.844 16.9036 448.469 16.5078C448.099 16.112 447.617 15.9141 447.023 15.9141ZM456.43 20.9219V16.1016H455.289V14.9844H455.773C456.081 14.9844 456.281 14.9219 456.375 14.7969C456.474 14.6667 456.523 14.3984 456.523 13.9922V12.2812H457.789V14.9375H459.961V16.1016H457.789V20.6797C457.789 21.1797 457.872 21.5234 458.039 21.7109C458.206 21.8984 458.49 21.9922 458.891 21.9922C459.234 21.9922 459.591 21.9115 459.961 21.75V22.8906C459.576 23.0677 459.112 23.1562 458.57 23.1562C457.805 23.1562 457.255 22.987 456.922 22.6484C456.594 22.3047 456.43 21.7292 456.43 20.9219ZM465.594 14.7734C466.38 14.7734 467 15.0182 467.453 15.5078C467.906 15.9974 468.133 16.6979 468.133 17.6094V23H466.773V17.9297C466.773 17.2474 466.635 16.7526 466.359 16.4453C466.083 16.1328 465.667 15.9766 465.109 15.9766C464.474 15.9766 463.951 16.2474 463.539 16.7891C463.128 17.3307 462.922 18.026 462.922 18.875V23H461.562V11.4766H462.922V14.9375C462.922 15.2969 462.911 15.8516 462.891 16.6016H462.922C463.062 16.0859 463.362 15.6536 463.82 15.3047C464.284 14.9505 464.875 14.7734 465.594 14.7734ZM469.906 21.0156C469.906 20.6667 469.961 20.3568 470.07 20.0859C470.185 19.8151 470.352 19.5859 470.57 19.3984C470.794 19.2109 471.047 19.0521 471.328 18.9219C471.615 18.7917 471.956 18.6901 472.352 18.6172C472.753 18.5391 473.156 18.4818 473.562 18.4453C473.969 18.4089 474.43 18.3854 474.945 18.375V17.7188C474.945 17.1146 474.81 16.6693 474.539 16.3828C474.273 16.0911 473.849 15.9453 473.266 15.9453C472.75 15.9453 472.333 16.0755 472.016 16.3359C471.698 16.5964 471.539 16.9609 471.539 17.4297C471.539 17.5495 471.544 17.6458 471.555 17.7188H470.273C470.263 17.6354 470.258 17.5391 470.258 17.4297C470.258 16.638 470.542 15.9974 471.109 15.5078C471.682 15.0182 472.422 14.7734 473.328 14.7734C474.302 14.7734 475.042 15.026 475.547 15.5312C476.052 16.0365 476.305 16.7708 476.305 17.7344V20.6797C476.305 21.1745 476.341 21.513 476.414 21.6953C476.492 21.8724 476.628 21.9609 476.82 21.9609C476.971 21.9609 477.094 21.9349 477.188 21.8828V22.9219C477 23.0469 476.727 23.1094 476.367 23.1094C475.872 23.1094 475.526 23.0078 475.328 22.8047C475.135 22.5964 475.023 22.224 474.992 21.6875H474.961C474.742 22.151 474.409 22.513 473.961 22.7734C473.518 23.0286 472.982 23.1562 472.352 23.1562C471.581 23.1562 470.979 22.9688 470.547 22.5938C470.12 22.2188 469.906 21.6927 469.906 21.0156ZM474.945 20.4062V19.3359C473.69 19.3516 472.768 19.4766 472.18 19.7109C471.591 19.9401 471.297 20.3281 471.297 20.875C471.297 21.6719 471.784 22.0703 472.758 22.0703C473.237 22.0703 473.672 21.9297 474.062 21.6484C474.458 21.3672 474.753 20.9531 474.945 20.4062ZM478.734 14.9375H480.078V16.6016H480.109C480.25 16.0859 480.547 15.6536 481 15.3047C481.453 14.9505 482.026 14.7734 482.719 14.7734C483.521 14.7734 484.151 15.0182 484.609 15.5078C485.073 15.9974 485.305 16.6979 485.305 17.6094V23H483.945V17.9297C483.945 17.2474 483.807 16.7526 483.531 16.4453C483.255 16.1328 482.839 15.9766 482.281 15.9766C481.646 15.9766 481.122 16.2474 480.711 16.7891C480.299 17.3307 480.094 18.026 480.094 18.875V23H478.734V14.9375ZM491.602 20.9219V16.1016H490.461V14.9844H490.945C491.253 14.9844 491.453 14.9219 491.547 14.7969C491.646 14.6667 491.695 14.3984 491.695 13.9922V12.2812H492.961V14.9375H495.133V16.1016H492.961V20.6797C492.961 21.1797 493.044 21.5234 493.211 21.7109C493.378 21.8984 493.661 21.9922 494.062 21.9922C494.406 21.9922 494.763 21.9115 495.133 21.75V22.8906C494.747 23.0677 494.284 23.1562 493.742 23.1562C492.977 23.1562 492.427 22.987 492.094 22.6484C491.766 22.3047 491.602 21.7292 491.602 20.9219ZM500.766 14.7734C501.552 14.7734 502.172 15.0182 502.625 15.5078C503.078 15.9974 503.305 16.6979 503.305 17.6094V23H501.945V17.9297C501.945 17.2474 501.807 16.7526 501.531 16.4453C501.255 16.1328 500.839 15.9766 500.281 15.9766C499.646 15.9766 499.122 16.2474 498.711 16.7891C498.299 17.3307 498.094 18.026 498.094 18.875V23H496.734V11.4766H498.094V14.9375C498.094 15.2969 498.083 15.8516 498.062 16.6016H498.094C498.234 16.0859 498.534 15.6536 498.992 15.3047C499.456 14.9505 500.047 14.7734 500.766 14.7734ZM505.609 14.9375H506.953V16.9375H506.984C507.161 16.3073 507.458 15.7969 507.875 15.4062C508.292 15.0156 508.794 14.8203 509.383 14.8203C509.664 14.8203 509.93 14.849 510.18 14.9062V16.2812C509.919 16.2083 509.622 16.1719 509.289 16.1719C508.992 16.1719 508.708 16.2344 508.438 16.3594C508.172 16.4792 507.927 16.6615 507.703 16.9062C507.479 17.1458 507.299 17.4688 507.164 17.875C507.034 18.276 506.969 18.737 506.969 19.2578V23H505.609V14.9375ZM518.055 18.6797C518.055 18.8047 518.044 19.0078 518.023 19.2891H512.461C512.477 20.1589 512.682 20.8281 513.078 21.2969C513.474 21.7604 514.023 21.9922 514.727 21.9922C515.331 21.9922 515.799 21.8333 516.133 21.5156C516.466 21.1979 516.659 20.8125 516.711 20.3594H517.977C517.951 20.724 517.859 21.0729 517.703 21.4062C517.552 21.7344 517.344 22.0312 517.078 22.2969C516.812 22.5573 516.474 22.7656 516.062 22.9219C515.656 23.0781 515.206 23.1562 514.711 23.1562C513.581 23.1562 512.69 22.7917 512.039 22.0625C511.388 21.3333 511.062 20.3073 511.062 18.9844C511.062 17.6875 511.401 16.6615 512.078 15.9062C512.755 15.151 513.607 14.7734 514.633 14.7734C515.685 14.7734 516.518 15.1224 517.133 15.8203C517.747 16.5182 518.055 17.4714 518.055 18.6797ZM514.633 15.9141C514.055 15.9141 513.573 16.1172 513.188 16.5234C512.802 16.9297 512.57 17.5104 512.492 18.2656H516.711C516.664 17.4896 516.453 16.9036 516.078 16.5078C515.708 16.112 515.227 15.9141 514.633 15.9141ZM526.602 18.6797C526.602 18.8047 526.591 19.0078 526.57 19.2891H521.008C521.023 20.1589 521.229 20.8281 521.625 21.2969C522.021 21.7604 522.57 21.9922 523.273 21.9922C523.878 21.9922 524.346 21.8333 524.68 21.5156C525.013 21.1979 525.206 20.8125 525.258 20.3594H526.523C526.497 20.724 526.406 21.0729 526.25 21.4062C526.099 21.7344 525.891 22.0312 525.625 22.2969C525.359 22.5573 525.021 22.7656 524.609 22.9219C524.203 23.0781 523.753 23.1562 523.258 23.1562C522.128 23.1562 521.237 22.7917 520.586 22.0625C519.935 21.3333 519.609 20.3073 519.609 18.9844C519.609 17.6875 519.948 16.6615 520.625 15.9062C521.302 15.151 522.154 14.7734 523.18 14.7734C524.232 14.7734 525.065 15.1224 525.68 15.8203C526.294 16.5182 526.602 17.4714 526.602 18.6797ZM523.18 15.9141C522.602 15.9141 522.12 16.1172 521.734 16.5234C521.349 16.9297 521.117 17.5104 521.039 18.2656H525.258C525.211 17.4896 525 16.9036 524.625 16.5078C524.255 16.112 523.773 15.9141 523.18 15.9141ZM528.383 18.3438C528.383 15.6823 529.227 12.9688 530.914 10.2031H532.031C531.635 10.9688 531.318 11.6146 531.078 12.1406C530.839 12.6615 530.594 13.2734 530.344 13.9766C530.094 14.6745 529.909 15.3802 529.789 16.0938C529.674 16.8073 529.617 17.5573 529.617 18.3438C529.617 19.1302 529.674 19.8828 529.789 20.6016C529.909 21.3203 530.094 22.0312 530.344 22.7344C530.594 23.4375 530.839 24.0521 531.078 24.5781C531.318 25.1042 531.635 25.7526 532.031 26.5234H530.914C529.227 23.7578 528.383 21.0312 528.383 18.3438ZM533.266 19.7656H534.656C534.714 20.4531 534.953 20.9948 535.375 21.3906C535.797 21.7812 536.375 21.9766 537.109 21.9766C537.828 21.9766 538.406 21.7969 538.844 21.4375C539.286 21.0781 539.508 20.5807 539.508 19.9453C539.508 19.2995 539.286 18.8333 538.844 18.5469C538.401 18.2604 537.737 18.1172 536.852 18.1172H535.969V16.9375H536.836C537.654 16.9375 538.271 16.7734 538.688 16.4453C539.104 16.112 539.312 15.651 539.312 15.0625C539.312 14.5312 539.133 14.1068 538.773 13.7891C538.419 13.4661 537.901 13.3047 537.219 13.3047C536.536 13.3047 535.992 13.4844 535.586 13.8438C535.18 14.1979 534.977 14.6849 534.977 15.3047C534.977 15.4036 534.982 15.4948 534.992 15.5781H533.602C533.591 15.4844 533.586 15.3828 533.586 15.2734C533.586 14.3047 533.924 13.5312 534.602 12.9531C535.279 12.375 536.167 12.0859 537.266 12.0859C538.354 12.0859 539.206 12.3568 539.82 12.8984C540.435 13.4401 540.742 14.1406 540.742 15C540.742 15.6719 540.568 16.2135 540.219 16.625C539.875 17.0365 539.398 17.3047 538.789 17.4297V17.4609C539.466 17.5807 539.995 17.849 540.375 18.2656C540.755 18.6823 540.945 19.263 540.945 20.0078C540.945 20.987 540.599 21.763 539.906 22.3359C539.214 22.9089 538.286 23.1953 537.125 23.1953C535.88 23.1953 534.935 22.888 534.289 22.2734C533.648 21.6536 533.307 20.8177 533.266 19.7656ZM544.789 18.375C544.789 17.7396 544.745 17.1146 544.656 16.5C544.573 15.8854 544.466 15.3307 544.336 14.8359C544.206 14.3411 544.026 13.8099 543.797 13.2422C543.568 12.6693 543.352 12.1693 543.148 11.7422C542.945 11.3151 542.688 10.8021 542.375 10.2031H543.492C545.174 12.9635 546.016 15.6875 546.016 18.375C546.016 21.0469 545.174 23.763 543.492 26.5234H542.375C542.771 25.763 543.089 25.1172 543.328 24.5859C543.568 24.0599 543.812 23.4479 544.062 22.75C544.312 22.0521 544.495 21.3464 544.609 20.6328C544.729 19.9141 544.789 19.1615 544.789 18.375ZM551.312 20.5547H552.656C552.698 21.5339 553.323 22.0234 554.531 22.0234C555.078 22.0234 555.505 21.9167 555.812 21.7031C556.12 21.4896 556.273 21.2188 556.273 20.8906C556.273 20.724 556.253 20.5833 556.211 20.4688C556.169 20.3542 556.102 20.2552 556.008 20.1719C555.919 20.0885 555.807 20.0156 555.672 19.9531C555.542 19.8906 555.378 19.8307 555.18 19.7734C554.987 19.7109 554.773 19.6458 554.539 19.5781C554.482 19.5625 554.44 19.5521 554.414 19.5469C553.523 19.3073 552.919 19.1094 552.602 18.9531C552.023 18.6667 551.669 18.2552 551.539 17.7188C551.492 17.526 551.469 17.3125 551.469 17.0781C551.469 16.375 551.753 15.8151 552.32 15.3984C552.893 14.9818 553.607 14.7734 554.461 14.7734C555.435 14.7734 556.193 14.9948 556.734 15.4375C557.276 15.8802 557.539 16.5026 557.523 17.3047H556.18C556.174 16.8516 556.023 16.5078 555.727 16.2734C555.435 16.0339 555.018 15.9141 554.477 15.9141C553.997 15.9141 553.602 16.013 553.289 16.2109C552.982 16.4089 552.828 16.6667 552.828 16.9844C552.828 17.151 552.857 17.2969 552.914 17.4219C552.971 17.5417 553.029 17.638 553.086 17.7109C553.143 17.7839 553.268 17.862 553.461 17.9453C553.659 18.0234 553.807 18.0781 553.906 18.1094C554.005 18.1406 554.214 18.1979 554.531 18.2812C554.547 18.2865 554.56 18.2917 554.57 18.2969C554.581 18.2969 554.591 18.2995 554.602 18.3047C554.617 18.3047 554.63 18.3073 554.641 18.3125C555 18.401 555.292 18.4792 555.516 18.5469C555.745 18.6146 555.987 18.6979 556.242 18.7969C556.497 18.8958 556.698 19.0026 556.844 19.1172C556.995 19.2266 557.135 19.362 557.266 19.5234C557.396 19.6797 557.49 19.8646 557.547 20.0781C557.604 20.2865 557.633 20.5234 557.633 20.7891C557.633 21.487 557.344 22.0573 556.766 22.5C556.193 22.9375 555.43 23.1562 554.477 23.1562C553.487 23.1562 552.711 22.9401 552.148 22.5078C551.591 22.0703 551.312 21.4193 551.312 20.5547ZM563.516 14.7734C564.302 14.7734 564.922 15.0182 565.375 15.5078C565.828 15.9974 566.055 16.6979 566.055 17.6094V23H564.695V17.9297C564.695 17.2474 564.557 16.7526 564.281 16.4453C564.005 16.1328 563.589 15.9766 563.031 15.9766C562.396 15.9766 561.872 16.2474 561.461 16.7891C561.049 17.3307 560.844 18.026 560.844 18.875V23H559.484V11.4766H560.844V14.9375C560.844 15.2969 560.833 15.8516 560.812 16.6016H560.844C560.984 16.0859 561.284 15.6536 561.742 15.3047C562.206 14.9505 562.797 14.7734 563.516 14.7734ZM574.914 18.6797C574.914 18.8047 574.904 19.0078 574.883 19.2891H569.32C569.336 20.1589 569.542 20.8281 569.938 21.2969C570.333 21.7604 570.883 21.9922 571.586 21.9922C572.19 21.9922 572.659 21.8333 572.992 21.5156C573.326 21.1979 573.518 20.8125 573.57 20.3594H574.836C574.81 20.724 574.719 21.0729 574.562 21.4062C574.411 21.7344 574.203 22.0312 573.938 22.2969C573.672 22.5573 573.333 22.7656 572.922 22.9219C572.516 23.0781 572.065 23.1562 571.57 23.1562C570.44 23.1562 569.549 22.7917 568.898 22.0625C568.247 21.3333 567.922 20.3073 567.922 18.9844C567.922 17.6875 568.26 16.6615 568.938 15.9062C569.615 15.151 570.466 14.7734 571.492 14.7734C572.544 14.7734 573.378 15.1224 573.992 15.8203C574.607 16.5182 574.914 17.4714 574.914 18.6797ZM571.492 15.9141C570.914 15.9141 570.432 16.1172 570.047 16.5234C569.661 16.9297 569.43 17.5104 569.352 18.2656H573.57C573.523 17.4896 573.312 16.9036 572.938 16.5078C572.568 16.112 572.086 15.9141 571.492 15.9141ZM583.461 18.6797C583.461 18.8047 583.451 19.0078 583.43 19.2891H577.867C577.883 20.1589 578.089 20.8281 578.484 21.2969C578.88 21.7604 579.43 21.9922 580.133 21.9922C580.737 21.9922 581.206 21.8333 581.539 21.5156C581.872 21.1979 582.065 20.8125 582.117 20.3594H583.383C583.357 20.724 583.266 21.0729 583.109 21.4062C582.958 21.7344 582.75 22.0312 582.484 22.2969C582.219 22.5573 581.88 22.7656 581.469 22.9219C581.062 23.0781 580.612 23.1562 580.117 23.1562C578.987 23.1562 578.096 22.7917 577.445 22.0625C576.794 21.3333 576.469 20.3073 576.469 18.9844C576.469 17.6875 576.807 16.6615 577.484 15.9062C578.161 15.151 579.013 14.7734 580.039 14.7734C581.091 14.7734 581.924 15.1224 582.539 15.8203C583.154 16.5182 583.461 17.4714 583.461 18.6797ZM580.039 15.9141C579.461 15.9141 578.979 16.1172 578.594 16.5234C578.208 16.9297 577.977 17.5104 577.898 18.2656H582.117C582.07 17.4896 581.859 16.9036 581.484 16.5078C581.115 16.112 580.633 15.9141 580.039 15.9141ZM585.773 20.9219V16.1016H584.633V14.9844H585.117C585.424 14.9844 585.625 14.9219 585.719 14.7969C585.818 14.6667 585.867 14.3984 585.867 13.9922V12.2812H587.133V14.9375H589.305V16.1016H587.133V20.6797C587.133 21.1797 587.216 21.5234 587.383 21.7109C587.549 21.8984 587.833 21.9922 588.234 21.9922C588.578 21.9922 588.935 21.9115 589.305 21.75V22.8906C588.919 23.0677 588.456 23.1562 587.914 23.1562C587.148 23.1562 586.599 22.987 586.266 22.6484C585.938 22.3047 585.773 21.7292 585.773 20.9219ZM590.281 20.5547H591.625C591.667 21.5339 592.292 22.0234 593.5 22.0234C594.047 22.0234 594.474 21.9167 594.781 21.7031C595.089 21.4896 595.242 21.2188 595.242 20.8906C595.242 20.724 595.221 20.5833 595.18 20.4688C595.138 20.3542 595.07 20.2552 594.977 20.1719C594.888 20.0885 594.776 20.0156 594.641 19.9531C594.51 19.8906 594.346 19.8307 594.148 19.7734C593.956 19.7109 593.742 19.6458 593.508 19.5781C593.451 19.5625 593.409 19.5521 593.383 19.5469C592.492 19.3073 591.888 19.1094 591.57 18.9531C590.992 18.6667 590.638 18.2552 590.508 17.7188C590.461 17.526 590.438 17.3125 590.438 17.0781C590.438 16.375 590.721 15.8151 591.289 15.3984C591.862 14.9818 592.576 14.7734 593.43 14.7734C594.404 14.7734 595.161 14.9948 595.703 15.4375C596.245 15.8802 596.508 16.5026 596.492 17.3047H595.148C595.143 16.8516 594.992 16.5078 594.695 16.2734C594.404 16.0339 593.987 15.9141 593.445 15.9141C592.966 15.9141 592.57 16.013 592.258 16.2109C591.951 16.4089 591.797 16.6667 591.797 16.9844C591.797 17.151 591.826 17.2969 591.883 17.4219C591.94 17.5417 591.997 17.638 592.055 17.7109C592.112 17.7839 592.237 17.862 592.43 17.9453C592.628 18.0234 592.776 18.0781 592.875 18.1094C592.974 18.1406 593.182 18.1979 593.5 18.2812C593.516 18.2865 593.529 18.2917 593.539 18.2969C593.549 18.2969 593.56 18.2995 593.57 18.3047C593.586 18.3047 593.599 18.3073 593.609 18.3125C593.969 18.401 594.26 18.4792 594.484 18.5469C594.714 18.6146 594.956 18.6979 595.211 18.7969C595.466 18.8958 595.667 19.0026 595.812 19.1172C595.964 19.2266 596.104 19.362 596.234 19.5234C596.365 19.6797 596.458 19.8646 596.516 20.0781C596.573 20.2865 596.602 20.5234 596.602 20.7891C596.602 21.487 596.312 22.0573 595.734 22.5C595.161 22.9375 594.398 23.1562 593.445 23.1562C592.456 23.1562 591.68 22.9401 591.117 22.5078C590.56 22.0703 590.281 21.4193 590.281 20.5547ZM602.047 11.8672H603.469V13.3047H602.047V11.8672ZM602.078 14.9375H603.438V23H602.078V14.9375ZM605.859 14.9375H607.203V16.6016H607.234C607.375 16.0859 607.672 15.6536 608.125 15.3047C608.578 14.9505 609.151 14.7734 609.844 14.7734C610.646 14.7734 611.276 15.0182 611.734 15.5078C612.198 15.9974 612.43 16.6979 612.43 17.6094V23H611.07V17.9297C611.07 17.2474 610.932 16.7526 610.656 16.4453C610.38 16.1328 609.964 15.9766 609.406 15.9766C608.771 15.9766 608.247 16.2474 607.836 16.7891C607.424 17.3307 607.219 18.026 607.219 18.875V23H605.859V14.9375ZM617.828 21.0156C617.828 20.6667 617.883 20.3568 617.992 20.0859C618.107 19.8151 618.273 19.5859 618.492 19.3984C618.716 19.2109 618.969 19.0521 619.25 18.9219C619.536 18.7917 619.878 18.6901 620.273 18.6172C620.674 18.5391 621.078 18.4818 621.484 18.4453C621.891 18.4089 622.352 18.3854 622.867 18.375V17.7188C622.867 17.1146 622.732 16.6693 622.461 16.3828C622.195 16.0911 621.771 15.9453 621.188 15.9453C620.672 15.9453 620.255 16.0755 619.938 16.3359C619.62 16.5964 619.461 16.9609 619.461 17.4297C619.461 17.5495 619.466 17.6458 619.477 17.7188H618.195C618.185 17.6354 618.18 17.5391 618.18 17.4297C618.18 16.638 618.464 15.9974 619.031 15.5078C619.604 15.0182 620.344 14.7734 621.25 14.7734C622.224 14.7734 622.964 15.026 623.469 15.5312C623.974 16.0365 624.227 16.7708 624.227 17.7344V20.6797C624.227 21.1745 624.263 21.513 624.336 21.6953C624.414 21.8724 624.549 21.9609 624.742 21.9609C624.893 21.9609 625.016 21.9349 625.109 21.8828V22.9219C624.922 23.0469 624.648 23.1094 624.289 23.1094C623.794 23.1094 623.448 23.0078 623.25 22.8047C623.057 22.5964 622.945 22.224 622.914 21.6875H622.883C622.664 22.151 622.331 22.513 621.883 22.7734C621.44 23.0286 620.904 23.1562 620.273 23.1562C619.503 23.1562 618.901 22.9688 618.469 22.5938C618.042 22.2188 617.828 21.6927 617.828 21.0156ZM622.867 20.4062V19.3359C621.612 19.3516 620.69 19.4766 620.102 19.7109C619.513 19.9401 619.219 20.3281 619.219 20.875C619.219 21.6719 619.706 22.0703 620.68 22.0703C621.159 22.0703 621.594 21.9297 621.984 21.6484C622.38 21.3672 622.674 20.9531 622.867 20.4062ZM629.703 20.5547H631.047C631.089 21.5339 631.714 22.0234 632.922 22.0234C633.469 22.0234 633.896 21.9167 634.203 21.7031C634.51 21.4896 634.664 21.2188 634.664 20.8906C634.664 20.724 634.643 20.5833 634.602 20.4688C634.56 20.3542 634.492 20.2552 634.398 20.1719C634.31 20.0885 634.198 20.0156 634.062 19.9531C633.932 19.8906 633.768 19.8307 633.57 19.7734C633.378 19.7109 633.164 19.6458 632.93 19.5781C632.872 19.5625 632.831 19.5521 632.805 19.5469C631.914 19.3073 631.31 19.1094 630.992 18.9531C630.414 18.6667 630.06 18.2552 629.93 17.7188C629.883 17.526 629.859 17.3125 629.859 17.0781C629.859 16.375 630.143 15.8151 630.711 15.3984C631.284 14.9818 631.997 14.7734 632.852 14.7734C633.826 14.7734 634.583 14.9948 635.125 15.4375C635.667 15.8802 635.93 16.5026 635.914 17.3047H634.57C634.565 16.8516 634.414 16.5078 634.117 16.2734C633.826 16.0339 633.409 15.9141 632.867 15.9141C632.388 15.9141 631.992 16.013 631.68 16.2109C631.372 16.4089 631.219 16.6667 631.219 16.9844C631.219 17.151 631.247 17.2969 631.305 17.4219C631.362 17.5417 631.419 17.638 631.477 17.7109C631.534 17.7839 631.659 17.862 631.852 17.9453C632.049 18.0234 632.198 18.0781 632.297 18.1094C632.396 18.1406 632.604 18.1979 632.922 18.2812C632.938 18.2865 632.951 18.2917 632.961 18.2969C632.971 18.2969 632.982 18.2995 632.992 18.3047C633.008 18.3047 633.021 18.3073 633.031 18.3125C633.391 18.401 633.682 18.4792 633.906 18.5469C634.135 18.6146 634.378 18.6979 634.633 18.7969C634.888 18.8958 635.089 19.0026 635.234 19.1172C635.385 19.2266 635.526 19.362 635.656 19.5234C635.786 19.6797 635.88 19.8646 635.938 20.0781C635.995 20.2865 636.023 20.5234 636.023 20.7891C636.023 21.487 635.734 22.0573 635.156 22.5C634.583 22.9375 633.82 23.1562 632.867 23.1562C631.878 23.1562 631.102 22.9401 630.539 22.5078C629.982 22.0703 629.703 21.4193 629.703 20.5547ZM637.844 11.8672H639.266V13.3047H637.844V11.8672ZM637.875 14.9375H639.234V23H637.875V14.9375ZM641.656 14.9375H643V16.6016H643.031C643.172 16.0859 643.469 15.6536 643.922 15.3047C644.375 14.9505 644.948 14.7734 645.641 14.7734C646.443 14.7734 647.073 15.0182 647.531 15.5078C647.995 15.9974 648.227 16.6979 648.227 17.6094V23H646.867V17.9297C646.867 17.2474 646.729 16.7526 646.453 16.4453C646.177 16.1328 645.76 15.9766 645.203 15.9766C644.568 15.9766 644.044 16.2474 643.633 16.7891C643.221 17.3307 643.016 18.026 643.016 18.875V23H641.656V14.9375ZM657.539 15.0469C657.185 15.0208 656.885 15.0443 656.641 15.1172C656.401 15.1901 656.177 15.3542 655.969 15.6094C656.49 16.1042 656.75 16.7708 656.75 17.6094C656.75 18.4844 656.456 19.1797 655.867 19.6953C655.284 20.2109 654.492 20.4688 653.492 20.4688C652.862 20.4688 652.333 20.375 651.906 20.1875C651.583 20.4375 651.422 20.7031 651.422 20.9844C651.422 21.2396 651.495 21.4219 651.641 21.5312C651.786 21.6354 652.018 21.6875 652.336 21.6875H654.898C655.727 21.6875 656.37 21.8672 656.828 22.2266C657.292 22.5859 657.523 23.099 657.523 23.7656C657.523 24.6094 657.141 25.2969 656.375 25.8281C655.609 26.3646 654.609 26.6328 653.375 26.6328C652.198 26.6328 651.279 26.4349 650.617 26.0391C649.961 25.6432 649.633 25.1094 649.633 24.4375C649.633 23.974 649.758 23.5964 650.008 23.3047C650.258 23.0182 650.617 22.7839 651.086 22.6016V22.5703C650.513 22.3724 650.227 21.9349 650.227 21.2578C650.227 20.6172 650.568 20.1302 651.25 19.7969C650.609 19.2917 650.289 18.5833 650.289 17.6719C650.289 16.7917 650.586 16.0885 651.18 15.5625C651.773 15.0365 652.57 14.7734 653.57 14.7734C654.253 14.7734 654.844 14.901 655.344 15.1562C655.823 14.2448 656.479 13.7969 657.312 13.8125C657.422 13.8125 657.497 13.8177 657.539 13.8281V15.0469ZM653.508 19.3828C654.086 19.3828 654.549 19.2266 654.898 18.9141C655.247 18.5964 655.422 18.1719 655.422 17.6406C655.422 17.1042 655.253 16.6745 654.914 16.3516C654.581 16.0286 654.128 15.8672 653.555 15.8672C652.971 15.8672 652.503 16.0286 652.148 16.3516C651.794 16.6745 651.617 17.1042 651.617 17.6406C651.617 18.1771 651.786 18.6016 652.125 18.9141C652.464 19.2266 652.924 19.3828 653.508 19.3828ZM651.953 22.9375C651.656 23.0573 651.422 23.2266 651.25 23.4453C651.078 23.6641 650.992 23.9062 650.992 24.1719C650.992 24.599 651.177 24.9219 651.547 25.1406C651.922 25.3646 652.526 25.4766 653.359 25.4766C654.24 25.4766 654.919 25.3281 655.398 25.0312C655.883 24.7396 656.125 24.3776 656.125 23.9453C656.125 23.2734 655.69 22.9375 654.82 22.9375H651.953ZM659.047 11.4766H660.406V23H659.047V11.4766ZM669.383 18.6797C669.383 18.8047 669.372 19.0078 669.352 19.2891H663.789C663.805 20.1589 664.01 20.8281 664.406 21.2969C664.802 21.7604 665.352 21.9922 666.055 21.9922C666.659 21.9922 667.128 21.8333 667.461 21.5156C667.794 21.1979 667.987 20.8125 668.039 20.3594H669.305C669.279 20.724 669.188 21.0729 669.031 21.4062C668.88 21.7344 668.672 22.0312 668.406 22.2969C668.141 22.5573 667.802 22.7656 667.391 22.9219C666.984 23.0781 666.534 23.1562 666.039 23.1562C664.909 23.1562 664.018 22.7917 663.367 22.0625C662.716 21.3333 662.391 20.3073 662.391 18.9844C662.391 17.6875 662.729 16.6615 663.406 15.9062C664.083 15.151 664.935 14.7734 665.961 14.7734C667.013 14.7734 667.846 15.1224 668.461 15.8203C669.076 16.5182 669.383 17.4714 669.383 18.6797ZM665.961 15.9141C665.383 15.9141 664.901 16.1172 664.516 16.5234C664.13 16.9297 663.898 17.5104 663.82 18.2656H668.039C667.992 17.4896 667.781 16.9036 667.406 16.5078C667.036 16.112 666.555 15.9141 665.961 15.9141ZM685.07 14.9375V23H683.711V16.0859H680.352V23H678.992V16.0859H677.805V14.9375H678.992V13.8672C678.992 12.1693 679.818 11.3203 681.469 11.3203C681.74 11.3203 682.044 11.3568 682.383 11.4297V12.5703C682.133 12.513 681.872 12.4844 681.602 12.4844C681.201 12.4844 680.891 12.5833 680.672 12.7812C680.458 12.9792 680.352 13.3229 680.352 13.8125V14.9375H685.07ZM683.664 11.8672H685.102V13.3047H683.664V11.8672ZM687.609 11.4766H688.969V23H687.609V11.4766ZM697.945 18.6797C697.945 18.8047 697.935 19.0078 697.914 19.2891H692.352C692.367 20.1589 692.573 20.8281 692.969 21.2969C693.365 21.7604 693.914 21.9922 694.617 21.9922C695.221 21.9922 695.69 21.8333 696.023 21.5156C696.357 21.1979 696.549 20.8125 696.602 20.3594H697.867C697.841 20.724 697.75 21.0729 697.594 21.4062C697.443 21.7344 697.234 22.0312 696.969 22.2969C696.703 22.5573 696.365 22.7656 695.953 22.9219C695.547 23.0781 695.096 23.1562 694.602 23.1562C693.471 23.1562 692.581 22.7917 691.93 22.0625C691.279 21.3333 690.953 20.3073 690.953 18.9844C690.953 17.6875 691.292 16.6615 691.969 15.9062C692.646 15.151 693.497 14.7734 694.523 14.7734C695.576 14.7734 696.409 15.1224 697.023 15.8203C697.638 16.5182 697.945 17.4714 697.945 18.6797ZM694.523 15.9141C693.945 15.9141 693.464 16.1172 693.078 16.5234C692.693 16.9297 692.461 17.5104 692.383 18.2656H696.602C696.555 17.4896 696.344 16.9036 695.969 16.5078C695.599 16.112 695.117 15.9141 694.523 15.9141Z" fill="#2B6F5A"/>
<rect x="27.5" y="0.5" width="679" height="34" rx="3.5" stroke="#84AA89"/>
</svg>
