<svg width="47" height="40" viewBox="0 0 47 40" fill="none" xmlns="http://www.w3.org/2000/svg">
<path d="M2 34.8477V5.43525C2 4.61413 2.34849 3.82664 2.9688 3.24602C3.58911 2.66539 4.43044 2.3392 5.30769 2.3392H17.5131C18.2687 2.3186 19.009 2.54086 19.6108 2.96898C20.2127 3.39711 20.6397 4.00526 20.8208 4.6922L21.8462 8.5313H41.6923C42.5696 8.5313 43.4109 8.85749 44.0312 9.43811C44.6515 10.0187 45 10.8062 45 11.6273V34.8477C45 35.6688 44.6515 36.4563 44.0312 37.0369C43.4109 37.6176 42.5696 37.9438 41.6923 37.9438H5.30769C4.43044 37.9438 3.58911 37.6176 2.9688 37.0369C2.34849 36.4563 2 35.6688 2 34.8477Z" fill="#2684FF" stroke="#2684FF" stroke-width="3.30769" stroke-linecap="round" stroke-linejoin="round"/>
<path d="M23.9297 17.8193V28.6555" stroke="white" stroke-width="3.30769" stroke-linecap="round" stroke-linejoin="round"/>
<path d="M18.1406 23.2373H29.7175" stroke="white" stroke-width="3.30769" stroke-linecap="round" stroke-linejoin="round"/>
</svg>
