<svg width="29" height="29" viewBox="0 0 29 29" fill="none" xmlns="http://www.w3.org/2000/svg">
<path d="M15.0386 14.3042C14.7399 14.429 14.4176 14.4934 14.0919 14.4934C13.7661 14.4934 13.4439 14.429 13.1451 14.3042L1.66302 9.18938C1.47657 9.09893 1.31988 8.96048 1.21041 8.78945C1.10093 8.61841 1.04297 8.42151 1.04297 8.22066C1.04297 8.01982 1.10093 7.82291 1.21041 7.65188C1.31988 7.48084 1.47657 7.34239 1.66302 7.25194L13.1451 2.09835C13.4439 1.97357 13.7661 1.90918 14.0919 1.90918C14.4176 1.90918 14.7399 1.97357 15.0386 2.09835L26.5207 7.21319C26.7072 7.30364 26.8639 7.44209 26.9734 7.61313C27.0828 7.78416 27.1408 7.98107 27.1408 8.18191C27.1408 8.38276 27.0828 8.57966 26.9734 8.7507C26.8639 8.92173 26.7072 9.06018 26.5207 9.15063L15.0386 14.3042Z" stroke="white" stroke-width="1.93744" stroke-linecap="round" stroke-linejoin="round"/>
<path d="M27.1872 15.1748L14.8994 20.619C14.6369 20.7341 14.3518 20.7937 14.0634 20.7937C13.7749 20.7937 13.4899 20.7341 13.2274 20.619L1 15.1748" stroke="white" stroke-width="1.93744" stroke-linecap="round" stroke-linejoin="round"/>
<path d="M27.1872 21.4717L14.8994 26.9159C14.6369 27.031 14.3518 27.0906 14.0634 27.0906C13.7749 27.0906 13.4899 27.031 13.2274 26.9159L1 21.4717" stroke="white" stroke-width="1.93744" stroke-linecap="round" stroke-linejoin="round"/>
</svg>
