<svg width="110" height="129" viewBox="0 0 110 129" fill="none" xmlns="http://www.w3.org/2000/svg">
<g opacity="0.6">
<rect x="37.3809" y="29.7685" width="60.4086" height="84.572" rx="6.04086" transform="rotate(2.5 37.3809 29.7685)" fill="#CCDCD7" stroke="#CCDCD7" stroke-width="1.72596"/>
<rect x="1.4689" y="24.7097" width="63.8605" height="88.0239" rx="7.76682" transform="rotate(-7.5 1.4689 24.7097)" fill="#ECF5ED" stroke="#CCDCD7" stroke-width="1.72596"/>
<path d="M3.33827 32.2974C2.84058 28.5172 5.50164 25.0492 9.28191 24.5515L57.1953 18.2436C60.9756 17.7459 64.4436 20.407 64.9412 24.1872L66.6309 37.0212L5.02789 45.1314L3.33827 32.2974Z" fill="#CCDCD7"/>
<rect x="77.4377" y="19.9307" width="2.58894" height="8.6298" rx="1.29447" transform="rotate(82.5 77.4377 19.9307)" fill="#CCDCD7"/>
<rect x="53.793" y="5.63477" width="2.58894" height="8.6298" rx="1.29447" transform="rotate(-7.5 53.793 5.63477)" fill="#CCDCD7"/>
<rect x="68.9629" y="7.98999" width="2.58894" height="8.6298" rx="1.29447" transform="rotate(37.5 68.9629 7.98999)" fill="#CCDCD7"/>
<rect x="11.4668" y="47.7651" width="50.0528" height="3.45192" rx="1.72596" transform="rotate(-7.5 11.4668 47.7651)" fill="#CCDCD7"/>
<rect x="13.7196" y="64.8772" width="50.0528" height="3.45192" rx="1.72596" transform="rotate(-7.5 13.7196 64.8772)" fill="#CCDCD7"/>
<rect x="15.9724" y="81.989" width="50.0528" height="3.45192" rx="1.72596" transform="rotate(-7.5 15.9724 81.989)" fill="#CCDCD7"/>
<rect x="12.3679" y="54.6101" width="18.1226" height="3.45192" rx="1.72596" transform="rotate(-7.5 12.3679 54.6101)" fill="#CCDCD7"/>
<rect x="14.6207" y="71.7219" width="18.1226" height="3.45192" rx="1.72596" transform="rotate(-7.5 14.6207 71.7219)" fill="#CCDCD7"/>
<rect x="16.8735" y="88.834" width="18.1226" height="3.45192" rx="1.72596" transform="rotate(-7.5 16.8735 88.834)" fill="#CCDCD7"/>
</g>
</svg>
