<svg width="22" height="22" viewBox="0 0 22 22" fill="none" xmlns="http://www.w3.org/2000/svg">
<g clip-path="url(#clip0_1935_1545)">
<path d="M11 13.75C12.5188 13.75 13.75 12.5188 13.75 11C13.75 9.48122 12.5188 8.25 11 8.25C9.48122 8.25 8.25 9.48122 8.25 11C8.25 12.5188 9.48122 13.75 11 13.75Z" stroke="#3D3D3D" stroke-width="2" stroke-linecap="round" stroke-linejoin="round"/>
<path d="M17.7833 13.7498C17.6613 14.0263 17.6249 14.333 17.6788 14.6304C17.7328 14.9277 17.8745 15.2021 18.0858 15.4182L18.1408 15.4732C18.3113 15.6434 18.4465 15.8456 18.5388 16.0682C18.631 16.2908 18.6785 16.5293 18.6785 16.7703C18.6785 17.0112 18.631 17.2497 18.5388 17.4723C18.4465 17.6949 18.3113 17.8971 18.1408 18.0673C17.9706 18.2378 17.7684 18.373 17.5458 18.4653C17.3232 18.5575 17.0847 18.605 16.8438 18.605C16.6028 18.605 16.3643 18.5575 16.1417 18.4653C15.9191 18.373 15.7169 18.2378 15.5467 18.0673L15.4917 18.0123C15.2756 17.801 15.0012 17.6592 14.7039 17.6053C14.4065 17.5514 14.0998 17.5878 13.8233 17.7098C13.5522 17.826 13.321 18.019 13.1581 18.2649C12.9953 18.5108 12.9078 18.799 12.9067 19.094V19.2498C12.9067 19.7361 12.7135 20.2024 12.3697 20.5462C12.0259 20.89 11.5596 21.0832 11.0733 21.0832C10.5871 21.0832 10.1208 20.89 9.77698 20.5462C9.43316 20.2024 9.24 19.7361 9.24 19.2498V19.1673C9.23291 18.8639 9.1347 18.5697 8.95814 18.3228C8.78158 18.076 8.53485 17.8879 8.25 17.7832C7.97352 17.6611 7.66683 17.6247 7.36947 17.6787C7.0721 17.7326 6.79771 17.8743 6.58167 18.0857L6.52667 18.1407C6.3564 18.3111 6.15421 18.4464 5.93165 18.5386C5.70908 18.6309 5.47052 18.6784 5.22959 18.6784C4.98866 18.6784 4.75009 18.6309 4.52753 18.5386C4.30497 18.4464 4.10277 18.3111 3.9325 18.1407C3.76205 17.9704 3.62682 17.7682 3.53456 17.5456C3.4423 17.3231 3.39481 17.0845 3.39481 16.8436C3.39481 16.6027 3.4423 16.3641 3.53456 16.1415C3.62682 15.919 3.76205 15.7168 3.9325 15.5465L3.9875 15.4915C4.19883 15.2755 4.34059 15.0011 4.39451 14.7037C4.44843 14.4063 4.41203 14.0997 4.29 13.8232C4.17381 13.552 3.98086 13.3208 3.73493 13.158C3.489 12.9951 3.20081 12.9077 2.90584 12.9065H2.75001C2.26377 12.9065 1.79746 12.7133 1.45364 12.3695C1.10983 12.0257 0.916672 11.5594 0.916672 11.0732C0.916672 10.5869 1.10983 10.1206 1.45364 9.77681C1.79746 9.43299 2.26377 9.23984 2.75001 9.23984H2.8325C3.13592 9.23274 3.43018 9.13453 3.67703 8.95797C3.92388 8.78141 4.11191 8.53468 4.21667 8.24984C4.33869 7.97336 4.37509 7.66666 4.32118 7.3693C4.26726 7.07194 4.1255 6.79754 3.91417 6.5815L3.85917 6.5265C3.68871 6.35624 3.55349 6.15404 3.46123 5.93148C3.36897 5.70891 3.32148 5.47035 3.32148 5.22942C3.32148 4.98849 3.36897 4.74993 3.46123 4.52736C3.55349 4.3048 3.68871 4.1026 3.85917 3.93234C4.02944 3.76188 4.23163 3.62666 4.4542 3.53439C4.67676 3.44213 4.91533 3.39464 5.15625 3.39464C5.39718 3.39464 5.63575 3.44213 5.85831 3.53439C6.08088 3.62666 6.28307 3.76188 6.45334 3.93234L6.50834 3.98734C6.72438 4.19866 6.99877 4.34042 7.29613 4.39434C7.59349 4.44826 7.90019 4.41186 8.17667 4.28984H8.25C8.52113 4.17364 8.75235 3.9807 8.91522 3.73476C9.07809 3.48883 9.16549 3.20064 9.16667 2.90567V2.74984C9.16667 2.26361 9.35983 1.79729 9.70364 1.45347C10.0475 1.10966 10.5138 0.916504 11 0.916504C11.4862 0.916504 11.9526 1.10966 12.2964 1.45347C12.6402 1.79729 12.8333 2.26361 12.8333 2.74984V2.83234C12.8345 3.12731 12.9219 3.4155 13.0848 3.66143C13.2477 3.90736 13.4789 4.1003 13.75 4.2165C14.0265 4.33853 14.3332 4.37493 14.6305 4.32101C14.9279 4.26709 15.2023 4.12533 15.4183 3.914L15.4733 3.859C15.6436 3.68855 15.8458 3.55332 16.0684 3.46106C16.2909 3.3688 16.5295 3.32131 16.7704 3.32131C17.0113 3.32131 17.2499 3.3688 17.4725 3.46106C17.695 3.55332 17.8972 3.68855 18.0675 3.859C18.238 4.02927 18.3732 4.23147 18.4654 4.45403C18.5577 4.67659 18.6052 4.91516 18.6052 5.15609C18.6052 5.39702 18.5577 5.63558 18.4654 5.85814C18.3732 6.08071 18.238 6.2829 18.0675 6.45317L18.0125 6.50817C17.8012 6.72421 17.6594 6.9986 17.6055 7.29596C17.5516 7.59333 17.588 7.90002 17.71 8.1765V8.24984C17.8262 8.52096 18.0191 8.75219 18.2651 8.91506C18.511 9.07792 18.7992 9.16533 19.0942 9.1665H19.25C19.7362 9.1665 20.2025 9.35966 20.5464 9.70347C20.8902 10.0473 21.0833 10.5136 21.0833 10.9998C21.0833 11.4861 20.8902 11.9524 20.5464 12.2962C20.2025 12.64 19.7362 12.8332 19.25 12.8332H19.1675C18.8725 12.8343 18.5843 12.9217 18.3384 13.0846C18.0925 13.2475 17.8995 13.4787 17.7833 13.7498V13.7498Z" stroke="#3D3D3D" stroke-width="2" stroke-linecap="round" stroke-linejoin="round"/>
</g>
<defs>
<clipPath id="clip0_1935_1545">
<rect width="22" height="22" fill="white"/>
</clipPath>
</defs>
</svg>
