<svg width="26" height="27" viewBox="0 0 26 27" fill="none" xmlns="http://www.w3.org/2000/svg">
<path d="M9.44098 4.90632L10.3056 2.89812C10.4514 2.5581 10.708 2.26564 11.0416 2.05904C11.3753 1.85243 11.7705 1.74131 12.1756 1.74023H13.8244C14.2295 1.74131 14.6247 1.85243 14.9584 2.05904C15.292 2.26564 15.5486 2.5581 15.6944 2.89812L16.559 4.90632L19.4947 6.42604L21.8674 6.10039C22.2625 6.05214 22.6646 6.11065 23.0226 6.2685C23.3806 6.42635 23.6784 6.67641 23.8781 6.98689L24.6824 8.25332C24.8885 8.56876 24.9835 8.933 24.9548 9.29799C24.926 9.66298 24.775 10.0116 24.5216 10.2977L23.0537 11.9803V15.0197L24.5618 16.7023C24.8152 16.9884 24.9663 17.337 24.995 17.702C25.0237 18.067 24.9287 18.4312 24.7226 18.7466L23.9183 20.0131C23.7186 20.3236 23.4208 20.5736 23.0628 20.7315C22.7048 20.8893 22.3027 20.9478 21.9076 20.8996L19.5349 20.5739L16.5992 22.0936L15.7346 24.1018C15.5888 24.4419 15.3323 24.7343 14.9986 24.9409C14.6649 25.1475 14.2697 25.2587 13.8646 25.2597H12.1756C11.7705 25.2587 11.3753 25.1475 11.0416 24.9409C10.708 24.7343 10.4514 24.4419 10.3056 24.1018L9.44098 22.0936L6.50529 20.5739L4.13261 20.8996C3.73754 20.9478 3.33544 20.8893 2.97741 20.7315C2.61938 20.5736 2.32158 20.3236 2.12187 20.0131L1.31757 18.7466C1.11147 18.4312 1.01652 18.067 1.04524 17.702C1.07395 17.337 1.225 16.9884 1.47843 16.7023L2.94628 15.0197V11.9803L1.43822 10.2977C1.18478 10.0116 1.03374 9.66298 1.00502 9.29799C0.976303 8.933 1.07126 8.56876 1.27736 8.25332L2.08165 6.98689C2.28137 6.67641 2.57916 6.42635 2.93719 6.2685C3.29522 6.11065 3.69732 6.05214 4.0924 6.10039L6.46508 6.42604L9.44098 4.90632ZM8.97851 13.5C8.97851 14.2156 9.21437 14.9152 9.65625 15.5102C10.0981 16.1053 10.7262 16.5691 11.461 16.8429C12.1959 17.1168 13.0045 17.1885 13.7846 17.0488C14.5646 16.9092 15.2812 16.5646 15.8436 16.0586C16.406 15.5525 16.789 14.9078 16.9442 14.2059C17.0994 13.504 17.0197 12.7765 16.7154 12.1153C16.411 11.4541 15.8955 10.889 15.2342 10.4914C14.5729 10.0938 13.7954 9.8816 13 9.8816C11.9334 9.8816 10.9106 10.2628 10.1564 10.9414C9.4022 11.62 8.97851 12.5403 8.97851 13.5Z" stroke="white" stroke-width="1.84318" stroke-linecap="round" stroke-linejoin="round"/>
</svg>
