<svg width="14" height="19" viewBox="0 0 14 19" fill="none" xmlns="http://www.w3.org/2000/svg">
<path d="M6.87776 18.0793C6.87776 18.0793 -0.10537 15.8107 1.29128 8.75896C2.1263 4.5429 7.17563 3.90129 7.17563 3.90129L7.23826 0.919884C7.24356 0.667848 7.55018 0.547061 7.72585 0.72781L12.6799 5.82515L7.51562 11.0519C7.33519 11.2346 7.02435 11.1032 7.02974 10.8465L7.08725 8.10875C7.08725 8.10875 5.00434 7.42203 3.84696 8.81182C2.61142 10.2955 2.68566 14.5279 6.87776 18.0793Z" fill="#4693E7"/>
<path d="M1.29128 8.75896L1.75555 8.85076L1.29128 8.75896ZM6.87776 18.0793L6.73139 18.5294C6.94646 18.5993 7.18096 18.5072 7.29111 18.3097C7.40126 18.1121 7.35629 17.8643 7.18376 17.7182L6.87776 18.0793ZM7.08725 8.10875L7.56044 8.11853L7.56778 7.76878L7.23557 7.65926L7.08725 8.10875ZM7.51562 11.0519L7.179 10.7194L7.51562 11.0519ZM12.6799 5.82515L13.0165 6.15773L13.3425 5.82777L13.0194 5.49524L12.6799 5.82515ZM7.72585 0.72781L7.38639 1.05772L7.38639 1.05772L7.72585 0.72781ZM7.17563 3.90129L7.23515 4.3708L7.64024 4.31932L7.64882 3.91108L7.17563 3.90129ZM3.84696 8.81182L3.48331 8.50903L3.84696 8.81182ZM0.827006 8.66715C0.0901694 12.3875 1.57446 14.876 3.23989 16.4115C4.06566 17.1729 4.93381 17.6998 5.59327 18.0363C5.92378 18.2049 6.20405 18.3268 6.40349 18.4071C6.50326 18.4473 6.58299 18.4771 6.63886 18.4973C6.6668 18.5074 6.6888 18.515 6.70437 18.5204C6.71216 18.523 6.71835 18.5251 6.72287 18.5266C6.72513 18.5274 6.72697 18.528 6.7284 18.5285C6.72911 18.5287 6.72971 18.5289 6.73021 18.5291C6.73046 18.5291 6.73076 18.5292 6.73088 18.5293C6.73115 18.5294 6.73139 18.5294 6.87776 18.0793C7.02412 17.6292 7.02431 17.6292 7.02447 17.6293C7.02449 17.6293 7.02462 17.6293 7.02466 17.6294C7.02474 17.6294 7.02471 17.6294 7.02457 17.6293C7.02431 17.6292 7.02362 17.629 7.02253 17.6286C7.02035 17.6279 7.01654 17.6266 7.01116 17.6248C7.00039 17.6211 6.98335 17.6152 6.96048 17.6069C6.91475 17.5904 6.84581 17.5647 6.75737 17.529C6.58037 17.4577 6.32599 17.3473 6.02366 17.1931C5.41743 16.8838 4.62709 16.4028 3.88165 15.7155C2.40469 14.3538 1.09574 12.1822 1.75555 8.85076L0.827006 8.66715ZM6.61407 8.09896L6.55655 10.8367L7.50292 10.8563L7.56044 8.11853L6.61407 8.09896ZM7.85225 11.3845L13.0165 6.15773L12.3433 5.49256L7.179 10.7194L7.85225 11.3845ZM13.0194 5.49524L8.0653 0.397899L7.38639 1.05772L12.3404 6.15506L13.0194 5.49524ZM6.76508 0.910095L6.70245 3.8915L7.64882 3.91108L7.71145 0.929672L6.76508 0.910095ZM7.17563 3.90129C7.11612 3.43178 7.11592 3.43181 7.11569 3.43184C7.11559 3.43185 7.11535 3.43188 7.11515 3.4319C7.11475 3.43196 7.11428 3.43202 7.11372 3.43209C7.11261 3.43223 7.1112 3.43242 7.10948 3.43265C7.10604 3.43311 7.1014 3.43374 7.09557 3.43456C7.08393 3.43619 7.06758 3.43856 7.04681 3.44176C7.00527 3.44816 6.946 3.45788 6.8713 3.47167C6.72197 3.49922 6.51042 3.5431 6.25506 3.60926C5.74564 3.74125 5.05502 3.96367 4.33403 4.3263C2.89497 5.0501 1.28349 6.36232 0.827006 8.66715L1.75555 8.85076C2.13408 6.93953 3.46478 5.82292 4.75915 5.1719C5.40487 4.84712 6.02878 4.64564 6.4922 4.52557C6.72326 4.4657 6.91271 4.42652 7.04278 4.40252C7.10777 4.39052 7.1578 4.38235 7.19064 4.37729C7.20705 4.37476 7.21916 4.37301 7.22667 4.37196C7.23043 4.37143 7.23304 4.37108 7.23446 4.37089C7.23517 4.37079 7.23559 4.37074 7.23571 4.37072C7.23576 4.37072 7.23575 4.37072 7.23565 4.37073C7.23561 4.37074 7.23548 4.37075 7.23546 4.37076C7.23531 4.37078 7.23515 4.3708 7.17563 3.90129ZM7.18376 17.7182C5.15857 16.0025 4.1515 14.1433 3.78824 12.5639C3.41922 10.9595 3.72141 9.70208 4.21062 9.11462L3.48331 8.50903C2.73698 9.40524 2.45851 11.0058 2.86574 12.7764C3.27875 14.572 4.40484 16.6047 6.57175 18.4405L7.18376 17.7182ZM4.21062 9.11462C4.66388 8.57033 5.30936 8.41422 5.90243 8.41239C6.19554 8.41149 6.45954 8.44902 6.65076 8.48726C6.74578 8.50626 6.82123 8.52511 6.87144 8.53873C6.89651 8.54553 6.91516 8.55099 6.92667 8.55447C6.93242 8.5562 6.93638 8.55744 6.93846 8.5581C6.9395 8.55842 6.94006 8.55861 6.94014 8.55863C6.94018 8.55865 6.9401 8.55862 6.9399 8.55855C6.9398 8.55852 6.93967 8.55848 6.93951 8.55842C6.93943 8.5584 6.93928 8.55835 6.93924 8.55834C6.93909 8.55829 6.93893 8.55823 7.08725 8.10875C7.23557 7.65926 7.2354 7.6592 7.23521 7.65914C7.23514 7.65911 7.23495 7.65905 7.2348 7.659C7.23451 7.65891 7.23419 7.6588 7.23384 7.65869C7.23313 7.65846 7.23229 7.65818 7.23133 7.65787C7.2294 7.65725 7.22696 7.65647 7.22402 7.65554C7.21814 7.65368 7.21027 7.65123 7.20048 7.64828C7.18092 7.64237 7.15369 7.63444 7.11954 7.62517C7.05131 7.60667 6.955 7.58273 6.83666 7.55907C6.60117 7.51198 6.27211 7.46469 5.89982 7.46583C5.16208 7.4681 4.18742 7.66352 3.48331 8.50903L4.21062 9.11462ZM8.0653 0.397899C7.59685 -0.0840993 6.7792 0.238002 6.76508 0.910095L7.71145 0.929672C7.70792 1.09769 7.5035 1.17822 7.38639 1.05772L8.0653 0.397899ZM6.55655 10.8367C6.54218 11.5211 7.37108 11.8715 7.85225 11.3845L7.179 10.7194C7.29929 10.5976 7.50652 10.6852 7.50292 10.8563L6.55655 10.8367Z" fill="#4693E7"/>
</svg>
