<svg width="20" height="22" viewBox="0 0 20 22" fill="none" xmlns="http://www.w3.org/2000/svg">
<path d="M0.796875 5.61914H18.9369" stroke="#000001" stroke-width="1.50441" stroke-linecap="round" stroke-linejoin="round"/>
<path d="M3.07031 5.61914H16.6753V19.1202C16.6753 19.5181 16.5161 19.8997 16.2326 20.181C15.9491 20.4623 15.5646 20.6204 15.1637 20.6204H4.58198C4.18106 20.6204 3.79656 20.4623 3.51307 20.181C3.22958 19.8997 3.07031 19.5181 3.07031 19.1202V5.61914Z" stroke="#000001" stroke-width="1.50441" stroke-linecap="round" stroke-linejoin="round"/>
<path d="M6.08203 5.61853V4.86847C6.08203 3.87383 6.48019 2.91992 7.18893 2.2166C7.89766 1.51328 8.85891 1.11816 9.8612 1.11816C10.8635 1.11816 11.8248 1.51328 12.5335 2.2166C13.2422 2.91992 13.6404 3.87383 13.6404 4.86847V5.61853" stroke="#000001" stroke-width="1.50441" stroke-linecap="round" stroke-linejoin="round"/>
<path d="M7.60156 8.61914V16.8698" stroke="#000001" stroke-width="1.50441" stroke-linecap="round" stroke-linejoin="round"/>
<path d="M12.1328 8.61914V16.8698" stroke="#000001" stroke-width="1.50441" stroke-linecap="round" stroke-linejoin="round"/>
</svg>
