<svg width="23" height="23" viewBox="0 0 23 23" fill="none" xmlns="http://www.w3.org/2000/svg">
<path d="M7.90625 12.9375L8.91969 13.9509L10.7812 12.0966V20.8438H12.2188V12.0966L14.0803 13.9509L15.0938 12.9375L11.5 9.34375L7.90625 12.9375Z" fill="white"/>
<path d="M16.8923 15.8128H16.5329V14.3753H16.8923C17.7501 14.4096 18.5864 14.1017 19.2172 13.5194C19.8481 12.9371 20.2217 12.1281 20.256 11.2703C20.2904 10.4125 19.9825 9.57616 19.4002 8.94533C18.8179 8.3145 18.0089 7.94083 17.151 7.90652H16.5329L16.461 7.31715C16.3016 6.10709 15.7077 4.99626 14.79 4.19158C13.8723 3.38689 12.6934 2.94323 11.4729 2.94323C10.2524 2.94323 9.0735 3.38689 8.15582 4.19158C7.23814 4.99626 6.64425 6.10709 6.48479 7.31715L6.47042 7.90652H5.85229C4.99448 7.94083 4.18544 8.3145 3.60314 8.94533C3.02084 9.57616 2.71298 10.4125 2.74729 11.2703C2.78161 12.1281 3.15528 12.9371 3.7861 13.5194C4.41693 14.1017 5.25323 14.4096 6.11104 14.3753H6.47042V15.8128H6.11104C4.95846 15.8055 3.84926 15.3724 2.99669 14.5967C2.14412 13.8211 1.60837 12.7576 1.49245 11.6109C1.37653 10.4641 1.68861 9.31497 2.36869 8.38439C3.04878 7.4538 4.04886 6.80747 5.17667 6.56965C5.48696 5.12246 6.28414 3.82544 7.43521 2.89501C8.58627 1.96459 10.0216 1.45703 11.5017 1.45703C12.9817 1.45703 14.4171 1.96459 15.5681 2.89501C16.7192 3.82544 17.5164 5.12246 17.8267 6.56965C18.9545 6.80747 19.9546 7.4538 20.6346 8.38439C21.3147 9.31497 21.6268 10.4641 21.5109 11.6109C21.395 12.7576 20.8592 13.8211 20.0066 14.5967C19.1541 15.3724 18.0449 15.8055 16.8923 15.8128Z" fill="white"/>
</svg>
